<svg xmlns="http://www.w3.org/2000/svg" xmlns:xlink="http://www.w3.org/1999/xlink" width="16" height="16" viewBox="0 0 16 16" fill="none"><g opacity="1"  transform="translate(0 0)  rotate(0)"><mask id="bg-mask-0" fill="white"><use xlink:href="#path_0"></use></mask><g mask="url(#bg-mask-0)" ><path id="Vector" fill-rule="evenodd" style="fill:#5C5C5C" opacity="1" d="M7.99996 8.69998L11.94 12.64C12.04 12.73 12.16 12.78 12.29 12.78C12.42 12.78 12.53 12.73 12.63 12.63C12.73 12.53 12.78 12.42 12.78 12.29C12.78 12.16 12.73 12.04 12.64 11.94L8.69996 7.99998L12.64 4.05998C12.77 3.92998 12.82 3.76998 12.77 3.57998C12.73 3.38998 12.61 3.26998 12.42 3.22998C12.23 3.17998 12.07 3.22998 11.94 3.35998L7.99996 7.29998L4.05996 3.35998C3.95996 3.26998 3.83996 3.21998 3.70996 3.21998C3.57996 3.21998 3.46996 3.26998 3.36996 3.36998C3.26996 3.46998 3.21996 3.57998 3.21996 3.70998C3.21996 3.83998 3.26996 3.95998 3.35996 4.05998L7.29996 7.99998L3.35996 11.94C3.22996 12.07 3.17996 12.23 3.22996 12.42C3.26996 12.61 3.38996 12.73 3.56996 12.77C3.74996 12.82 3.91996 12.77 4.05996 12.64L7.99996 8.69998Z"></path></g></g><defs><rect id="path_0" x="0" y="0" width="16" height="16" /></defs></svg>