<svg xmlns="http://www.w3.org/2000/svg" xmlns:xlink="http://www.w3.org/1999/xlink" width="20" height="20" viewBox="0 0 20 20" fill="none">
<path d="M16.1677 15.8624C11.1478 15.8624 7.07838 11.793 7.07838 6.77312C7.07838 4.18802 8.15764 1.85507 9.89008 0.200012C4.7157 0.464504 0.601562 4.74374 0.601562 9.9839C0.601562 15.3946 4.98775 19.7809 10.3984 19.7809C13.7307 19.7809 16.6744 18.117 18.4442 15.575C17.7166 15.7626 16.9538 15.8624 16.1677 15.8624ZM17.3277 0.627864L18.0457 2.08259L19.651 2.31587L18.4894 3.44824L18.7636 5.04714L17.3277 4.29224L15.8918 5.04714L16.1661 3.44824L15.0044 2.31587L16.6098 2.08259L17.3277 0.627864ZM11.9127 5.10277L12.4662 6.22423L13.7038 6.4041L12.8082 7.27705L13.0197 8.50968L11.9127 7.92773L10.8057 8.50968L11.0171 7.27705L10.1216 6.4041L11.3592 6.22423L11.9127 5.10277ZM16.2396 9.51136L16.7931 10.6328L18.0308 10.8127L17.1352 11.6856L17.3466 12.9183L16.2396 12.3363L15.1327 12.9183L15.3441 11.6856L14.4485 10.8127L15.6862 10.6328L16.2396 9.51136Z"   fill="#5C8EF2" >
</path>
</svg>
