<svg xmlns="http://www.w3.org/2000/svg" xmlns:xlink="http://www.w3.org/1999/xlink" width="20" height="20.000015258789062" viewBox="0 0 20 20.000015258789062" fill="none">
<g filter="url(#filter_22_613)">
<path d="M13.0497 9.73531L9.27047 5.94476C9.1379 5.82251 9.0625 5.65043 9.0625 5.47014C9.0625 5.28984 9.1379 5.11776 9.27047 4.99551L13.0626 1.21141C13.185 1.07677 13.3586 1 13.5406 1C13.7227 1 13.8963 1.07677 14.0187 1.21141L17.7979 5.00842C17.9263 5.13034 17.999 5.29959 17.999 5.47659C17.999 5.6536 17.9263 5.82285 17.7979 5.94476L14.0058 9.73531C13.8833 9.86996 13.7097 9.94673 13.5277 9.94673C13.3457 9.94673 13.1721 9.86996 13.0497 9.73531Z"   fill="#FFFFFF" >
</path>
</g>
<g filter="url(#filter_22_615)">
<path d="M8.00795 10.323C8.36449 10.323 8.65396 10.6123 8.65396 10.9687L8.65396 16.3349C8.65396 16.6915 8.36473 16.9806 8.00795 16.9806L8.03379 17L2.64602 17C2.28923 17 2 16.7109 2 16.3543L2 10.9687C2 10.6121 2.28923 10.323 2.64602 10.323L8.00795 10.323Z"   fill="#D4E4FF" >
</path>
</g>
<g filter="url(#filter_22_616)">
<path d="M8.00795 8.94749L8.03379 8.96041L2.64602 8.96041C2.28923 8.96041 2 8.67129 2 8.31466L2 2.94201C2 2.58538 2.28923 2.29626 2.64602 2.29626L8.00795 2.29626C8.36473 2.29626 8.65396 2.58538 8.65396 2.94201L8.65396 8.30174C8.65396 8.65838 8.36473 8.94749 8.00795 8.94749Z"   fill="#D4E4FF" >
</path>
</g>
<g filter="url(#filter_22_617)">
<path d="M16.7243 16.3155C16.7243 16.6721 16.435 16.9612 16.0783 16.9612L10.7163 16.9612C10.3595 16.9612 10.0703 16.6721 10.0703 16.3155L10.0703 10.9687C10.0703 10.612 10.3595 10.3229 10.7163 10.3229L10.7163 10.3036L16.0783 10.3036C16.435 10.3036 16.7243 10.5927 16.7243 10.9493L16.7243 16.3155Z"   fill="#D4E4FF" >
</path>
</g>
<defs>
<filter id="filter_22_613" x="7.0625" y="0" width="12.9375" height="12.946731567382812" filterUnits="userSpaceOnUse" color-interpolation-filters="sRGB">
<feFlood flood-opacity="0" result="feFloodId_22_613"/>
<feColorMatrix in="SourceAlpha" type="matrix" values="0 0 0 0 0 0 0 0 0 0 0 0 0 0 0 0 0 0 127 0" result="hardAlpha_22_613"/>
<feOffset dx="0" dy="1"/>
<feGaussianBlur stdDeviation="1"/>
<feComposite in2="hardAlpha_22_613" operator="out"/>
<feColorMatrix type="matrix" values="0 0 0 0 0.16862745098039217 0 0 0 0 0.4 0 0 0 0 0.7686274509803922 0 0 0 0.15 0"/>
<feBlend mode="normal" in2="feFloodId_22_613" result="dropShadow_1_22_613"/>
<feBlend mode="normal" in="SourceGraphic" in2="dropShadow_1_22_613" result="shape_22_613"/>
</filter>
<filter id="filter_22_615" x="0" y="9.322967529296875" width="10.65234375" height="10.677047729492188" filterUnits="userSpaceOnUse" color-interpolation-filters="sRGB">
<feFlood flood-opacity="0" result="feFloodId_22_615"/>
<feColorMatrix in="SourceAlpha" type="matrix" values="0 0 0 0 0 0 0 0 0 0 0 0 0 0 0 0 0 0 127 0" result="hardAlpha_22_615"/>
<feOffset dx="0" dy="1"/>
<feGaussianBlur stdDeviation="1"/>
<feComposite in2="hardAlpha_22_615" operator="out"/>
<feColorMatrix type="matrix" values="0 0 0 0 0.16862745098039217 0 0 0 0 0.4 0 0 0 0 0.7686274509803922 0 0 0 0.15 0"/>
<feBlend mode="normal" in2="feFloodId_22_615" result="dropShadow_1_22_615"/>
<feBlend mode="normal" in="SourceGraphic" in2="dropShadow_1_22_615" result="shape_22_615"/>
</filter>
<filter id="filter_22_616" x="0" y="1.2962646484375" width="10.65234375" height="10.664138793945312" filterUnits="userSpaceOnUse" color-interpolation-filters="sRGB">
<feFlood flood-opacity="0" result="feFloodId_22_616"/>
<feColorMatrix in="SourceAlpha" type="matrix" values="0 0 0 0 0 0 0 0 0 0 0 0 0 0 0 0 0 0 127 0" result="hardAlpha_22_616"/>
<feOffset dx="0" dy="1"/>
<feGaussianBlur stdDeviation="1"/>
<feComposite in2="hardAlpha_22_616" operator="out"/>
<feColorMatrix type="matrix" values="0 0 0 0 0.16862745098039217 0 0 0 0 0.4 0 0 0 0 0.7686274509803922 0 0 0 0.15 0"/>
<feBlend mode="normal" in2="feFloodId_22_616" result="dropShadow_1_22_616"/>
<feBlend mode="normal" in="SourceGraphic" in2="dropShadow_1_22_616" result="shape_22_616"/>
</filter>
<filter id="filter_22_617" x="8.0703125" y="9.303558349609375" width="10.65234375" height="10.657684326171875" filterUnits="userSpaceOnUse" color-interpolation-filters="sRGB">
<feFlood flood-opacity="0" result="feFloodId_22_617"/>
<feColorMatrix in="SourceAlpha" type="matrix" values="0 0 0 0 0 0 0 0 0 0 0 0 0 0 0 0 0 0 127 0" result="hardAlpha_22_617"/>
<feOffset dx="0" dy="1"/>
<feGaussianBlur stdDeviation="1"/>
<feComposite in2="hardAlpha_22_617" operator="out"/>
<feColorMatrix type="matrix" values="0 0 0 0 0.16862745098039217 0 0 0 0 0.4 0 0 0 0 0.7686274509803922 0 0 0 0.15 0"/>
<feBlend mode="normal" in2="feFloodId_22_617" result="dropShadow_1_22_617"/>
<feBlend mode="normal" in="SourceGraphic" in2="dropShadow_1_22_617" result="shape_22_617"/>
</filter>
</defs>
</svg>
