<svg xmlns="http://www.w3.org/2000/svg" xmlns:xlink="http://www.w3.org/1999/xlink" width="20.75" height="18.439498901367188" viewBox="0 0 20.75 18.439498901367188" fill="none">
<g filter="url(#filter_168_5308)">
<path d="M14.5055 5.30651L18.0966 11.6205C18.75 12.776 18.2134 13.7255 16.8963 13.7255L12.6499 13.7255L12.6499 12.3025C12.7807 12.536 13.0278 12.6935 13.3103 12.6935C13.7302 12.6935 14.0702 12.347 14.0702 11.92C14.0702 11.4925 13.7302 11.146 13.3103 11.146C13.0278 11.146 12.7807 11.3035 12.6499 11.5375L12.6499 4.6735C12.8601 4.51749 13.0852 4.4395 13.3103 4.4395L13.3108 4.4395C13.7437 4.4395 14.1767 4.7285 14.506 5.30651L14.5055 5.30651ZM13.3103 6.503C13.031 6.503 12.804 6.73399 12.804 7.019L12.804 10.114C12.804 10.399 13.031 10.63 13.3103 10.63C13.5905 10.63 13.8171 10.399 13.8171 10.114L13.8171 7.019C13.8171 6.73399 13.5901 6.503 13.3103 6.503Z"   fill="#357CF0" >
</path>
</g>
<path d="M6.24756 9.35126L6.24756 10.9395L13.7203 10.9395L13.7203 9.35126L12.2258 4.58656L9.23666 1.9395L6.24756 9.35126Z"   fill="#FFFFFF" >
</path>
<g filter="url(#filter_168_5310)">
<path d="M11.6118 2.74245L16.9095 12.2625C17.874 14.0044 17.0834 15.4394 15.1402 15.4394L14.8434 15.4394L14.8435 15.4395L5.25537 15.4395L5.25537 15.4394L4.55489 15.4394C2.61171 15.4394 1.82112 14.0044 2.78556 12.2625L8.08332 2.74245C9.05491 0.999996 10.6401 0.999996 11.6118 2.74245ZM9.26905 4.84268L10.5992 7.84859L10.5992 5.32707C10.5992 4.89737 10.2658 4.55168 9.85265 4.55168C9.61631 4.55168 9.40579 4.66507 9.26905 4.84268Z" fill-rule="evenodd"  fill="#D4E4FF" >
</path>
</g>
<g  clip-path="url(#clip-path-168_5313)">
<g filter="url(#filter_168_5314)">
<path d="M9.43728 10.2894C9.53062 10.5594 9.71727 10.7394 9.99726 10.7394C10.2772 10.7394 10.4639 10.5594 10.5572 10.2894L10.9306 5.33938C10.9306 4.79937 10.4639 4.43938 9.99726 4.43938C9.43728 4.43938 9.06396 4.88937 9.06396 5.42938L9.43728 10.2894ZM9.99726 11.6394C9.43728 11.6394 9.06396 11.9994 9.06396 12.5394C9.06396 13.0794 9.43728 13.4394 9.99726 13.4394C10.5572 13.4394 10.9306 13.0794 10.9306 12.5394C10.9306 11.9994 10.5572 11.6394 9.99726 11.6394Z"   fill="#FFFFFF" >
</path>
</g>
</g>
<defs>
<filter id="filter_168_5308" x="10.64990234375" y="3.4394989013671875" width="10.10009765625" height="13.285995483398438" filterUnits="userSpaceOnUse" color-interpolation-filters="sRGB">
<feFlood flood-opacity="0" result="feFloodId_168_5308"/>
<feColorMatrix in="SourceAlpha" type="matrix" values="0 0 0 0 0 0 0 0 0 0 0 0 0 0 0 0 0 0 127 0" result="hardAlpha_168_5308"/>
<feOffset dx="0" dy="1"/>
<feGaussianBlur stdDeviation="1"/>
<feComposite in2="hardAlpha_168_5308" operator="out"/>
<feColorMatrix type="matrix" values="0 0 0 0 0.16862745098039217 0 0 0 0 0.4 0 0 0 0 0.7686274509803922 0 0 0 0.15 0"/>
<feBlend mode="normal" in2="feFloodId_168_5308" result="dropShadow_1_168_5308"/>
<feBlend mode="normal" in="SourceGraphic" in2="dropShadow_1_168_5308" result="shape_168_5308"/>
</filter>
<filter id="filter_168_5310" x="0" y="0" width="19.75341796875" height="18.439498901367188" filterUnits="userSpaceOnUse" color-interpolation-filters="sRGB">
<feFlood flood-opacity="0" result="feFloodId_168_5310"/>
<feColorMatrix in="SourceAlpha" type="matrix" values="0 0 0 0 0 0 0 0 0 0 0 0 0 0 0 0 0 0 127 0" result="hardAlpha_168_5310"/>
<feOffset dx="0" dy="1"/>
<feGaussianBlur stdDeviation="1"/>
<feComposite in2="hardAlpha_168_5310" operator="out"/>
<feColorMatrix type="matrix" values="0 0 0 0 0 0 0 0 0 0 0 0 0 0 0 0 0 0 0.15 0"/>
<feBlend mode="normal" in2="feFloodId_168_5310" result="dropShadow_1_168_5310"/>
<feBlend mode="normal" in="SourceGraphic" in2="dropShadow_1_168_5310" result="shape_168_5310"/>
</filter>
<clipPath id="clip-path-168_5313">
<path d="M3.31006 15.4394L16.3874 15.4394L16.3874 1.43938L3.31006 1.43938L3.31006 15.4394Z" fill="white"/>
</clipPath>
<filter id="filter_168_5314" x="7.06396484375" y="3.4393768310546875" width="5.86669921875" height="13" filterUnits="userSpaceOnUse" color-interpolation-filters="sRGB">
<feFlood flood-opacity="0" result="feFloodId_168_5314"/>
<feColorMatrix in="SourceAlpha" type="matrix" values="0 0 0 0 0 0 0 0 0 0 0 0 0 0 0 0 0 0 127 0" result="hardAlpha_168_5314"/>
<feOffset dx="0" dy="1"/>
<feGaussianBlur stdDeviation="1"/>
<feComposite in2="hardAlpha_168_5314" operator="out"/>
<feColorMatrix type="matrix" values="0 0 0 0 0.08627450980392157 0 0 0 0 0.36470588235294116 0 0 0 0 1 0 0 0 0.5 0"/>
<feBlend mode="normal" in2="feFloodId_168_5314" result="dropShadow_1_168_5314"/>
<feBlend mode="normal" in="SourceGraphic" in2="dropShadow_1_168_5314" result="shape_168_5314"/>
</filter>
</defs>
</svg>
