<svg xmlns="http://www.w3.org/2000/svg" xmlns:xlink="http://www.w3.org/1999/xlink" width="20" height="18" viewBox="0 0 20 18" fill="none">
<g filter="url(#filter_168_5246)">
<path d="M2 2.16667L2 13.8333C2 14.475 2.51429 15 3.14286 15L8.85714 15C9.48572 15 10 14.475 10 13.8333L10 3.33333C10 2.05 8.97143 1 7.71429 1L3.14286 1C2.51429 1 2 1.525 2 2.16667Z"   fill="#C0C4CC" >
</path>
</g>
<g filter="url(#filter_168_5247)">
<path d="M2 13.8333C2 14.475 2.51429 15 3.14286 15L16.8571 15C17.4857 15 18 14.475 18 13.8333L18 3.91667C18 3.275 17.4857 2.75 16.8571 2.75L2 2.75L2 13.8333Z"   fill="#D9D9D9" >
</path>
</g>
<g filter="url(#filter_168_5248)">
<path d="M6.28683 8C6.7599 8 7.14397 7.60793 7.14397 7.125C7.14397 6.64207 6.7599 6.25 6.28683 6.25C5.81376 6.25 5.42969 6.64207 5.42969 7.125C5.42969 7.60793 5.81376 8 6.28683 8Z"   fill="#FFFFFF" >
</path>
</g>
<g filter="url(#filter_168_5249)">
<path d="M6.28683 11.5C6.7599 11.5 7.14397 11.1079 7.14397 10.625C7.14397 10.1421 6.7599 9.75 6.28683 9.75C5.81376 9.75 5.42969 10.1421 5.42969 10.625C5.42969 11.1079 5.81376 11.5 6.28683 11.5Z"   fill="#FFFFFF" >
</path>
</g>
<g filter="url(#filter_168_5251)">
<path d="M8.85547 7.12508C8.85547 7.47508 9.08404 7.70842 9.4269 7.70842L13.9983 7.70842C14.3412 7.70842 14.5698 7.47508 14.5698 7.12508C14.5698 6.77508 14.3412 6.54175 13.9983 6.54175L9.4269 6.54175C9.08404 6.54175 8.85547 6.77508 8.85547 7.12508Z"   fill="#FFFFFF" >
</path>
</g>
<g filter="url(#filter_168_5252)">
<path d="M8.85547 10.6251C8.85547 10.9751 9.08404 11.2084 9.4269 11.2084L13.9983 11.2084C14.3412 11.2084 14.5698 10.9751 14.5698 10.6251C14.5698 10.2751 14.3412 10.0417 13.9983 10.0417L9.4269 10.0417C9.08404 10.0417 8.85547 10.2751 8.85547 10.6251Z"   fill="#FFFFFF" >
</path>
</g>
<defs>
<filter id="filter_168_5246" x="0" y="0" width="12" height="18" filterUnits="userSpaceOnUse" color-interpolation-filters="sRGB">
<feFlood flood-opacity="0" result="feFloodId_168_5246"/>
<feColorMatrix in="SourceAlpha" type="matrix" values="0 0 0 0 0 0 0 0 0 0 0 0 0 0 0 0 0 0 127 0" result="hardAlpha_168_5246"/>
<feOffset dx="0" dy="1"/>
<feGaussianBlur stdDeviation="1"/>
<feComposite in2="hardAlpha_168_5246" operator="out"/>
<feColorMatrix type="matrix" values="0 0 0 0 0 0 0 0 0 0 0 0 0 0 0 0 0 0 0.15 0"/>
<feBlend mode="normal" in2="feFloodId_168_5246" result="dropShadow_1_168_5246"/>
<feBlend mode="normal" in="SourceGraphic" in2="dropShadow_1_168_5246" result="shape_168_5246"/>
</filter>
<filter id="filter_168_5247" x="0" y="1.75" width="20" height="16.25" filterUnits="userSpaceOnUse" color-interpolation-filters="sRGB">
<feFlood flood-opacity="0" result="feFloodId_168_5247"/>
<feColorMatrix in="SourceAlpha" type="matrix" values="0 0 0 0 0 0 0 0 0 0 0 0 0 0 0 0 0 0 127 0" result="hardAlpha_168_5247"/>
<feOffset dx="0" dy="1"/>
<feGaussianBlur stdDeviation="1"/>
<feComposite in2="hardAlpha_168_5247" operator="out"/>
<feColorMatrix type="matrix" values="0 0 0 0 0 0 0 0 0 0 0 0 0 0 0 0 0 0 0.15 0"/>
<feBlend mode="normal" in2="feFloodId_168_5247" result="dropShadow_1_168_5247"/>
<feBlend mode="normal" in="SourceGraphic" in2="dropShadow_1_168_5247" result="shape_168_5247"/>
</filter>
<filter id="filter_168_5248" x="3.4296875" y="5.25" width="5.71435546875" height="5.75" filterUnits="userSpaceOnUse" color-interpolation-filters="sRGB">
<feFlood flood-opacity="0" result="feFloodId_168_5248"/>
<feColorMatrix in="SourceAlpha" type="matrix" values="0 0 0 0 0 0 0 0 0 0 0 0 0 0 0 0 0 0 127 0" result="hardAlpha_168_5248"/>
<feOffset dx="0" dy="1"/>
<feGaussianBlur stdDeviation="1"/>
<feComposite in2="hardAlpha_168_5248" operator="out"/>
<feColorMatrix type="matrix" values="0 0 0 0 0 0 0 0 0 0 0 0 0 0 0 0 0 0 0.15 0"/>
<feBlend mode="normal" in2="feFloodId_168_5248" result="dropShadow_1_168_5248"/>
<feBlend mode="normal" in="SourceGraphic" in2="dropShadow_1_168_5248" result="shape_168_5248"/>
</filter>
<filter id="filter_168_5249" x="3.4296875" y="8.75" width="5.71435546875" height="5.75" filterUnits="userSpaceOnUse" color-interpolation-filters="sRGB">
<feFlood flood-opacity="0" result="feFloodId_168_5249"/>
<feColorMatrix in="SourceAlpha" type="matrix" values="0 0 0 0 0 0 0 0 0 0 0 0 0 0 0 0 0 0 127 0" result="hardAlpha_168_5249"/>
<feOffset dx="0" dy="1"/>
<feGaussianBlur stdDeviation="1"/>
<feComposite in2="hardAlpha_168_5249" operator="out"/>
<feColorMatrix type="matrix" values="0 0 0 0 0 0 0 0 0 0 0 0 0 0 0 0 0 0 0.15 0"/>
<feBlend mode="normal" in2="feFloodId_168_5249" result="dropShadow_1_168_5249"/>
<feBlend mode="normal" in="SourceGraphic" in2="dropShadow_1_168_5249" result="shape_168_5249"/>
</filter>
<filter id="filter_168_5251" x="6.85546875" y="5.541748046875" width="9.71435546875" height="5.1666717529296875" filterUnits="userSpaceOnUse" color-interpolation-filters="sRGB">
<feFlood flood-opacity="0" result="feFloodId_168_5251"/>
<feColorMatrix in="SourceAlpha" type="matrix" values="0 0 0 0 0 0 0 0 0 0 0 0 0 0 0 0 0 0 127 0" result="hardAlpha_168_5251"/>
<feOffset dx="0" dy="1"/>
<feGaussianBlur stdDeviation="1"/>
<feComposite in2="hardAlpha_168_5251" operator="out"/>
<feColorMatrix type="matrix" values="0 0 0 0 0 0 0 0 0 0 0 0 0 0 0 0 0 0 0.15 0"/>
<feBlend mode="normal" in2="feFloodId_168_5251" result="dropShadow_1_168_5251"/>
<feBlend mode="normal" in="SourceGraphic" in2="dropShadow_1_168_5251" result="shape_168_5251"/>
</filter>
<filter id="filter_168_5252" x="6.85546875" y="9.041748046875" width="9.71435546875" height="5.1666717529296875" filterUnits="userSpaceOnUse" color-interpolation-filters="sRGB">
<feFlood flood-opacity="0" result="feFloodId_168_5252"/>
<feColorMatrix in="SourceAlpha" type="matrix" values="0 0 0 0 0 0 0 0 0 0 0 0 0 0 0 0 0 0 127 0" result="hardAlpha_168_5252"/>
<feOffset dx="0" dy="1"/>
<feGaussianBlur stdDeviation="1"/>
<feComposite in2="hardAlpha_168_5252" operator="out"/>
<feColorMatrix type="matrix" values="0 0 0 0 0 0 0 0 0 0 0 0 0 0 0 0 0 0 0.15 0"/>
<feBlend mode="normal" in2="feFloodId_168_5252" result="dropShadow_1_168_5252"/>
<feBlend mode="normal" in="SourceGraphic" in2="dropShadow_1_168_5252" result="shape_168_5252"/>
</filter>
</defs>
</svg>
