<svg xmlns="http://www.w3.org/2000/svg" xmlns:xlink="http://www.w3.org/1999/xlink" width="20" height="20" viewBox="0 0 20 20" fill="none">
<path d="M5.63672 2.90358L17.8442 2.90358C17.8343 2.90358 17.8244 2.90334 17.8145 2.90285C17.8046 2.90237 17.7947 2.90164 17.7849 2.90067C17.775 2.89969 17.7651 2.89848 17.7553 2.89702C17.7455 2.89557 17.7358 2.89388 17.7261 2.89194C17.7163 2.89001 17.7067 2.88785 17.697 2.88544C17.6874 2.88303 17.6779 2.88038 17.6684 2.8775C17.6589 2.87463 17.6495 2.87153 17.6402 2.86818C17.6308 2.86484 17.6216 2.86127 17.6124 2.85748C17.6033 2.85369 17.5942 2.84968 17.5853 2.84544C17.5763 2.8412 17.5675 2.83675 17.5587 2.83208C17.55 2.8274 17.5414 2.82252 17.5329 2.81743C17.5244 2.81233 17.516 2.80703 17.5078 2.80152C17.4995 2.79602 17.4914 2.79031 17.4835 2.78441C17.4755 2.77851 17.4677 2.77241 17.46 2.76613C17.4523 2.75983 17.4449 2.75336 17.4375 2.74671C17.4302 2.74005 17.423 2.73322 17.416 2.72622C17.409 2.71921 17.4021 2.71204 17.3955 2.70469C17.3888 2.69735 17.3824 2.68984 17.3761 2.68218C17.3698 2.67453 17.3637 2.66672 17.3578 2.65876C17.3519 2.65079 17.3462 2.64269 17.3407 2.63445C17.3352 2.62621 17.3299 2.61784 17.3248 2.60933C17.3197 2.60083 17.3148 2.59221 17.3101 2.58347C17.3055 2.57473 17.301 2.56589 17.2968 2.55693C17.2925 2.54797 17.2885 2.53891 17.2847 2.52976C17.2809 2.5206 17.2774 2.51135 17.274 2.50202C17.2707 2.49269 17.2676 2.48328 17.2647 2.4738C17.2618 2.46432 17.2592 2.45477 17.2568 2.44515C17.2544 2.43554 17.2522 2.42588 17.2503 2.41616C17.2483 2.40644 17.2466 2.39667 17.2452 2.38687C17.2437 2.37707 17.2425 2.36724 17.2415 2.35738C17.2406 2.34751 17.2398 2.33762 17.2393 2.32772C17.2389 2.31783 17.2386 2.30792 17.2386 2.29802L17.2386 12.986L18.4497 12.986L18.4497 2.29802C18.4497 2.28811 18.4495 2.2782 18.449 2.26831C18.4486 2.2584 18.4478 2.24851 18.4469 2.23865C18.4458 2.22879 18.4446 2.21896 18.4432 2.20916C18.4418 2.19936 18.44 2.1896 18.438 2.17988C18.4362 2.17016 18.434 2.16049 18.4317 2.15088C18.4292 2.14126 18.4265 2.13171 18.4237 2.12223C18.4209 2.11275 18.4177 2.10334 18.4143 2.09401C18.411 2.08467 18.4075 2.07542 18.4037 2.06627C18.3999 2.05712 18.3959 2.04806 18.3916 2.0391C18.3874 2.03014 18.3829 2.02129 18.3782 2.01254C18.3736 2.0038 18.3687 1.99519 18.3636 1.9867C18.3586 1.97819 18.3532 1.96982 18.3477 1.96158C18.3422 1.95333 18.3364 1.94523 18.3305 1.93727C18.3246 1.92931 18.3185 1.9215 18.3123 1.91385C18.306 1.90619 18.2996 1.89868 18.293 1.89134C18.2862 1.88399 18.2794 1.87682 18.2724 1.86981C18.2655 1.8628 18.2582 1.85597 18.2508 1.84932C18.2435 1.84266 18.236 1.83618 18.2283 1.8299C18.2206 1.82362 18.2128 1.81753 18.2049 1.81162C18.197 1.80572 18.1889 1.80001 18.1807 1.79451C18.1724 1.78899 18.164 1.78369 18.1555 1.7786C18.147 1.7735 18.1384 1.76862 18.1296 1.76395C18.1209 1.75928 18.112 1.75482 18.1031 1.75059C18.0941 1.74635 18.085 1.74233 18.076 1.73854C18.0667 1.73475 18.0575 1.73118 18.0481 1.72784C18.0388 1.7245 18.0294 1.7214 18.02 1.71852C18.0105 1.71564 18.001 1.713 17.9913 1.71059C17.9817 1.70818 17.9721 1.70601 17.9624 1.70408C17.9526 1.70215 17.9428 1.70045 17.933 1.699C17.9232 1.69754 17.9134 1.69633 17.9036 1.69536C17.8937 1.69439 17.8838 1.69366 17.8738 1.69317C17.864 1.69269 17.8542 1.69244 17.8442 1.69244L5.63672 1.69244L5.63672 2.90358Z"   fill="#5C8EF2" >
</path>
<path d="M15.6758 15.6725C15.6758 15.7029 15.6765 15.7334 15.678 15.7638C15.6795 15.7942 15.6818 15.8246 15.6847 15.8549C15.6877 15.8853 15.6915 15.9155 15.6959 15.9456C15.7004 15.9758 15.7056 16.0058 15.7116 16.0357C15.7175 16.0655 15.7242 16.0953 15.7316 16.1248C15.739 16.1544 15.7471 16.1837 15.756 16.2129C15.7648 16.2421 15.7743 16.271 15.7846 16.2997C15.7949 16.3283 15.8058 16.3568 15.8175 16.3849C15.8292 16.4131 15.8415 16.4409 15.8545 16.4685C15.8676 16.496 15.8813 16.5232 15.8956 16.5501C15.91 16.577 15.925 16.6035 15.9407 16.6296C15.9563 16.6557 15.9726 16.6815 15.9895 16.7068C16.0065 16.7321 16.024 16.757 16.0422 16.7815C16.0603 16.806 16.0791 16.83 16.0984 16.8536C16.1177 16.8771 16.1376 16.9002 16.1581 16.9227C16.1785 16.9453 16.1995 16.9674 16.2211 16.9889C16.2426 17.0105 16.2647 17.0315 16.2873 17.0519C16.3098 17.0724 16.3329 17.0923 16.3565 17.1116C16.38 17.1309 16.404 17.1497 16.4285 17.1678C16.453 17.186 16.4779 17.2035 16.5032 17.2204C16.5285 17.2374 16.5543 17.2537 16.5804 17.2693C16.6065 17.285 16.633 17.3 16.6599 17.3144C16.6868 17.3288 16.714 17.3424 16.7415 17.3555C16.7691 17.3685 16.7969 17.3808 16.8251 17.3925C16.8532 17.4042 16.8816 17.4151 16.9103 17.4254C16.939 17.4356 16.968 17.4452 16.9971 17.454C17.0263 17.4629 17.0556 17.471 17.0852 17.4784C17.1147 17.4858 17.1445 17.4925 17.1743 17.4984C17.2042 17.5044 17.2342 17.5096 17.2644 17.5141C17.2945 17.5185 17.3247 17.5223 17.3551 17.5252C17.3854 17.5282 17.4158 17.5305 17.4462 17.532C17.4766 17.5335 17.5071 17.5342 17.5376 17.5342C17.568 17.5342 17.5985 17.5335 17.6289 17.532C17.6593 17.5305 17.6897 17.5282 17.72 17.5252C17.7503 17.5223 17.7806 17.5185 17.8107 17.5141C17.8408 17.5096 17.8708 17.5044 17.9007 17.4984C17.9307 17.4925 17.9604 17.4858 17.99 17.4784C18.0195 17.471 18.0488 17.4629 18.078 17.454C18.1072 17.4452 18.1361 17.4356 18.1648 17.4254C18.1935 17.4151 18.2219 17.4042 18.25 17.3925C18.2781 17.3808 18.306 17.3685 18.3336 17.3555C18.3611 17.3424 18.3883 17.3288 18.4151 17.3144C18.442 17.3 18.4686 17.285 18.4946 17.2693C18.5207 17.2537 18.5465 17.2374 18.5719 17.2204C18.5973 17.2035 18.6222 17.186 18.6466 17.1678C18.6711 17.1497 18.6951 17.1309 18.7186 17.1116C18.7422 17.0923 18.7653 17.0724 18.7878 17.0519C18.8104 17.0315 18.8325 17.0105 18.8541 16.9889C18.8756 16.9674 18.8965 16.9453 18.917 16.9227C18.9375 16.9002 18.9574 16.8771 18.9767 16.8535C18.996 16.83 19.0148 16.806 19.033 16.7815C19.0511 16.757 19.0686 16.7321 19.0856 16.7068C19.1025 16.6815 19.1188 16.6557 19.1345 16.6296C19.1501 16.6035 19.1651 16.577 19.1795 16.5501C19.1938 16.5232 19.2075 16.496 19.2206 16.4685C19.2336 16.4409 19.2459 16.4131 19.2576 16.3849C19.2693 16.3568 19.2802 16.3283 19.2904 16.2997C19.3007 16.271 19.3102 16.2421 19.3191 16.2129C19.328 16.1837 19.3361 16.1544 19.3435 16.1248C19.351 16.0953 19.3577 16.0655 19.3636 16.0357C19.3695 16.0058 19.3747 15.9758 19.3791 15.9456C19.3836 15.9155 19.3874 15.8853 19.3903 15.8549C19.3933 15.8246 19.3955 15.7942 19.397 15.7638C19.3986 15.7334 19.3993 15.7029 19.3993 15.6725C19.3993 15.642 19.3986 15.6115 19.397 15.5811C19.3955 15.5507 19.3933 15.5203 19.3903 15.49C19.3874 15.4596 19.3836 15.4294 19.3791 15.3993C19.3747 15.3691 19.3695 15.3391 19.3636 15.3092C19.3577 15.2794 19.351 15.2496 19.3435 15.2201C19.3361 15.1905 19.328 15.1612 19.3191 15.132C19.3102 15.1029 19.3007 15.0739 19.2904 15.0452C19.2802 15.0166 19.2693 14.9881 19.2576 14.96C19.2459 14.9318 19.2336 14.904 19.2206 14.8764C19.2075 14.8489 19.1938 14.8217 19.1795 14.7948C19.1651 14.7679 19.1501 14.7414 19.1345 14.7153C19.1188 14.6892 19.1025 14.6634 19.0856 14.6381C19.0686 14.6128 19.0511 14.5879 19.033 14.5634C19.0148 14.5389 18.996 14.5149 18.9767 14.4914C18.9574 14.4678 18.9375 14.4447 18.917 14.4222C18.8965 14.3996 18.8756 14.3775 18.8541 14.356C18.8325 14.3344 18.8104 14.3134 18.7878 14.293C18.7653 14.2725 18.7422 14.2526 18.7186 14.2333C18.6951 14.214 18.6711 14.1952 18.6466 14.1771C18.6222 14.1589 18.5973 14.1414 18.5719 14.1244C18.5465 14.1075 18.5207 14.0912 18.4946 14.0756C18.4686 14.0599 18.442 14.0449 18.4151 14.0305C18.3883 14.0162 18.3611 14.0025 18.3336 13.9894C18.306 13.9764 18.2781 13.9641 18.25 13.9524C18.2219 13.9407 18.1935 13.9298 18.1648 13.9195C18.1361 13.9093 18.1072 13.8997 18.078 13.8909C18.0488 13.882 18.0195 13.8739 17.99 13.8665C17.9604 13.8591 17.9307 13.8524 17.9007 13.8465C17.8708 13.8405 17.8408 13.8353 17.8107 13.8308C17.7806 13.8264 17.7503 13.8226 17.72 13.8197C17.6897 13.8167 17.6593 13.8144 17.6289 13.8129C17.5985 13.8114 17.568 13.8107 17.5376 13.8107C17.5071 13.8107 17.4766 13.8114 17.4462 13.8129C17.4158 13.8144 17.3854 13.8167 17.3551 13.8197C17.3247 13.8226 17.2945 13.8264 17.2644 13.8308C17.2342 13.8353 17.2042 13.8405 17.1743 13.8465C17.1445 13.8524 17.1147 13.8591 17.0852 13.8665C17.0556 13.8739 17.0263 13.882 16.9971 13.8909C16.968 13.8997 16.939 13.9093 16.9103 13.9195C16.8816 13.9298 16.8532 13.9407 16.8251 13.9524C16.7969 13.9641 16.7691 13.9764 16.7415 13.9894C16.714 14.0025 16.6868 14.0162 16.6599 14.0305C16.633 14.0449 16.6065 14.0599 16.5804 14.0756C16.5543 14.0912 16.5285 14.1075 16.5032 14.1244C16.4779 14.1414 16.453 14.1589 16.4285 14.1771C16.404 14.1952 16.38 14.214 16.3565 14.2333C16.3329 14.2526 16.3098 14.2725 16.2873 14.293C16.2647 14.3134 16.2426 14.3344 16.2211 14.356C16.1995 14.3775 16.1785 14.3996 16.1581 14.4222C16.1376 14.4447 16.1177 14.4678 16.0984 14.4914C16.0791 14.5149 16.0603 14.5389 16.0422 14.5634C16.024 14.5879 16.0065 14.6128 15.9895 14.6381C15.9726 14.6635 15.9563 14.6892 15.9407 14.7153C15.925 14.7415 15.91 14.768 15.8956 14.7948C15.8813 14.8217 15.8676 14.8489 15.8545 14.8764C15.8415 14.904 15.8292 14.9318 15.8175 14.96C15.8058 14.9881 15.7949 15.0166 15.7846 15.0452C15.7743 15.0739 15.7648 15.1029 15.756 15.132C15.7471 15.1612 15.739 15.1905 15.7316 15.2201C15.7242 15.2496 15.7175 15.2794 15.7116 15.3092C15.7056 15.3391 15.7004 15.3691 15.6959 15.3993C15.6915 15.4294 15.6877 15.4596 15.6847 15.49C15.6818 15.5203 15.6795 15.5507 15.678 15.5811C15.6765 15.6115 15.6758 15.642 15.6758 15.6725Z"   fill="#43CF7C" >
</path>
<path d="M14.4485 15.2364L2.16026 15.2364C2.17016 15.2364 2.18007 15.2366 2.18996 15.2371C2.19987 15.2376 2.20976 15.2383 2.21962 15.2393C2.22948 15.2403 2.23931 15.2415 2.24911 15.2429C2.25891 15.2444 2.26868 15.2461 2.2784 15.248C2.28812 15.25 2.29778 15.2521 2.30739 15.2545C2.31701 15.2569 2.32656 15.2596 2.33604 15.2625C2.34552 15.2653 2.35493 15.2684 2.36426 15.2718C2.3736 15.2751 2.38285 15.2787 2.392 15.2825C2.40115 15.2863 2.41021 15.2903 2.41917 15.2945C2.42813 15.2988 2.43697 15.3032 2.44571 15.3079C2.45446 15.3126 2.46308 15.3174 2.47158 15.3225C2.48008 15.3276 2.48845 15.3329 2.49669 15.3384C2.50494 15.344 2.51304 15.3497 2.521 15.3556C2.52896 15.3615 2.53677 15.3675 2.54442 15.3738C2.55208 15.3801 2.55959 15.3866 2.56693 15.3933C2.57428 15.3999 2.58145 15.4067 2.58846 15.4137C2.59546 15.4207 2.60229 15.4279 2.60895 15.4353C2.61561 15.4426 2.62209 15.4501 2.62837 15.4578C2.63465 15.4655 2.64075 15.4733 2.64665 15.4812C2.65255 15.4892 2.65826 15.4973 2.66376 15.5055C2.66928 15.5137 2.67458 15.5221 2.67967 15.5306C2.68476 15.5391 2.68964 15.5478 2.69432 15.5565C2.699 15.5652 2.70345 15.5741 2.70768 15.583C2.71192 15.592 2.71593 15.601 2.71972 15.6102C2.72351 15.6194 2.72708 15.6286 2.73042 15.6379C2.73377 15.6473 2.73687 15.6567 2.73974 15.6662C2.74262 15.6756 2.74527 15.6852 2.74768 15.6948C2.75009 15.7044 2.75226 15.7141 2.7542 15.7238C2.75612 15.7335 2.75781 15.7433 2.75926 15.7531C2.76073 15.7629 2.76194 15.7727 2.76291 15.7826C2.76388 15.7925 2.76461 15.8023 2.76509 15.8122C2.76557 15.8221 2.76582 15.832 2.76582 15.8419L2.76582 4.91174L1.55469 4.91174L1.55469 15.8419C1.55469 15.8519 1.55493 15.8618 1.55542 15.8717C1.5559 15.8816 1.55663 15.8914 1.5576 15.9013C1.55858 15.9112 1.55979 15.921 1.56124 15.9308C1.5627 15.9406 1.56439 15.9504 1.56632 15.9601C1.56826 15.9698 1.57043 15.9795 1.57283 15.9891C1.57524 15.9987 1.57789 16.0083 1.58076 16.0177C1.58364 16.0272 1.58675 16.0366 1.59009 16.046C1.59343 16.0553 1.59699 16.0645 1.60078 16.0737C1.60458 16.0829 1.60859 16.0919 1.61283 16.1009C1.61706 16.1098 1.62152 16.1187 1.62619 16.1274C1.63086 16.1361 1.63575 16.1448 1.64084 16.1533C1.64594 16.1618 1.65124 16.1702 1.65674 16.1784C1.66225 16.1866 1.66795 16.1947 1.67386 16.2027C1.67976 16.2106 1.68586 16.2185 1.69215 16.2261C1.69843 16.2338 1.7049 16.2413 1.71156 16.2486C1.71821 16.256 1.72505 16.2632 1.73206 16.2701C1.73906 16.2771 1.74624 16.284 1.75358 16.2906C1.76092 16.2973 1.76843 16.3038 1.77609 16.3101C1.78375 16.3163 1.79155 16.3224 1.79951 16.3283C1.80747 16.3342 1.81557 16.3399 1.82382 16.3455C1.83206 16.351 1.84043 16.3563 1.84894 16.3614C1.85744 16.3664 1.86606 16.3713 1.8748 16.376C1.88354 16.3807 1.89238 16.3851 1.90134 16.3894C1.9103 16.3936 1.91936 16.3976 1.92851 16.4014C1.93767 16.4052 1.94692 16.4088 1.95625 16.4121C1.96558 16.4155 1.97499 16.4186 1.98447 16.4215C1.99395 16.4243 2.0035 16.427 2.01312 16.4294C2.02273 16.4318 2.0324 16.434 2.04212 16.4359C2.05184 16.4378 2.0616 16.4395 2.0714 16.441C2.0812 16.4424 2.09103 16.4436 2.10089 16.4446C2.11077 16.4456 2.12065 16.4463 2.13055 16.4468C2.14044 16.4473 2.15035 16.4475 2.16026 16.4475L14.4484 16.4475L14.4484 15.2364L14.4485 15.2364Z"   fill="#5C8EF2" >
</path>
<path d="M0.605469 2.06378C0.605458 2.09426 0.606196 2.12472 0.607681 2.15515C0.609166 2.1856 0.611397 2.21598 0.614374 2.24631C0.617351 2.27664 0.621072 2.30688 0.625534 2.33703C0.629996 2.36718 0.635195 2.39721 0.641132 2.42709C0.647069 2.45699 0.653736 2.48672 0.661132 2.51627C0.668529 2.54585 0.676646 2.5752 0.685483 2.60436C0.694322 2.63354 0.703871 2.66247 0.714131 2.69116C0.724391 2.71986 0.735348 2.74829 0.747003 2.77644C0.758658 2.80461 0.770997 2.83248 0.78402 2.86002C0.797044 2.88759 0.810735 2.9148 0.825095 2.94167C0.839455 2.96856 0.854466 2.99506 0.870128 3.02121C0.885789 3.04736 0.902082 3.0731 0.919008 3.09843C0.935935 3.12378 0.953472 3.14868 0.971621 3.17317C0.98977 3.19765 1.00851 3.22167 1.02784 3.24523C1.04717 3.26879 1.06706 3.29187 1.08753 3.31446C1.10799 3.33705 1.12899 3.35912 1.15054 3.38066C1.17209 3.40222 1.19415 3.42323 1.21672 3.44371C1.2393 3.46418 1.26237 3.48408 1.28592 3.50341C1.30948 3.52275 1.33349 3.54151 1.35797 3.55965C1.38245 3.57783 1.40735 3.59536 1.43269 3.6123C1.45803 3.62923 1.48377 3.64555 1.5099 3.66121C1.53604 3.67687 1.56255 3.69189 1.58942 3.70626C1.6163 3.72064 1.64351 3.73434 1.67106 3.74736C1.69861 3.76039 1.72646 3.77276 1.75462 3.78442C1.78277 3.79607 1.8112 3.80704 1.83988 3.81731C1.86858 3.82759 1.89751 3.83715 1.92667 3.84599C1.95584 3.85485 1.9852 3.86296 2.01476 3.87037C2.04432 3.87777 2.07405 3.88445 2.10394 3.8904C2.13383 3.89635 2.16385 3.90156 2.194 3.90603C2.22414 3.91051 2.25437 3.91425 2.2847 3.91722C2.31503 3.92022 2.34541 3.92247 2.37586 3.92395C2.4063 3.92544 2.43675 3.92619 2.46724 3.92619C2.49771 3.92619 2.52816 3.92544 2.55861 3.92395C2.58905 3.92247 2.61943 3.92022 2.64976 3.91722C2.68008 3.91425 2.71032 3.91051 2.74047 3.90603C2.77062 3.90156 2.80063 3.89635 2.83054 3.8904C2.86042 3.88445 2.89015 3.87777 2.91971 3.87037C2.94926 3.86296 2.97863 3.85485 3.00779 3.84599C3.03695 3.83715 3.06588 3.82759 3.09457 3.81731C3.12327 3.80704 3.15169 3.79607 3.17985 3.78442C3.208 3.77276 3.23585 3.76039 3.26341 3.74736C3.29094 3.73434 3.31815 3.72064 3.34504 3.70626C3.37192 3.69189 3.39842 3.67687 3.42457 3.66121C3.45069 3.64555 3.47643 3.62923 3.50178 3.6123C3.52712 3.59536 3.55202 3.57783 3.57651 3.55965C3.60097 3.54151 3.62499 3.52275 3.64855 3.50341C3.67209 3.48408 3.69516 3.46418 3.71775 3.44371C3.74031 3.42323 3.76239 3.40222 3.78393 3.38066C3.80547 3.35912 3.82648 3.33705 3.84694 3.31446C3.8674 3.29187 3.88729 3.26879 3.90662 3.24523C3.92595 3.22167 3.94469 3.19765 3.96285 3.17317C3.98099 3.14868 3.99852 3.12378 4.01546 3.09843C4.03238 3.0731 4.04868 3.04736 4.06433 3.02121C4.08 2.99506 4.09502 2.96856 4.10937 2.94167C4.12372 2.9148 4.13741 2.88759 4.15045 2.86002C4.16347 2.83248 4.17581 2.80461 4.18747 2.77644C4.19913 2.74829 4.21007 2.71986 4.22033 2.69116C4.23059 2.66247 4.24014 2.63354 4.24898 2.60436C4.25782 2.5752 4.26593 2.54585 4.27333 2.51627C4.28072 2.48672 4.28738 2.45699 4.29333 2.42709C4.29927 2.39721 4.30448 2.36718 4.30894 2.33703C4.31341 2.30688 4.31713 2.27664 4.3201 2.24631C4.32308 2.21598 4.32529 2.1856 4.32678 2.15515C4.32827 2.12472 4.32899 2.09426 4.32899 2.06378C4.32899 2.03331 4.32827 2.00286 4.32678 1.97241C4.32529 1.94198 4.32308 1.9116 4.3201 1.88127C4.31713 1.85094 4.31341 1.8207 4.30894 1.79055C4.30448 1.7604 4.29927 1.73038 4.29333 1.70049C4.28738 1.6706 4.28072 1.64087 4.27333 1.6113C4.26593 1.58174 4.25782 1.55237 4.24898 1.52321C4.24014 1.49404 4.23059 1.46511 4.22033 1.43641C4.21007 1.40772 4.19913 1.37929 4.18747 1.35113C4.17581 1.32297 4.16347 1.29511 4.15045 1.26756C4.13741 1.24001 4.12372 1.21279 4.10937 1.18591C4.09502 1.15903 4.08 1.13252 4.06433 1.10637C4.04868 1.08023 4.03238 1.05449 4.01546 1.02914C3.99852 1.0038 3.98099 0.978886 3.96285 0.954404C3.94469 0.929922 3.92595 0.905901 3.90662 0.882339C3.88729 0.858776 3.8674 0.835703 3.84694 0.813118C3.82648 0.790533 3.80547 0.768464 3.78393 0.746911C3.76239 0.725357 3.74031 0.704346 3.71775 0.683876C3.69516 0.663407 3.67209 0.643502 3.64855 0.624165C3.62499 0.604828 3.60097 0.58608 3.57651 0.567922C3.55202 0.549765 3.52712 0.532218 3.50178 0.515283C3.47643 0.498349 3.45069 0.482046 3.42457 0.466376C3.39842 0.450704 3.37192 0.435683 3.34504 0.421315C3.31815 0.406946 3.29094 0.393246 3.26341 0.380213C3.23585 0.367179 3.208 0.354831 3.17985 0.343166C3.15169 0.331501 3.12327 0.320534 3.09457 0.310264C3.06588 0.299995 3.03695 0.290437 3.00779 0.281587C2.97863 0.272739 2.94926 0.264612 2.91971 0.257205C2.89015 0.249799 2.86042 0.243122 2.83054 0.237175C2.80063 0.231228 2.77062 0.226018 2.74047 0.221545C2.71032 0.217073 2.68008 0.213342 2.64976 0.210354C2.61943 0.207367 2.58905 0.205125 2.55861 0.20363C2.52816 0.202134 2.49771 0.201385 2.46724 0.201385C2.43675 0.201385 2.4063 0.202134 2.37586 0.20363C2.34541 0.205125 2.31503 0.207367 2.2847 0.210354C2.25437 0.213342 2.22414 0.217073 2.194 0.221545C2.16385 0.226018 2.13383 0.231228 2.10394 0.237175C2.07405 0.243122 2.04432 0.249799 2.01476 0.257205C1.9852 0.264612 1.95584 0.272739 1.92667 0.281587C1.89751 0.290437 1.86858 0.299995 1.83988 0.310264C1.8112 0.320534 1.78277 0.331501 1.75462 0.343166C1.72646 0.354831 1.69861 0.367179 1.67106 0.380213C1.64351 0.393246 1.6163 0.406946 1.58942 0.421315C1.56255 0.435683 1.53604 0.450704 1.5099 0.466376C1.48377 0.482046 1.45803 0.498349 1.43269 0.515283C1.40735 0.532218 1.38245 0.549765 1.35797 0.567922C1.33349 0.58608 1.30948 0.604828 1.28592 0.624165C1.26237 0.643502 1.2393 0.663407 1.21672 0.683876C1.19415 0.704346 1.17209 0.725357 1.15054 0.746911C1.12899 0.768464 1.10799 0.790533 1.08753 0.813118C1.06706 0.835703 1.04717 0.858776 1.02784 0.882339C1.00851 0.905901 0.98977 0.929922 0.971621 0.954404C0.953472 0.978886 0.935935 1.0038 0.919008 1.02914C0.902082 1.05449 0.885789 1.08023 0.870128 1.10637C0.854466 1.13252 0.839455 1.15903 0.825095 1.18591C0.810735 1.21279 0.797044 1.24001 0.78402 1.26756C0.770997 1.29511 0.758658 1.32297 0.747003 1.35113C0.735347 1.37929 0.724389 1.40772 0.71413 1.43641C0.703871 1.46511 0.694322 1.49404 0.685483 1.52321C0.676646 1.55237 0.668529 1.58174 0.661132 1.6113C0.653736 1.64087 0.647069 1.6706 0.641132 1.70049C0.635195 1.73038 0.629996 1.7604 0.625534 1.79055C0.621072 1.8207 0.617351 1.85094 0.614374 1.88127C0.611397 1.9116 0.609166 1.94198 0.607681 1.97241C0.606196 2.00286 0.605458 2.03331 0.605469 2.06378Z"   fill="#43CF7C" >
</path>
<path d="M5.61328 5.2168L5.61328 12.8066L14.172 12.8066L14.172 5.2168L5.61328 5.2168ZM7.22814 6.96673L12.3957 6.96673L12.3957 8.17788L7.22814 8.17788L7.22814 6.96673ZM12.4764 10.8692L7.38961 10.8692L7.38961 9.65804L12.4764 9.65804L12.4764 10.8692Z"   fill="#A2BEF8" >
</path>
</svg>
