<svg xmlns="http://www.w3.org/2000/svg" xmlns:xlink="http://www.w3.org/1999/xlink" width="20" height="20" viewBox="0 0 20 20" fill="none">
<path d="M16.2564 2.03033L3.46859 2.03033C2.57076 2.03033 1.84353 2.76543 1.84353 3.66336L1.83594 17.6927C1.83584 17.939 2.13359 18.0623 2.30769 17.8882L5.02062 15.1753C5.02702 15.1689 5.03372 15.1628 5.04072 15.1571C5.04771 15.1513 5.05497 15.146 5.06251 15.1409C5.07003 15.1359 5.07779 15.1313 5.08579 15.127C5.09376 15.1227 5.10195 15.1189 5.1103 15.1154C5.11866 15.112 5.12718 15.1089 5.13585 15.1063C5.1445 15.1037 5.15327 15.1015 5.16216 15.0997C5.17103 15.0979 5.17997 15.0966 5.189 15.0957C5.198 15.0948 5.20702 15.0944 5.21609 15.0944L16.2564 15.0944C17.3064 15.0944 18.1655 14.2352 18.1655 13.1852L18.1655 3.93975C18.1655 2.88955 17.3064 2.03033 16.2564 2.03033ZM10.7754 11.9946C10.7754 11.9991 10.7753 12.0036 10.7751 12.0081C10.7749 12.0126 10.7746 12.0171 10.7741 12.0216C10.7737 12.0261 10.7731 12.0306 10.7725 12.0351C10.7718 12.0396 10.771 12.044 10.7701 12.0484C10.7692 12.0529 10.7682 12.0573 10.7671 12.0617C10.7661 12.0661 10.7648 12.0704 10.7635 12.0747C10.7622 12.0791 10.7608 12.0834 10.7593 12.0876C10.7578 12.0919 10.7561 12.0961 10.7544 12.1003C10.7527 12.1044 10.7508 12.1086 10.7489 12.1127C10.747 12.1167 10.7449 12.1208 10.7428 12.1248C10.7407 12.1288 10.7384 12.1327 10.7361 12.1366C10.7338 12.1405 10.7314 12.1443 10.7289 12.148C10.7263 12.1518 10.7238 12.1555 10.7211 12.1591C10.7184 12.1627 10.7156 12.1663 10.7127 12.1698C10.7098 12.1733 10.7069 12.1767 10.7038 12.1801C10.7008 12.1834 10.6977 12.1867 10.6945 12.1899C10.6913 12.1931 10.688 12.1962 10.6847 12.1992C10.6813 12.2023 10.6779 12.2052 10.6744 12.2081C10.6709 12.211 10.6674 12.2137 10.6637 12.2164C10.6601 12.2191 10.6564 12.2217 10.6526 12.2242C10.6489 12.2268 10.6451 12.2292 10.6412 12.2315C10.6373 12.2338 10.6334 12.2361 10.6294 12.2382C10.6254 12.2403 10.6214 12.2423 10.6173 12.2443C10.6132 12.2462 10.6091 12.248 10.6049 12.2498C10.6007 12.2515 10.5965 12.2531 10.5922 12.2547C10.588 12.2562 10.5837 12.2576 10.5794 12.2589C10.575 12.2602 10.5707 12.2614 10.5663 12.2625C10.5619 12.2636 10.5575 12.2646 10.5531 12.2655C10.5486 12.2664 10.5442 12.2672 10.5397 12.2678C10.5352 12.2685 10.5307 12.269 10.5262 12.2695C10.5217 12.2699 10.5172 12.2703 10.5127 12.2705C10.5082 12.2707 10.5037 12.2708 10.4992 12.2708L9.28174 12.2708C9.27721 12.2708 9.2727 12.2707 9.26819 12.2705C9.26366 12.2703 9.25914 12.27 9.25465 12.2695C9.25016 12.2691 9.24567 12.2685 9.24119 12.2679C9.2367 12.2672 9.23225 12.2664 9.22783 12.2655C9.22338 12.2646 9.21897 12.2637 9.21459 12.2626C9.2102 12.2614 9.20584 12.2603 9.20153 12.2589C9.19719 12.2576 9.19291 12.2562 9.18866 12.2547C9.1844 12.2532 9.18018 12.2515 9.176 12.2498C9.17182 12.2481 9.16768 12.2463 9.1636 12.2443C9.1595 12.2424 9.15547 12.2404 9.15149 12.2382C9.14748 12.2361 9.14354 12.2338 9.13967 12.2315C9.1358 12.2292 9.13198 12.2268 9.12823 12.2243C9.12446 12.2218 9.12076 12.2192 9.11713 12.2165C9.1135 12.2138 9.10993 12.211 9.10645 12.2081C9.10293 12.2053 9.09951 12.2023 9.09618 12.1993C9.09282 12.1962 9.08953 12.1931 9.08635 12.1899C9.08315 12.1867 9.08002 12.1834 9.077 12.1801C9.07395 12.1768 9.071 12.1733 9.06813 12.1698C9.06526 12.1663 9.06248 12.1628 9.05979 12.1591C9.05709 12.1555 9.05448 12.1518 9.05198 12.148C9.04946 12.1443 9.04703 12.1405 9.04471 12.1366C9.04239 12.1327 9.04016 12.1288 9.03803 12.1248C9.03588 12.1208 9.03385 12.1168 9.03192 12.1127C9.02998 12.1086 9.02815 12.1045 9.02643 12.1003C9.02469 12.0961 9.02307 12.0919 9.02155 12.0876C9.02002 12.0834 9.0186 12.0791 9.01729 12.0748C9.01596 12.0704 9.01477 12.0661 9.01368 12.0617C9.01256 12.0573 9.01157 12.0529 9.01069 12.0485C9.00979 12.044 9.00903 12.0396 9.00836 12.0351C9.0077 12.0306 9.00713 12.0261 9.0067 12.0216C9.00625 12.0171 9.00592 12.0126 9.00571 12.0081C9.00547 12.0036 9.00536 11.9991 9.00536 11.9946L9.00536 10.8855C9.00536 10.881 9.00547 10.8764 9.00571 10.8719C9.00592 10.8674 9.00625 10.8629 9.0067 10.8584C9.00713 10.8539 9.0077 10.8494 9.00836 10.8449C9.00903 10.8405 9.00979 10.836 9.01069 10.8316C9.01157 10.8271 9.01256 10.8228 9.01368 10.8184C9.01477 10.814 9.01596 10.8096 9.01729 10.8053C9.0186 10.801 9.02002 10.7967 9.02155 10.7924C9.02307 10.7881 9.02469 10.7839 9.02643 10.7797C9.02815 10.7756 9.02998 10.7714 9.03194 10.7674C9.03385 10.7633 9.03588 10.7592 9.03803 10.7552C9.04016 10.7513 9.04239 10.7473 9.04471 10.7434C9.04703 10.7396 9.04946 10.7358 9.05198 10.732C9.05448 10.7282 9.05709 10.7245 9.05979 10.7209C9.06248 10.7173 9.06526 10.7137 9.06813 10.7102C9.071 10.7067 9.07395 10.7033 9.077 10.6999C9.08002 10.6966 9.08315 10.6933 9.08635 10.6901C9.08953 10.6869 9.09282 10.6838 9.09618 10.6808C9.09951 10.6777 9.10293 10.6748 9.10645 10.6719C9.10993 10.669 9.1135 10.6663 9.11713 10.6636C9.12076 10.6609 9.12446 10.6583 9.12823 10.6558C9.13198 10.6532 9.1358 10.6508 9.13969 10.6485C9.14356 10.6462 9.14748 10.644 9.15149 10.6418C9.15547 10.6397 9.1595 10.6377 9.1636 10.6357C9.16768 10.6338 9.17182 10.632 9.176 10.6302C9.18018 10.6285 9.1844 10.6269 9.18866 10.6254C9.19291 10.6238 9.19719 10.6224 9.20153 10.6211C9.20584 10.6198 9.2102 10.6186 9.21459 10.6175C9.21897 10.6164 9.22338 10.6154 9.22783 10.6145C9.23225 10.6136 9.2367 10.6129 9.24119 10.6122C9.24567 10.6115 9.25016 10.611 9.25465 10.6105C9.25914 10.6101 9.26366 10.6097 9.26819 10.6095C9.2727 10.6093 9.27721 10.6092 9.28174 10.6092L10.4991 10.6092C10.5036 10.6092 10.5081 10.6093 10.5126 10.6096C10.5171 10.6098 10.5217 10.6101 10.5262 10.6105C10.5306 10.611 10.5351 10.6115 10.5396 10.6122C10.5441 10.6129 10.5485 10.6137 10.553 10.6145C10.5574 10.6154 10.5618 10.6164 10.5662 10.6175C10.5706 10.6186 10.5749 10.6198 10.5793 10.6211C10.5836 10.6224 10.5879 10.6238 10.5921 10.6254C10.5964 10.6269 10.6006 10.6285 10.6048 10.6303C10.609 10.632 10.6131 10.6338 10.6172 10.6358C10.6213 10.6377 10.6253 10.6397 10.6293 10.6419C10.6333 10.644 10.6372 10.6462 10.6411 10.6485C10.645 10.6509 10.6488 10.6533 10.6526 10.6558C10.6563 10.6583 10.66 10.6609 10.6636 10.6636C10.6673 10.6663 10.6708 10.6691 10.6743 10.672C10.6778 10.6748 10.6812 10.6778 10.6846 10.6808C10.6879 10.6838 10.6912 10.687 10.6944 10.6902C10.6976 10.6934 10.7007 10.6966 10.7038 10.7C10.7068 10.7033 10.7097 10.7067 10.7126 10.7102C10.7155 10.7137 10.7183 10.7173 10.721 10.7209C10.7237 10.7246 10.7262 10.7283 10.7288 10.732C10.7313 10.7358 10.7337 10.7396 10.736 10.7435C10.7383 10.7474 10.7406 10.7513 10.7427 10.7553C10.7448 10.7593 10.7469 10.7633 10.7488 10.7674C10.7507 10.7715 10.7526 10.7756 10.7543 10.7798C10.756 10.7839 10.7577 10.7882 10.7592 10.7924C10.7607 10.7967 10.7621 10.801 10.7634 10.8053C10.7647 10.8096 10.766 10.814 10.7671 10.8184C10.7682 10.8228 10.7691 10.8272 10.77 10.8316C10.7709 10.836 10.7717 10.8405 10.7724 10.845C10.773 10.8494 10.7736 10.8539 10.774 10.8584C10.7745 10.8629 10.7748 10.8674 10.775 10.8719C10.7752 10.8764 10.7754 10.881 10.7754 10.8855L10.7754 11.9946L10.7754 11.9946ZM11.498 8.33352C10.854 8.7869 10.5522 9.22799 10.5935 9.65746C10.5945 9.6659 10.5951 9.67434 10.5951 9.68278C10.5951 9.68729 10.595 9.69182 10.5947 9.69633C10.5945 9.70084 10.5942 9.70535 10.5938 9.70987C10.5933 9.71436 10.5928 9.71885 10.5921 9.72332C10.5914 9.72779 10.5906 9.73225 10.5898 9.73668C10.5889 9.74112 10.5879 9.74553 10.5868 9.74992C10.5857 9.75432 10.5845 9.75867 10.5832 9.76299C10.5819 9.76731 10.5804 9.7716 10.5789 9.77586C10.5774 9.78012 10.5758 9.78434 10.574 9.78852C10.5723 9.7927 10.5705 9.79684 10.5685 9.80092C10.5666 9.805 10.5646 9.80904 10.5624 9.81303C10.5603 9.81703 10.5581 9.82096 10.5558 9.82483C10.5534 9.82871 10.551 9.83252 10.5485 9.83629C10.546 9.84006 10.5434 9.84375 10.5407 9.84738C10.538 9.85102 10.5352 9.85457 10.5323 9.85807C10.5295 9.86156 10.5265 9.865 10.5235 9.86834C10.5204 9.87168 10.5173 9.87496 10.5141 9.87817C10.5109 9.88137 10.5077 9.88449 10.5043 9.88752C10.5009 9.89055 10.4975 9.8935 10.494 9.89637C10.4905 9.89924 10.487 9.90201 10.4833 9.90471C10.4797 9.9074 10.476 9.91 10.4722 9.91252C10.4685 9.91504 10.4646 9.91744 10.4608 9.91977C10.4569 9.92209 10.453 9.92434 10.449 9.92647C10.445 9.9286 10.4409 9.93063 10.4369 9.93256C10.4328 9.93449 10.4286 9.93631 10.4245 9.93805C10.4203 9.93979 10.4161 9.94141 10.4118 9.94293C10.4075 9.94445 10.4032 9.94586 10.3989 9.94717C10.3946 9.94848 10.3902 9.94969 10.3858 9.95078C10.3815 9.9519 10.3771 9.95287 10.3726 9.95375C10.3682 9.95463 10.3637 9.95541 10.3593 9.95608C10.3548 9.95674 10.3503 9.95729 10.3458 9.95774C10.3413 9.95819 10.3368 9.95852 10.3323 9.95873C10.3277 9.95895 10.3232 9.95906 10.3187 9.95904L9.42639 9.95904C9.42186 9.95906 9.41735 9.95895 9.41283 9.95873C9.4083 9.95852 9.40381 9.95819 9.39932 9.95774C9.39481 9.95729 9.39032 9.95674 9.38584 9.95608C9.38137 9.95541 9.37692 9.95463 9.37248 9.95375C9.36805 9.95287 9.36364 9.9519 9.35926 9.95078C9.35487 9.94969 9.35051 9.94848 9.34617 9.94717C9.34184 9.94586 9.33756 9.94445 9.3333 9.94293C9.32905 9.94141 9.32483 9.93979 9.32065 9.93805C9.31647 9.93631 9.31233 9.93449 9.30824 9.93256C9.30414 9.93063 9.30012 9.9286 9.29613 9.92647C9.29215 9.92434 9.28821 9.92209 9.28434 9.91977C9.28045 9.91744 9.27662 9.91504 9.27287 9.91252C9.2691 9.91 9.26541 9.9074 9.26178 9.90471C9.25815 9.90201 9.25457 9.89924 9.2511 9.89637C9.2476 9.8935 9.24418 9.89055 9.24082 9.88752C9.23746 9.88447 9.2342 9.88135 9.231 9.87817C9.2278 9.87496 9.22469 9.87168 9.22166 9.86834C9.21862 9.86498 9.21565 9.86156 9.2128 9.85807C9.20992 9.85457 9.20715 9.85102 9.20446 9.84738C9.20176 9.84375 9.19914 9.84006 9.19664 9.83629C9.19412 9.83252 9.1917 9.82871 9.1894 9.82483C9.18705 9.82094 9.18483 9.81701 9.1827 9.81303C9.18057 9.80904 9.17854 9.805 9.17661 9.80092C9.17467 9.79684 9.17284 9.7927 9.17112 9.78852C9.16938 9.78434 9.16776 9.78012 9.16623 9.77586C9.16471 9.7716 9.16328 9.76731 9.16199 9.76299C9.16067 9.75865 9.15948 9.7543 9.15838 9.7499C9.15727 9.74551 9.15627 9.74112 9.15541 9.73668C9.15451 9.73225 9.15375 9.72779 9.15309 9.72332C9.15243 9.71885 9.15186 9.71436 9.15143 9.70985C9.15098 9.70535 9.15065 9.70084 9.15043 9.69633C9.15022 9.69182 9.15012 9.68729 9.15012 9.68278L9.15012 9.56174C9.12582 8.81811 9.43699 8.22928 10.0825 7.79623C10.087 7.79324 10.0915 7.79006 10.0959 7.78678C10.693 7.33143 10.9799 6.89961 10.9563 6.49133C10.9083 5.9909 10.6249 5.71481 10.106 5.66201C10.0949 5.6609 10.0839 5.66041 10.0728 5.66053C9.49746 5.66709 9.11289 6.01725 8.91957 6.711C8.91844 6.71516 8.91719 6.71928 8.91586 6.72338C8.91454 6.72748 8.91311 6.73154 8.91159 6.73559C8.91006 6.73963 8.90844 6.74362 8.90674 6.74758C8.90502 6.75154 8.90323 6.75545 8.90133 6.75932C8.89944 6.76321 8.89746 6.76703 8.89539 6.7708C8.89332 6.77459 8.89116 6.77832 8.88891 6.78199C8.88666 6.78569 8.88434 6.78932 8.88194 6.79289C8.87952 6.79647 8.87702 6.79996 8.87444 6.80342C8.87186 6.80688 8.8692 6.81028 8.86647 6.81361C8.86373 6.81696 8.86092 6.82022 8.85803 6.82342C8.85514 6.8266 8.85217 6.82975 8.84914 6.83281C8.8461 6.83588 8.84299 6.83887 8.83983 6.84178C8.83664 6.84469 8.8334 6.84754 8.8301 6.85029C8.82678 6.85307 8.82342 6.85576 8.81998 6.85836C8.81655 6.86098 8.81305 6.8635 8.80951 6.86594C8.80596 6.86838 8.80235 6.87074 8.7987 6.87303C8.79502 6.87531 8.79129 6.8775 8.78754 6.87961C8.78377 6.8817 8.77997 6.88371 8.77612 6.88565C8.77225 6.88758 8.76836 6.88942 8.76442 6.89115C8.76047 6.89289 8.75649 6.89455 8.75247 6.89611C8.74844 6.89766 8.74438 6.89912 8.7403 6.90051C8.7362 6.90188 8.73209 6.90315 8.72795 6.90432C8.72379 6.90549 8.71961 6.90656 8.71543 6.90756C8.71122 6.90854 8.707 6.90942 8.70276 6.91022C8.69852 6.911 8.69426 6.91168 8.69 6.91227C8.68573 6.91285 8.68145 6.91334 8.67715 6.91373C8.67286 6.9141 8.66854 6.9144 8.66424 6.91457C8.65993 6.91477 8.65561 6.91485 8.65131 6.91483C8.647 6.91481 8.64268 6.91471 8.63838 6.91449C8.63407 6.91428 8.62977 6.91395 8.62549 6.91354C8.6212 6.91313 8.6169 6.9126 8.61264 6.91197C8.60838 6.91137 8.60413 6.91065 8.59989 6.90983L7.47696 6.69008C7.47235 6.68916 7.46776 6.68815 7.46321 6.68701C7.45864 6.68586 7.45413 6.68461 7.44964 6.68324C7.44514 6.68186 7.44067 6.68037 7.43626 6.67877C7.43184 6.67719 7.42747 6.67547 7.42315 6.67365C7.41882 6.67184 7.41452 6.6699 7.4103 6.66785C7.40606 6.6658 7.40188 6.66365 7.39776 6.66141C7.39362 6.65916 7.38956 6.6568 7.38557 6.65434C7.38157 6.65188 7.37762 6.64932 7.37376 6.64666C7.36989 6.64401 7.36608 6.64125 7.36235 6.63838C7.35862 6.63553 7.35497 6.63258 7.35137 6.62955C7.34778 6.62651 7.34428 6.62338 7.34089 6.62016C7.33745 6.61694 7.33411 6.61363 7.33087 6.61026C7.3276 6.60686 7.32444 6.60338 7.32135 6.59985C7.31827 6.59629 7.3153 6.59266 7.31241 6.58897C7.30952 6.58526 7.30671 6.58149 7.30401 6.57764C7.30132 6.57379 7.29872 6.56988 7.29622 6.5659C7.29372 6.56194 7.29132 6.55789 7.28901 6.55379C7.28671 6.54969 7.28452 6.54553 7.28245 6.54133C7.28036 6.53711 7.27839 6.53285 7.27651 6.52854C7.27464 6.52422 7.2729 6.51987 7.27126 6.51547C7.2696 6.51108 7.26805 6.50662 7.26665 6.50215C7.26522 6.49768 7.26391 6.49317 7.26274 6.48862C7.26155 6.48406 7.26048 6.47949 7.25952 6.4749C7.25856 6.47029 7.25772 6.46567 7.257 6.46104C7.25628 6.45639 7.25567 6.45172 7.2552 6.44705C7.25471 6.44238 7.25434 6.4377 7.25411 6.43301C7.25385 6.42832 7.25372 6.42363 7.25372 6.41893C7.25372 6.41422 7.25384 6.40953 7.25407 6.40485C7.2543 6.40014 7.25466 6.39545 7.25512 6.39078C7.25559 6.38612 7.25618 6.38145 7.25688 6.3768C7.25759 6.37217 7.25843 6.36754 7.25936 6.36293C7.2603 6.35834 7.26137 6.35375 7.26255 6.3492C7.63868 4.88147 8.66514 4.17037 10.3419 4.21545C11.8305 4.31164 12.649 4.98262 12.797 6.22752C12.7979 6.23465 12.7985 6.24195 12.7989 6.24908C12.8425 7.0635 12.4089 7.75809 11.498 8.33352Z"   fill="#5C8EF2" >
</path>
</svg>
