<svg xmlns="http://www.w3.org/2000/svg" xmlns:xlink="http://www.w3.org/1999/xlink" width="20" height="20" viewBox="0 0 20 20" fill="none">
<path d="M10.0137 19.9388C11.3766 19.9388 12.6584 19.6776 13.859 19.1554C15.0597 18.6331 16.119 17.9145 17.0372 16.9994C17.9553 16.0843 18.6739 15.025 19.1932 13.8212C19.7123 12.6175 19.9719 11.3372 19.9719 9.98057C19.9719 8.6172 19.7107 7.33514 19.1885 6.13452C18.6662 4.93381 17.9476 3.87446 17.0325 2.95631C16.1175 2.03823 15.0596 1.31957 13.859 0.800317C12.6583 0.281136 11.3766 0.0215454 10.0137 0.0215454C8.65019 0.0215454 7.36813 0.281136 6.16759 0.800317C4.96702 1.3195 3.90761 2.03823 2.98952 2.95631C2.07137 3.87446 1.35271 4.93389 0.833457 6.13452C0.314278 7.3352 0.0546875 8.6172 0.0546875 9.98057C0.0546875 11.3373 0.315816 12.6175 0.838146 13.8213C1.3604 15.025 2.07907 16.0843 2.99414 16.9994C3.90921 17.9145 4.96702 18.6331 6.16759 19.1554C7.36821 19.6776 8.65019 19.9388 10.0137 19.9388ZM10.0137 18.1144L10.0137 1.84596C11.1397 1.84596 12.1949 2.05516 13.1793 2.47352C14.1638 2.89187 15.0272 3.47381 15.7696 4.21927C16.512 4.96474 17.0939 5.82817 17.5154 6.80959C17.9368 7.79085 18.1475 8.84789 18.1475 9.98065C18.1538 11.1065 17.9461 12.1618 17.5247 13.1462C17.1032 14.1307 16.5214 14.9941 15.7793 15.7365C15.0373 16.4789 14.1739 17.0607 13.189 17.4822C12.2043 17.9037 11.1459 18.1144 10.0138 18.1144L10.0137 18.1144Z"   fill="#5C8EF2" >
</path>
</svg>
