<svg xmlns="http://www.w3.org/2000/svg" xmlns:xlink="http://www.w3.org/1999/xlink" width="20" height="20" viewBox="0 0 20 20" fill="none">
<path d="M10.6639 0.666816C10.6639 0.655904 10.6636 0.644998 10.6631 0.634098C10.6626 0.623197 10.6618 0.612318 10.6607 0.601457C10.6596 0.590596 10.6583 0.57977 10.6567 0.568975C10.6551 0.55818 10.6532 0.54743 10.6511 0.536727C10.6489 0.526023 10.6466 0.515379 10.6439 0.504793C10.6413 0.494207 10.6384 0.483693 10.6352 0.47325C10.632 0.462807 10.6286 0.452447 10.6249 0.442172C10.6212 0.431897 10.6173 0.421719 10.6131 0.411637C10.609 0.401555 10.6045 0.39158 10.5999 0.381715C10.5952 0.37185 10.5903 0.362105 10.5852 0.35248C10.58 0.342857 10.5746 0.333365 10.569 0.324004C10.5634 0.314643 10.5576 0.305426 10.5515 0.296354C10.5455 0.287279 10.5392 0.278359 10.5327 0.269594C10.5262 0.260828 10.5195 0.252229 10.5125 0.243793C10.5056 0.235357 10.4985 0.227096 10.4912 0.21901C10.4838 0.210924 10.4763 0.203023 10.4686 0.195306C10.4609 0.187589 10.453 0.180067 10.4449 0.172738C10.4368 0.165409 10.4286 0.158283 10.4201 0.15136C10.4117 0.144437 10.4031 0.137725 10.3943 0.131224C10.3855 0.124724 10.3766 0.118442 10.3676 0.112379C10.3585 0.106316 10.3493 0.100479 10.3399 0.094869C10.3305 0.0892586 10.321 0.0838813 10.3114 0.0787369C10.3018 0.0735926 10.292 0.0686873 10.2822 0.0640215C10.2723 0.0593557 10.2623 0.0549346 10.2523 0.0507584C10.2422 0.0465822 10.232 0.0426559 10.2217 0.0389793C10.2115 0.0353029 10.2011 0.0318807 10.1907 0.0287129C10.1802 0.0255451 10.1697 0.0226354 10.1591 0.0199836C10.1485 0.017332 10.1379 0.0149417 10.1272 0.0128127C10.1165 0.0106837 10.1057 0.00881855 10.0949 0.00721729C10.0841 0.00561602 10.0733 0.00428057 10.0625 0.0032109C10.0516 0.00214125 10.0407 0.00133868 10.0298 0.000803209C10.0189 0.000267736 10.008 0 9.99709 0C9.98617 0 9.97527 0.000267736 9.96437 0.000803209C9.95348 0.00133868 9.9426 0.00214125 9.93174 0.0032109C9.92088 0.00428057 9.91004 0.00561602 9.89924 0.00721729C9.88844 0.00881855 9.8777 0.0106837 9.86699 0.0128127C9.85629 0.0149417 9.84564 0.017332 9.83506 0.0199836C9.82447 0.0226354 9.81394 0.0255451 9.80352 0.0287129C9.79307 0.0318807 9.78271 0.0353029 9.77244 0.0389793C9.76217 0.0426559 9.75199 0.0465822 9.74191 0.0507584C9.73184 0.0549346 9.72186 0.0593557 9.71199 0.0640215C9.70211 0.0686873 9.69236 0.0735926 9.68275 0.0787369C9.67312 0.0838813 9.66363 0.0892586 9.65428 0.094869C9.6449 0.100479 9.63568 0.106316 9.62662 0.112379C9.61754 0.118442 9.60861 0.124724 9.59986 0.131224C9.59109 0.137725 9.5825 0.144437 9.57406 0.15136C9.56563 0.158283 9.55736 0.165409 9.54928 0.172738C9.54119 0.180067 9.53328 0.187589 9.52559 0.195306C9.51785 0.203023 9.51033 0.210924 9.50301 0.21901C9.49566 0.227096 9.48855 0.235357 9.48164 0.243793C9.47471 0.252229 9.46799 0.260828 9.4615 0.269594C9.45498 0.278359 9.44871 0.287279 9.44266 0.296354C9.43658 0.305426 9.43074 0.314643 9.42514 0.324004C9.41951 0.333365 9.41414 0.342857 9.409 0.35248C9.40385 0.362105 9.39895 0.37185 9.3943 0.381715C9.38963 0.39158 9.38522 0.401555 9.38104 0.411637C9.37686 0.421719 9.37293 0.431897 9.36926 0.442172C9.36557 0.452447 9.36215 0.462807 9.35898 0.47325C9.35582 0.483693 9.35291 0.494207 9.35025 0.504793C9.3476 0.515379 9.34522 0.526023 9.34309 0.536727C9.34096 0.54743 9.3391 0.55818 9.3375 0.568975C9.3359 0.57977 9.33455 0.590596 9.33348 0.601457C9.3324 0.612318 9.3316 0.623197 9.33107 0.634098C9.33053 0.644998 9.33027 0.655904 9.33027 0.666816L9.33027 1.9982C9.33027 2.00912 9.33053 2.02002 9.33107 2.03092C9.3316 2.04182 9.3324 2.0527 9.33348 2.06355C9.33455 2.07443 9.3359 2.08525 9.3375 2.09605C9.3391 2.10686 9.34096 2.1176 9.34309 2.1283C9.34522 2.139 9.3476 2.14965 9.35025 2.16023C9.35291 2.17082 9.35582 2.18133 9.35898 2.19178C9.36215 2.20223 9.36557 2.21258 9.36926 2.22285C9.37293 2.23312 9.37686 2.2433 9.38104 2.25338C9.38522 2.26348 9.38963 2.27344 9.3943 2.2833C9.39895 2.29316 9.40385 2.30291 9.409 2.31254C9.41414 2.32217 9.41951 2.33166 9.42514 2.34102C9.43074 2.35037 9.43658 2.35959 9.44266 2.36867C9.44871 2.37775 9.45498 2.38666 9.4615 2.39543C9.46799 2.4042 9.47471 2.41279 9.48164 2.42123C9.48855 2.42967 9.49566 2.43793 9.50301 2.44602C9.51033 2.4541 9.51785 2.46199 9.52559 2.46971C9.53328 2.47742 9.54119 2.48496 9.54928 2.49229C9.55736 2.49961 9.56563 2.50674 9.57406 2.51365C9.5825 2.52059 9.59109 2.52729 9.59986 2.53379C9.60861 2.54029 9.61754 2.54658 9.62662 2.55264C9.63568 2.55871 9.6449 2.56455 9.65428 2.57016C9.66363 2.57576 9.67312 2.58115 9.68275 2.58629C9.69236 2.59143 9.70211 2.59633 9.71199 2.601C9.72186 2.60566 9.73184 2.61008 9.74191 2.61426C9.75199 2.61844 9.76217 2.62236 9.77244 2.62604C9.78271 2.62973 9.79307 2.63314 9.80352 2.63631C9.81394 2.63947 9.82447 2.64238 9.83506 2.64504C9.84564 2.6477 9.85629 2.65008 9.86699 2.65221C9.8777 2.65434 9.88844 2.65621 9.89926 2.65781C9.91004 2.65939 9.92088 2.66074 9.93174 2.66182C9.9426 2.66289 9.95348 2.66369 9.96437 2.66422C9.97527 2.66475 9.98617 2.66502 9.99709 2.66502C10.008 2.66502 10.0189 2.66475 10.0298 2.66422C10.0407 2.66369 10.0516 2.66289 10.0625 2.66182C10.0733 2.66074 10.0841 2.65939 10.0949 2.65781C10.1057 2.65621 10.1165 2.65434 10.1272 2.65221C10.1379 2.65008 10.1485 2.6477 10.1591 2.64504C10.1697 2.64238 10.1802 2.63947 10.1907 2.63631C10.2011 2.63314 10.2115 2.62973 10.2217 2.62604C10.232 2.62236 10.2422 2.61844 10.2523 2.61426C10.2623 2.61008 10.2723 2.60566 10.2822 2.601C10.292 2.59633 10.3018 2.59143 10.3114 2.58629C10.321 2.58115 10.3305 2.57576 10.3399 2.57016C10.3493 2.56455 10.3585 2.55871 10.3676 2.55264C10.3766 2.54658 10.3855 2.54029 10.3943 2.53379C10.4031 2.52729 10.4117 2.52059 10.4201 2.51365C10.4286 2.50674 10.4368 2.49961 10.4449 2.49229C10.453 2.48496 10.4609 2.47742 10.4686 2.46971C10.4763 2.46199 10.4838 2.4541 10.4912 2.44602C10.4985 2.43793 10.5056 2.42967 10.5125 2.42123C10.5195 2.41279 10.5262 2.4042 10.5327 2.39543C10.5392 2.38666 10.5455 2.37775 10.5515 2.36867C10.5576 2.35959 10.5634 2.35037 10.569 2.34102C10.5746 2.33166 10.58 2.32217 10.5852 2.31254C10.5903 2.30291 10.5952 2.29316 10.5999 2.2833C10.6045 2.27344 10.609 2.26348 10.6131 2.25338C10.6173 2.2433 10.6212 2.23312 10.6249 2.22285C10.6286 2.21258 10.632 2.20223 10.6352 2.19178C10.6384 2.18133 10.6413 2.17082 10.6439 2.16023C10.6466 2.14965 10.6489 2.139 10.6511 2.1283C10.6532 2.1176 10.6551 2.10686 10.6567 2.09605C10.6583 2.08525 10.6596 2.07443 10.6607 2.06355C10.6618 2.0527 10.6626 2.04182 10.6631 2.03092C10.6636 2.02002 10.6639 2.00912 10.6639 1.9982L10.6639 0.666816ZM4.813 3.87068L3.87003 2.92772C3.86234 2.91986 3.85445 2.91221 3.8464 2.90477C3.83831 2.8973 3.83007 2.89006 3.82167 2.88301C3.81323 2.87596 3.80464 2.86912 3.79589 2.8625C3.78712 2.85588 3.7782 2.84947 3.76913 2.84328C3.76003 2.83711 3.75081 2.83115 3.74146 2.82543C3.73208 2.81971 3.72257 2.8142 3.71292 2.80895C3.70327 2.80369 3.69351 2.79869 3.68363 2.79391C3.67372 2.78912 3.66372 2.78461 3.65363 2.78033C3.64351 2.77605 3.63329 2.77201 3.62298 2.76824C3.61267 2.76447 3.60226 2.76096 3.59177 2.7577C3.58128 2.75443 3.57072 2.75143 3.56009 2.74869C3.54945 2.74596 3.53874 2.74348 3.528 2.74127C3.51722 2.73906 3.50642 2.73711 3.49558 2.73543C3.48472 2.73377 3.47382 2.73236 3.4629 2.73121C3.45197 2.73008 3.44103 2.72922 3.43007 2.72861C3.41909 2.72801 3.40812 2.7277 3.39714 2.72764C3.38616 2.72758 3.37519 2.72779 3.36421 2.72828C3.35324 2.72877 3.34228 2.72951 3.33136 2.73055C3.32042 2.73158 3.3095 2.73287 3.29865 2.73443C3.28777 2.73602 3.27695 2.73785 3.26617 2.73994C3.25538 2.74205 3.24466 2.74441 3.234 2.74705C3.22333 2.74969 3.21275 2.75258 3.20224 2.75572C3.19171 2.75889 3.18128 2.7623 3.17093 2.76596C3.16058 2.76963 3.15033 2.77355 3.14017 2.77773C3.12999 2.78191 3.11994 2.78635 3.11001 2.79102C3.10007 2.79568 3.09025 2.80061 3.08056 2.80576C3.07087 2.81092 3.0613 2.81631 3.05187 2.82195C3.04244 2.82758 3.03316 2.83344 3.02402 2.83953C3.01488 2.84563 3.00589 2.85193 2.99706 2.85848C2.98824 2.86502 2.97956 2.87176 2.97109 2.87871C2.96259 2.88568 2.95427 2.89285 2.94613 2.90021C2.93798 2.90758 2.93003 2.91516 2.92228 2.92293C2.91451 2.93068 2.90693 2.93863 2.89956 2.94678C2.89218 2.95492 2.88501 2.96324 2.87806 2.97174C2.87111 2.98023 2.86435 2.98889 2.85783 2.99771C2.85128 3.00654 2.84497 3.01553 2.83888 3.02467C2.83279 3.03381 2.82693 3.04309 2.8213 3.05252C2.81566 3.06195 2.81027 3.07152 2.80511 3.08121C2.79996 3.09092 2.79503 3.10072 2.79037 3.11066C2.78568 3.12061 2.78126 3.13064 2.77708 3.14082C2.7729 3.15098 2.76898 3.16123 2.76531 3.17158C2.76164 3.18193 2.75824 3.19236 2.75507 3.20289C2.75191 3.21342 2.74902 3.224 2.7464 3.23465C2.74376 3.24531 2.7414 3.25604 2.73929 3.26682C2.73718 3.2776 2.73535 3.28842 2.73378 3.2993C2.73222 3.31018 2.73091 3.32107 2.7299 3.33201C2.72886 3.34293 2.7281 3.35389 2.72763 3.36486C2.72712 3.37584 2.72691 3.38682 2.72699 3.39779C2.72703 3.40879 2.72736 3.41977 2.72796 3.43072C2.72855 3.44168 2.72943 3.45264 2.73056 3.46355C2.73169 3.47447 2.7331 3.48537 2.73478 3.49623C2.73646 3.50707 2.73839 3.51789 2.74062 3.52865C2.74283 3.53941 2.74531 3.5501 2.74804 3.56074C2.75078 3.57139 2.75376 3.58193 2.75705 3.59242C2.76029 3.60291 2.7638 3.6133 2.76759 3.62363C2.77136 3.63395 2.77538 3.64416 2.77968 3.65428C2.78394 3.66438 2.78847 3.67438 2.79326 3.68428C2.79802 3.69418 2.80304 3.70395 2.8083 3.71357C2.81355 3.72322 2.81904 3.73273 2.82478 3.74211C2.8305 3.75147 2.83646 3.7607 2.84263 3.76979C2.8488 3.77887 2.85521 3.78777 2.86185 3.79654C2.86847 3.80531 2.87531 3.81391 2.88236 3.82232C2.88939 3.83074 2.89665 3.83898 2.90412 3.84705C2.91156 3.85512 2.91921 3.86299 2.92706 3.87068L3.87003 4.81365C3.87777 4.82125 3.88568 4.82863 3.8938 4.83584C3.90189 4.84305 3.91017 4.85004 3.91862 4.85684C3.92706 4.86363 3.93568 4.87021 3.94445 4.8766C3.9532 4.88299 3.96212 4.88914 3.9712 4.8951C3.98027 4.90104 3.98946 4.90676 3.99882 4.91225C4.00816 4.91773 4.01765 4.92301 4.02726 4.92805C4.03685 4.93307 4.04657 4.93787 4.05642 4.94242C4.06624 4.94697 4.07618 4.95129 4.08624 4.95537C4.09628 4.95945 4.10644 4.96328 4.11667 4.96686C4.12691 4.97043 4.13722 4.97375 4.14761 4.97684C4.158 4.9799 4.16847 4.98273 4.17901 4.98529C4.18954 4.98785 4.20013 4.99016 4.21079 4.99221C4.22144 4.99426 4.23212 4.99604 4.24286 4.99758C4.25359 4.9991 4.26435 5.00037 4.27517 5.00137C4.28595 5.00236 4.29677 5.00311 4.30761 5.00357C4.31843 5.00404 4.32927 5.00426 4.34011 5.0042C4.35095 5.00414 4.36179 5.00383 4.37261 5.00324C4.38343 5.00266 4.39425 5.00182 4.40503 5.0007C4.41581 4.99959 4.42657 4.99822 4.4373 4.99658C4.448 4.99496 4.45868 4.99307 4.46931 4.9909C4.47993 4.98873 4.4905 4.98633 4.50101 4.98365C4.51151 4.98098 4.52194 4.97807 4.53232 4.97488C4.54269 4.9717 4.55298 4.96828 4.56317 4.96459C4.57337 4.9609 4.58347 4.95697 4.59347 4.95281C4.60347 4.94863 4.61337 4.94422 4.62317 4.93955C4.63296 4.9349 4.64263 4.93002 4.6522 4.92488C4.66173 4.91975 4.67116 4.91439 4.68046 4.90879C4.68974 4.9032 4.69888 4.8974 4.7079 4.89137C4.7169 4.88533 4.72575 4.87908 4.73446 4.87262C4.74317 4.86615 4.75171 4.85947 4.76009 4.85258C4.76845 4.8457 4.77665 4.83861 4.7847 4.83133C4.79273 4.82404 4.80058 4.81658 4.80825 4.80891C4.81591 4.80123 4.82339 4.79338 4.83067 4.78535C4.83796 4.77732 4.84505 4.76912 4.85192 4.76074C4.8588 4.75236 4.86548 4.74383 4.87196 4.73512C4.87841 4.72643 4.88466 4.71756 4.89071 4.70855C4.89673 4.69955 4.90255 4.69039 4.90813 4.68111C4.91372 4.67182 4.91909 4.6624 4.92423 4.65285C4.92935 4.6433 4.93425 4.63361 4.9389 4.62383C4.94354 4.61404 4.94798 4.60414 4.95216 4.59412C4.95632 4.58412 4.96024 4.57402 4.96394 4.56383C4.96761 4.55361 4.97104 4.54334 4.97423 4.53297C4.97739 4.5226 4.98032 4.51217 4.983 4.50166C4.98565 4.49115 4.98808 4.48059 4.99024 4.46996C4.99239 4.45934 4.99429 4.44867 4.99593 4.43795C4.99757 4.42723 4.99894 4.41648 5.00005 4.40568C5.00114 4.3949 5.002 4.3841 5.00259 4.37326C5.00317 4.36244 5.00349 4.3516 5.00354 4.34076C5.00358 4.32992 5.00339 4.3191 5.00292 4.30826C5.00245 4.29742 5.00171 4.28662 5.00071 4.27582C4.9997 4.26502 4.99843 4.25424 4.9969 4.24352C4.99538 4.23279 4.99358 4.22209 4.99155 4.21145C4.9895 4.2008 4.9872 4.1902 4.98464 4.17967C4.98206 4.16914 4.97925 4.15867 4.97618 4.14826C4.9731 4.13787 4.96976 4.12756 4.9662 4.11732C4.96261 4.10709 4.95878 4.09695 4.95472 4.08689C4.95063 4.07684 4.94632 4.06689 4.94177 4.05707C4.9372 4.04723 4.93241 4.0375 4.92739 4.02791C4.92235 4.0183 4.91708 4.00883 4.91159 3.99947C4.90608 3.99012 4.90038 3.98092 4.89444 3.97186C4.88849 3.96277 4.88231 3.95387 4.87595 3.9451C4.86956 3.93633 4.86298 3.92773 4.85618 3.91928C4.84938 3.91082 4.84237 3.90256 4.83519 3.89445C4.82798 3.88635 4.82058 3.87842 4.813 3.87068ZM17.0671 3.87068C17.0747 3.86293 17.0821 3.85502 17.0893 3.84691C17.0965 3.83881 17.1035 3.83053 17.1103 3.82207C17.1171 3.81363 17.1237 3.80502 17.1301 3.79625C17.1364 3.78748 17.1426 3.77857 17.1486 3.76951C17.1545 3.76043 17.1602 3.75123 17.1657 3.74188C17.1712 3.73252 17.1765 3.72305 17.1815 3.71346C17.1865 3.70385 17.1913 3.69412 17.1959 3.6843C17.2005 3.67445 17.2048 3.66451 17.2089 3.65445C17.2129 3.64441 17.2167 3.63428 17.2203 3.62404C17.2239 3.61381 17.2272 3.6035 17.2303 3.59309C17.2334 3.5827 17.2362 3.57223 17.2388 3.56168C17.2413 3.55115 17.2436 3.54057 17.2457 3.52992C17.2477 3.51928 17.2495 3.50857 17.251 3.49783C17.2526 3.48711 17.2538 3.47635 17.2548 3.46555C17.2558 3.45475 17.2566 3.44395 17.2571 3.43311C17.2575 3.42227 17.2577 3.41143 17.2577 3.40059C17.2576 3.38975 17.2573 3.37891 17.2567 3.36809C17.2561 3.35725 17.2553 3.34645 17.2542 3.33566C17.2531 3.32488 17.2517 3.31414 17.2501 3.30342C17.2484 3.2927 17.2465 3.28201 17.2444 3.27139C17.2422 3.26076 17.2398 3.2502 17.2371 3.23969C17.2345 3.22918 17.2315 3.21875 17.2284 3.20838C17.2252 3.19801 17.2217 3.18773 17.2181 3.17754C17.2144 3.16732 17.2105 3.15723 17.2063 3.14723C17.2021 3.13721 17.1977 3.1273 17.193 3.11752C17.1884 3.10773 17.1835 3.09807 17.1784 3.08852C17.1732 3.07896 17.1679 3.06953 17.1623 3.06025C17.1567 3.05096 17.1509 3.0418 17.1448 3.03279C17.1388 3.02379 17.1325 3.01494 17.1261 3.00623C17.1196 2.99754 17.1129 2.98898 17.1061 2.98061C17.0992 2.97223 17.0921 2.96402 17.0848 2.956C17.0775 2.94797 17.07 2.94012 17.0624 2.93246C17.0547 2.92479 17.0469 2.9173 17.0388 2.91002C17.0308 2.90273 17.0226 2.89566 17.0142 2.88877C17.0058 2.88189 16.9973 2.87522 16.9886 2.86875C16.9799 2.86229 16.971 2.85604 16.962 2.85C16.953 2.84397 16.9439 2.83814 16.9346 2.83256C16.9253 2.82697 16.9159 2.82162 16.9063 2.81648C16.8968 2.81135 16.8871 2.80646 16.8773 2.8018C16.8675 2.79713 16.8576 2.79271 16.8476 2.78855C16.8376 2.78438 16.8275 2.78045 16.8173 2.77678C16.8071 2.77309 16.7968 2.76967 16.7864 2.76648C16.7761 2.7633 16.7656 2.76037 16.7551 2.7577C16.7446 2.75502 16.7341 2.75262 16.7234 2.75045C16.7128 2.7483 16.7021 2.74641 16.6914 2.74477C16.6807 2.74314 16.6699 2.74176 16.6592 2.74064C16.6484 2.73953 16.6376 2.73869 16.6267 2.73811C16.6159 2.73754 16.6051 2.73721 16.5942 2.73715C16.5834 2.73709 16.5725 2.7373 16.5617 2.73779C16.5509 2.73826 16.5401 2.739 16.5293 2.74C16.5185 2.741 16.5077 2.74227 16.497 2.74379C16.4863 2.74531 16.4756 2.74709 16.4649 2.74914C16.4543 2.75119 16.4437 2.75352 16.4332 2.75607C16.4226 2.75863 16.4121 2.76146 16.4017 2.76453C16.3914 2.7676 16.381 2.77094 16.3708 2.77451C16.3606 2.77809 16.3504 2.78191 16.3404 2.78598C16.3303 2.79006 16.3204 2.79438 16.3106 2.79893C16.3007 2.80348 16.291 2.80828 16.2814 2.81332C16.2718 2.81834 16.2623 2.82361 16.253 2.8291C16.2436 2.83459 16.2344 2.84031 16.2253 2.84627C16.2163 2.85221 16.2073 2.85836 16.1986 2.86475C16.1898 2.87113 16.1812 2.87771 16.1728 2.88451C16.1643 2.89131 16.156 2.89832 16.1479 2.90553C16.1398 2.91273 16.1319 2.92012 16.1241 2.92772L15.1812 3.87068C15.1733 3.87836 15.1657 3.88625 15.1582 3.89432C15.1508 3.90238 15.1435 3.91063 15.1365 3.91904C15.1294 3.92746 15.1226 3.93605 15.116 3.94482C15.1093 3.95359 15.1029 3.9625 15.0968 3.97158C15.0906 3.98066 15.0846 3.98988 15.0789 3.99926C15.0732 4.00863 15.0677 4.01814 15.0624 4.02777C15.0572 4.03742 15.0522 4.04719 15.0474 4.05707C15.0426 4.06697 15.0381 4.07697 15.0338 4.08709C15.0295 4.09721 15.0255 4.10742 15.0217 4.11773C15.0179 4.12805 15.0144 4.13844 15.0112 4.14893C15.0079 4.15941 15.0049 4.16998 15.0022 4.18062C14.9994 4.19127 14.997 4.20195 14.9948 4.21272C14.9925 4.22348 14.9906 4.23428 14.9889 4.24514C14.9872 4.25598 14.9858 4.26688 14.9847 4.27779C14.9836 4.28871 14.9827 4.29967 14.9821 4.31063C14.9815 4.3216 14.9812 4.33258 14.9811 4.34355C14.981 4.35453 14.9813 4.36551 14.9818 4.37648C14.9822 4.38746 14.983 4.39842 14.984 4.40936C14.985 4.42027 14.9864 4.43117 14.9879 4.44205C14.9895 4.45293 14.9913 4.46375 14.9934 4.47453C14.9955 4.48531 14.9979 4.49604 15.0005 4.5067C15.0032 4.51736 15.006 4.52795 15.0092 4.53848C15.0124 4.549 15.0158 4.55943 15.0195 4.56979C15.0231 4.58014 15.027 4.59039 15.0312 4.60055C15.0354 4.6107 15.0398 4.62074 15.0445 4.63068C15.0492 4.64062 15.0541 4.65043 15.0592 4.66014C15.0644 4.66984 15.0698 4.67939 15.0754 4.68883C15.0811 4.69826 15.0869 4.70754 15.093 4.71668C15.0991 4.72582 15.1054 4.7348 15.112 4.74363C15.1185 4.75246 15.1252 4.76111 15.1322 4.76961C15.1391 4.77811 15.1463 4.78643 15.1537 4.79457C15.1611 4.80271 15.1686 4.81066 15.1764 4.81842C15.1842 4.82619 15.1921 4.83377 15.2003 4.84113C15.2084 4.8485 15.2167 4.85566 15.2252 4.86264C15.2337 4.86959 15.2424 4.87633 15.2512 4.88287C15.26 4.88941 15.269 4.89572 15.2782 4.90182C15.2873 4.90791 15.2966 4.91377 15.306 4.91939C15.3154 4.92504 15.325 4.93043 15.3347 4.93559C15.3444 4.94074 15.3542 4.94566 15.3641 4.95033C15.3741 4.955 15.3841 4.95943 15.3943 4.96361C15.4045 4.96779 15.4147 4.97172 15.4251 4.97539C15.4354 4.97904 15.4458 4.98246 15.4564 4.98563C15.4669 4.98877 15.4775 4.99166 15.4881 4.9943C15.4988 4.99693 15.5095 4.9993 15.5203 5.00141C15.5311 5.0035 15.5419 5.00533 15.5528 5.00691C15.5636 5.00848 15.5746 5.00977 15.5855 5.0108C15.5964 5.01184 15.6074 5.01258 15.6183 5.01307C15.6293 5.01356 15.6403 5.01377 15.6513 5.01371C15.6623 5.01365 15.6732 5.01334 15.6842 5.01273C15.6952 5.01213 15.7061 5.01127 15.717 5.01014C15.728 5.00898 15.7388 5.00758 15.7497 5.00592C15.7606 5.00424 15.7714 5.00229 15.7821 5.00008C15.7929 4.99787 15.8036 4.99539 15.8142 4.99266C15.8248 4.98992 15.8354 4.98691 15.8459 4.98365C15.8564 4.98039 15.8668 4.97688 15.8771 4.97311C15.8874 4.96934 15.8976 4.96529 15.9077 4.96102C15.9179 4.95674 15.9279 4.95223 15.9378 4.94744C15.9476 4.94268 15.9574 4.93766 15.9671 4.9324C15.9767 4.92715 15.9862 4.92164 15.9956 4.91592C16.0049 4.9102 16.0142 4.90426 16.0232 4.89807C16.0323 4.89188 16.0412 4.88547 16.05 4.87885C16.0588 4.87223 16.0674 4.86541 16.0758 4.85836C16.0842 4.85131 16.0924 4.84404 16.1005 4.8366C16.1086 4.82914 16.1165 4.82148 16.1241 4.81365L17.0671 3.87068ZM9.99709 3.99977C10.0961 3.99842 10.1951 3.99951 10.2941 4.00307C10.393 4.0066 10.4919 4.0126 10.5905 4.02105C10.6892 4.02949 10.7876 4.04037 10.8858 4.05369C10.9839 4.06701 11.0816 4.08275 11.179 4.1009C11.2763 4.11904 11.3732 4.13961 11.4695 4.16256C11.5659 4.18551 11.6616 4.21084 11.7567 4.23854C11.8518 4.26623 11.9461 4.29625 12.0397 4.32861C12.1333 4.36098 12.226 4.39564 12.3179 4.4326C12.4098 4.46957 12.5007 4.50877 12.5906 4.55023C12.6806 4.5917 12.7694 4.63535 12.8572 4.68121C12.945 4.72709 13.0316 4.7751 13.117 4.82523C13.2024 4.87539 13.2865 4.92762 13.3693 4.98193C13.4521 5.03625 13.5335 5.09258 13.6135 5.15092C13.6936 5.20926 13.7721 5.26955 13.8491 5.3318C13.9262 5.39404 14.0016 5.45814 14.0755 5.52412C14.1493 5.59008 14.2215 5.65785 14.292 5.7274C14.3625 5.79695 14.4313 5.8682 14.4983 5.94115C14.5652 6.0141 14.6304 6.08865 14.6936 6.16484C14.7569 6.24102 14.8183 6.31871 14.8777 6.39793C14.9372 6.47715 14.9946 6.55779 15.05 6.63984C15.1055 6.72191 15.1589 6.80529 15.2102 6.89C15.2615 6.97471 15.3107 7.06063 15.3577 7.14777C15.4048 7.2349 15.4497 7.32316 15.4924 7.41252C15.535 7.50188 15.5755 7.59225 15.6137 7.68361C15.6519 7.77498 15.6878 7.86725 15.7215 7.96039C15.7551 8.05354 15.7864 8.14744 15.8154 8.24215C15.8444 8.33686 15.871 8.43221 15.8953 8.52822C15.9196 8.62424 15.9415 8.7208 15.961 8.81789C15.9804 8.91498 15.9975 9.0125 16.0122 9.11045C16.0268 9.2084 16.039 9.30664 16.0489 9.4052C16.0586 9.50375 16.066 9.60248 16.0709 9.70139C16.0758 9.80031 16.0782 9.89928 16.0782 9.99832C16.0782 10.0974 16.0758 10.1963 16.0709 10.2952C16.066 10.3942 16.0586 10.4929 16.0489 10.5914C16.039 10.69 16.0268 10.7882 16.0122 10.8862C15.9975 10.9841 15.9804 11.0816 15.961 11.1788C15.9415 11.2758 15.9196 11.3724 15.8953 11.4684C15.871 11.5644 15.8444 11.6598 15.8154 11.7545C15.7864 11.8492 15.7551 11.9431 15.7215 12.0363C15.6878 12.1294 15.6519 12.2216 15.6137 12.313C15.5755 12.4044 15.535 12.4947 15.4924 12.5841C15.4497 12.6735 15.4048 12.7617 15.3577 12.8489C15.3107 12.936 15.2615 13.0219 15.2102 13.1066C15.1589 13.1913 15.1055 13.2747 15.05 13.3568C14.9946 13.4388 14.9372 13.5195 14.8777 13.5987C14.8183 13.6779 14.7569 13.7556 14.6936 13.8318C14.6304 13.908 14.5652 13.9825 14.4983 14.0555C14.4313 14.1284 14.3625 14.1997 14.292 14.2692C14.2215 14.3388 14.1493 14.4065 14.0755 14.4725C14.0016 14.5385 13.9262 14.6026 13.8491 14.6648C13.7721 14.7271 13.6936 14.7874 13.6135 14.8457C13.5335 14.904 13.4521 14.9604 13.3693 15.0147C13.2865 15.069 13.2024 15.1213 13.117 15.1714C13.0316 15.2215 12.945 15.2696 12.8572 15.3154C12.7694 15.3613 12.6806 15.4049 12.5907 15.4464C12.5007 15.4879 12.4098 15.5271 12.3179 15.564C12.226 15.601 12.1333 15.6356 12.0397 15.668C11.9461 15.7004 11.8518 15.7304 11.7567 15.7581C11.6616 15.7858 11.5659 15.8111 11.4695 15.8341C11.3732 15.857 11.2763 15.8776 11.179 15.8957C11.0816 15.9139 10.9839 15.9296 10.8858 15.943C10.7876 15.9563 10.6892 15.9671 10.5905 15.9756C10.4919 15.984 10.393 15.99 10.2941 15.9936C10.1951 15.9971 10.0961 15.9982 9.99709 15.9969C9.89891 15.9969 9.80078 15.9945 9.70273 15.9896C9.60467 15.9848 9.50678 15.9776 9.40908 15.968C9.31137 15.9583 9.21395 15.9463 9.11684 15.9319C9.01973 15.9175 8.92301 15.9007 8.82672 15.8816C8.73043 15.8624 8.63467 15.8409 8.53944 15.8171C8.44418 15.7932 8.34959 15.767 8.25565 15.7385C8.16168 15.71 8.06848 15.6792 7.97606 15.6462C7.8836 15.6131 7.79204 15.5778 7.70133 15.5402C7.61063 15.5026 7.5209 15.4629 7.43215 15.4209C7.34338 15.3789 7.25571 15.3348 7.16915 15.2885C7.08254 15.2422 6.99715 15.1938 6.91294 15.1434C6.82872 15.0929 6.74581 15.0404 6.66417 14.9858C6.58253 14.9313 6.50229 14.8748 6.42344 14.8163C6.34458 14.7578 6.26719 14.6974 6.19132 14.6351C6.11542 14.5728 6.04108 14.5087 5.96835 14.4428C5.89559 14.3769 5.8245 14.3092 5.75509 14.2398C5.68567 14.1703 5.618 14.0993 5.55206 14.0265C5.48612 13.9538 5.422 13.8794 5.35974 13.8035C5.29743 13.7277 5.23706 13.6503 5.17858 13.5714C5.12009 13.4926 5.06356 13.4123 5.00903 13.3307C4.95448 13.249 4.90196 13.1661 4.85149 13.0819C4.80103 12.9977 4.75265 12.9123 4.70636 12.8257C4.66007 12.7391 4.61595 12.6514 4.57398 12.5627C4.53198 12.4739 4.49222 12.3842 4.45466 12.2935C4.41708 12.2028 4.38175 12.1112 4.34868 12.0188C4.3156 11.9263 4.28482 11.8332 4.25632 11.7392C4.2278 11.6453 4.20163 11.5507 4.17778 11.4554C4.15392 11.3602 4.13241 11.2644 4.11327 11.1681C4.09411 11.0718 4.07734 10.9751 4.06292 10.878C4.04851 10.7809 4.0365 10.6835 4.02689 10.5858C4.01726 10.488 4.01003 10.3902 4.00523 10.2921C4.0004 10.194 3.998 10.0959 3.998 9.99775C3.998 9.89957 4.0004 9.80147 4.00523 9.7034C4.01003 9.60533 4.01726 9.50746 4.02689 9.40975C4.0365 9.31203 4.04851 9.21463 4.06292 9.1175C4.07734 9.02039 4.09411 8.92369 4.11327 8.82738C4.13241 8.73109 4.15392 8.63533 4.17778 8.5401C4.20163 8.44484 4.2278 8.35025 4.25632 8.25631C4.28482 8.16234 4.3156 8.06916 4.34868 7.97672C4.38175 7.88428 4.41708 7.7927 4.45466 7.70199C4.49222 7.61129 4.53198 7.52156 4.57398 7.43281C4.61595 7.34404 4.66007 7.25639 4.70636 7.16981C4.75265 7.08322 4.80103 6.99781 4.85149 6.91359C4.90196 6.82939 4.95448 6.74647 5.00903 6.66482C5.06356 6.5832 5.12009 6.50295 5.17858 6.4241C5.23706 6.34523 5.29743 6.26785 5.35974 6.19197C5.422 6.11607 5.48612 6.04176 5.55206 5.969C5.618 5.89625 5.68567 5.82518 5.75509 5.75574C5.8245 5.68633 5.89559 5.61865 5.96835 5.55271C6.04108 5.48678 6.11542 5.42268 6.19132 5.36039C6.26719 5.29811 6.34458 5.23772 6.42344 5.17924C6.50229 5.12074 6.58253 5.06424 6.66417 5.00969C6.74581 4.95514 6.82872 4.90264 6.91294 4.85215C6.99715 4.80168 7.08254 4.7533 7.16915 4.70701C7.25571 4.66074 7.34338 4.6166 7.43215 4.57463C7.5209 4.53266 7.61063 4.49287 7.70133 4.45531C7.79204 4.41773 7.8836 4.3824 7.97606 4.34934C8.06848 4.31627 8.16168 4.28547 8.25565 4.25697C8.34959 4.22848 8.44418 4.20229 8.53944 4.17844C8.63467 4.15459 8.73043 4.13309 8.82672 4.11393C8.92301 4.09477 9.01973 4.07799 9.11684 4.06357C9.21395 4.04918 9.31137 4.03717 9.40908 4.02754C9.50678 4.01791 9.60467 4.0107 9.70273 4.00588C9.80078 4.00105 9.89891 3.99865 9.99709 3.99865L9.99709 3.99977ZM2.6655 9.99664C2.6655 9.98572 2.66523 9.9748 2.66468 9.96391C2.66414 9.95301 2.66333 9.94213 2.66228 9.93127C2.66121 9.92041 2.65988 9.90959 2.65828 9.89879C2.65667 9.88799 2.6548 9.87725 2.65267 9.86654C2.65054 9.85584 2.64816 9.8452 2.6455 9.83461C2.64285 9.82402 2.63994 9.81352 2.63677 9.80307C2.63361 9.79262 2.63019 9.78227 2.62652 9.77199C2.62283 9.76172 2.6189 9.75154 2.61474 9.74145C2.61056 9.73137 2.60613 9.72139 2.60148 9.71152C2.59679 9.70166 2.59189 9.69193 2.58675 9.68231C2.5816 9.67268 2.57623 9.66318 2.57062 9.65383C2.56499 9.64447 2.55917 9.63525 2.55312 9.62617C2.54705 9.61709 2.54076 9.60818 2.53427 9.59941C2.52777 9.59064 2.52105 9.58205 2.51414 9.57361C2.5072 9.56518 2.50007 9.55691 2.49275 9.54883C2.48541 9.54074 2.47789 9.53283 2.47019 9.52512C2.46246 9.5174 2.45457 9.50988 2.44648 9.50256C2.43839 9.49523 2.43013 9.48811 2.42169 9.48117C2.41326 9.47426 2.40464 9.46754 2.39589 9.46104C2.38712 9.45453 2.3782 9.44826 2.36914 9.44219C2.36005 9.43613 2.35084 9.43029 2.34148 9.42469C2.33212 9.41908 2.32263 9.41369 2.313 9.40856C2.30337 9.40342 2.29363 9.3985 2.28378 9.39383C2.2739 9.38916 2.26394 9.38475 2.25386 9.38057C2.24377 9.37641 2.23359 9.37248 2.22332 9.36879C2.21304 9.36512 2.20267 9.3617 2.19224 9.35854C2.18179 9.35535 2.17128 9.35244 2.1607 9.3498C2.15011 9.34715 2.13947 9.34477 2.12877 9.34264C2.11806 9.34051 2.1073 9.33863 2.09652 9.33703C2.08572 9.33543 2.0749 9.3341 2.06404 9.33303C2.05318 9.33195 2.0423 9.33115 2.0314 9.33063C2.0205 9.3301 2.00959 9.32982 1.99869 9.32982L0.666165 9.32982C0.655258 9.32982 0.644358 9.3301 0.633467 9.33064C0.622573 9.33119 0.6117 9.33201 0.600848 9.33309C0.589995 9.33416 0.579175 9.33551 0.568389 9.33713C0.557602 9.33873 0.546862 9.34061 0.536169 9.34273C0.525474 9.34486 0.514837 9.34727 0.504261 9.34994C0.493683 9.3526 0.483177 9.35551 0.472743 9.35869C0.46231 9.36186 0.45196 9.36527 0.441694 9.36897C0.431427 9.37266 0.421257 9.37658 0.411185 9.38076C0.401112 9.38494 0.391148 9.38938 0.381292 9.39404C0.371437 9.39871 0.3617 9.40361 0.352087 9.40877C0.342472 9.41391 0.33299 9.4193 0.323638 9.4249C0.314287 9.43051 0.305077 9.43635 0.296015 9.44242C0.286949 9.4485 0.278039 9.45477 0.269285 9.46127C0.260527 9.46777 0.251935 9.47447 0.243509 9.48141C0.235084 9.48834 0.226832 9.49547 0.218753 9.50279C0.210675 9.51012 0.202783 9.51764 0.195075 9.52535C0.187367 9.53307 0.179853 9.54098 0.172533 9.54904C0.165212 9.55713 0.158095 9.56539 0.151179 9.57383C0.144264 9.58227 0.13756 9.59086 0.131067 9.59963C0.124573 9.6084 0.118299 9.6173 0.112243 9.62637C0.106187 9.63545 0.100357 9.64467 0.0947537 9.65402C0.08915 9.66338 0.0837789 9.67285 0.0786409 9.68248C0.0735026 9.69211 0.0686034 9.70184 0.063943 9.7117C0.0592829 9.72156 0.0548673 9.73152 0.050696 9.7416C0.0465249 9.75168 0.0426034 9.76186 0.0389314 9.77213C0.0352593 9.78238 0.0318413 9.79274 0.0286775 9.80318C0.0255134 9.81363 0.0226072 9.82414 0.0199589 9.83471C0.0173106 9.84529 0.0149232 9.85594 0.0127968 9.86662C0.0106704 9.87733 0.0088076 9.88807 0.00720831 9.89885C0.00560905 9.90965 0.00427525 9.92047 0.00320691 9.93131C0.00213859 9.94217 0.00133701 9.95305 0.000802209 9.96393C0.000267404 9.97482 0 9.98572 0 9.99664C-1.30967e-09 10.0075 0.000267402 10.0184 0.000802207 10.0293C0.00133701 10.0402 0.00213859 10.0511 0.00320691 10.062C0.00427523 10.0728 0.00560903 10.0836 0.00720831 10.0944C0.00880758 10.1052 0.0106704 10.116 0.0127968 10.1266C0.0149232 10.1373 0.0173105 10.148 0.0199589 10.1586C0.0226072 10.1691 0.0255134 10.1796 0.0286775 10.1901C0.0318413 10.2005 0.0352593 10.2109 0.0389314 10.2212C0.0426034 10.2314 0.0465249 10.2416 0.050696 10.2517C0.0548671 10.2617 0.0592827 10.2717 0.063943 10.2816C0.0686034 10.2914 0.0735026 10.3012 0.0786409 10.3108C0.0837789 10.3204 0.08915 10.3299 0.0947537 10.3393C0.100357 10.3486 0.106187 10.3578 0.112243 10.3669C0.118299 10.376 0.124573 10.3849 0.131067 10.3937C0.13756 10.4024 0.144264 10.411 0.151179 10.4194C0.158094 10.4279 0.165212 10.4361 0.172533 10.4442C0.179853 10.4523 0.187367 10.4602 0.195075 10.4679C0.202783 10.4756 0.210675 10.4832 0.218753 10.4905C0.22683 10.4978 0.235082 10.5049 0.243509 10.5119C0.251935 10.5188 0.260527 10.5255 0.269285 10.532C0.278039 10.5385 0.286949 10.5448 0.296015 10.5508C0.305077 10.5569 0.314287 10.5628 0.323638 10.5684C0.332988 10.574 0.34247 10.5794 0.352087 10.5845C0.3617 10.5896 0.371437 10.5946 0.381292 10.5992C0.391148 10.6039 0.401111 10.6083 0.411185 10.6125C0.421257 10.6167 0.431427 10.6206 0.441694 10.6243C0.45196 10.628 0.46231 10.6314 0.472743 10.6346C0.483177 10.6378 0.493683 10.6407 0.504261 10.6433C0.514837 10.646 0.525472 10.6484 0.536167 10.6505C0.546862 10.6527 0.557602 10.6545 0.568389 10.6562C0.579175 10.6578 0.589995 10.6591 0.600848 10.6602C0.6117 10.6613 0.622573 10.6621 0.633467 10.6626C0.644358 10.6632 0.655258 10.6634 0.666165 10.6635L1.99755 10.6635C2.00845 10.6635 2.01937 10.6632 2.03027 10.6626C2.04117 10.6621 2.05205 10.6613 2.06291 10.6602C2.07377 10.6592 2.08461 10.6578 2.09541 10.6562C2.10619 10.6546 2.11695 10.6528 2.12765 10.6506C2.13836 10.6485 2.149 10.6461 2.15959 10.6435C2.17017 10.6408 2.18068 10.6379 2.19113 10.6347C2.20156 10.6316 2.21193 10.6281 2.2222 10.6245C2.23248 10.6208 2.24265 10.6169 2.25273 10.6127C2.26281 10.6085 2.27279 10.6041 2.28265 10.5994C2.29252 10.5948 2.30226 10.5898 2.31189 10.5847C2.3215 10.5796 2.33099 10.5742 2.34037 10.5686C2.34972 10.563 2.35894 10.5571 2.36802 10.5511C2.37709 10.545 2.38601 10.5387 2.39478 10.5322C2.40353 10.5257 2.41214 10.519 2.42058 10.5121C2.42902 10.5052 2.43728 10.498 2.44537 10.4907C2.45345 10.4834 2.46134 10.4759 2.46906 10.4681C2.47677 10.4604 2.48429 10.4525 2.49164 10.4444C2.49896 10.4363 2.50609 10.4281 2.513 10.4196C2.51992 10.4112 2.52664 10.4026 2.53314 10.3938C2.53964 10.3851 2.54593 10.3762 2.55199 10.3671C2.55804 10.358 2.56388 10.3488 2.56951 10.3395C2.57511 10.3301 2.58048 10.3206 2.58564 10.311C2.59078 10.3013 2.59568 10.2916 2.60035 10.2817C2.60499 10.2719 2.60943 10.2619 2.61361 10.2518C2.61779 10.2417 2.62171 10.2315 2.62539 10.2213C2.62906 10.211 2.63249 10.2006 2.63566 10.1902C2.63882 10.1797 2.64173 10.1692 2.64439 10.1587C2.64705 10.1481 2.64943 10.1374 2.65156 10.1267C2.65369 10.116 2.65556 10.1053 2.65716 10.0945C2.65874 10.0837 2.66007 10.0729 2.66117 10.062C2.66222 10.0511 2.66302 10.0403 2.66357 10.0294C2.6641 10.0185 2.66437 10.0076 2.66437 9.99664L2.6655 9.99664ZM19.9961 9.99664C19.9961 9.98572 19.9957 9.9748 19.9953 9.96391C19.9947 9.95301 19.9939 9.94213 19.9927 9.93127C19.9916 9.92041 19.9904 9.90959 19.9888 9.89879C19.9873 9.88799 19.9853 9.87725 19.9832 9.86654C19.981 9.85584 19.9787 9.8452 19.9759 9.83461C19.9732 9.82402 19.9705 9.81352 19.9673 9.80307C19.964 9.79262 19.9605 9.78227 19.957 9.77199C19.9533 9.76172 19.9494 9.75154 19.9453 9.74145C19.941 9.73137 19.9367 9.72139 19.932 9.71152C19.9273 9.70166 19.9224 9.69193 19.9173 9.68231C19.9121 9.67268 19.9066 9.66318 19.9011 9.65383C19.8955 9.64447 19.8896 9.63525 19.8836 9.62617C19.8775 9.61709 19.8713 9.60818 19.8648 9.59941C19.8582 9.59064 19.8515 9.58205 19.8447 9.57361C19.8377 9.56518 19.8306 9.55691 19.8232 9.54883C19.8158 9.54074 19.8084 9.53283 19.8007 9.52512C19.7929 9.5174 19.7851 9.50988 19.7769 9.50256C19.7687 9.49523 19.7605 9.48811 19.7523 9.48117C19.7437 9.47426 19.7351 9.46754 19.7263 9.46104C19.7175 9.45453 19.7086 9.44826 19.6996 9.44219C19.6906 9.43613 19.6814 9.43029 19.672 9.42469C19.6627 9.41908 19.6531 9.41369 19.6435 9.40856C19.6337 9.40342 19.624 9.3985 19.6142 9.39383C19.6045 9.38916 19.5945 9.38475 19.5843 9.38057C19.5742 9.37641 19.564 9.37248 19.5539 9.36879C19.5435 9.36512 19.5332 9.3617 19.5227 9.35854C19.5122 9.35535 19.5017 9.35244 19.4912 9.3498C19.4806 9.34715 19.4699 9.34477 19.4592 9.34264C19.4485 9.34051 19.4378 9.33863 19.427 9.33703C19.4162 9.33543 19.4054 9.3341 19.3945 9.33303C19.3836 9.33195 19.3728 9.33115 19.3619 9.33063C19.351 9.3301 19.34 9.32982 19.3291 9.32982L17.9944 9.32982C17.9835 9.32982 17.9726 9.3301 17.9617 9.33064C17.9508 9.33119 17.9399 9.33201 17.9291 9.33309C17.9182 9.33416 17.9074 9.33551 17.8966 9.33713C17.8858 9.33873 17.8751 9.34061 17.8644 9.34273C17.8537 9.34486 17.8431 9.34727 17.8325 9.34994C17.8219 9.3526 17.8114 9.35551 17.801 9.35869C17.7905 9.36186 17.7802 9.36527 17.7699 9.36897C17.7596 9.37266 17.7495 9.37658 17.7394 9.38076C17.7293 9.38494 17.7194 9.38938 17.7095 9.39404C17.6997 9.39871 17.6899 9.40361 17.6803 9.40877C17.6707 9.41391 17.6612 9.4193 17.6519 9.4249C17.6425 9.43051 17.6333 9.43635 17.6242 9.44242C17.6152 9.4485 17.6063 9.45477 17.5975 9.46127C17.5887 9.46777 17.5801 9.47447 17.5717 9.48141C17.5633 9.48834 17.555 9.49547 17.547 9.50279C17.5389 9.51012 17.531 9.51764 17.5233 9.52535C17.5156 9.53307 17.508 9.54098 17.5007 9.54904C17.4934 9.55713 17.4863 9.56539 17.4794 9.57383C17.4725 9.58227 17.4658 9.59086 17.4593 9.59963C17.4528 9.6084 17.4465 9.6173 17.4405 9.62637C17.4344 9.63545 17.4286 9.64467 17.423 9.65402C17.4174 9.66338 17.412 9.67285 17.4069 9.68248C17.4017 9.69211 17.3968 9.70184 17.3922 9.7117C17.3875 9.72156 17.3831 9.73152 17.3789 9.7416C17.3747 9.75168 17.3708 9.76186 17.3672 9.77213C17.3635 9.78238 17.3601 9.79274 17.3569 9.80318C17.3537 9.81363 17.3508 9.82414 17.3482 9.83471C17.3455 9.84529 17.3431 9.85594 17.341 9.86662C17.3389 9.87733 17.337 9.88807 17.3354 9.89885C17.3338 9.90965 17.3325 9.92047 17.3314 9.93131C17.3304 9.94217 17.3296 9.95305 17.329 9.96393C17.3285 9.97482 17.3282 9.98572 17.3282 9.99664C17.3282 10.0075 17.3285 10.0184 17.329 10.0293C17.3296 10.0402 17.3304 10.0511 17.3314 10.062C17.3325 10.0728 17.3338 10.0836 17.3354 10.0944C17.337 10.1052 17.3389 10.116 17.341 10.1266C17.3431 10.1373 17.3455 10.148 17.3482 10.1586C17.3508 10.1691 17.3537 10.1796 17.3569 10.1901C17.3601 10.2005 17.3635 10.2109 17.3672 10.2212C17.3708 10.2314 17.3747 10.2416 17.3789 10.2517C17.3831 10.2617 17.3875 10.2717 17.3922 10.2816C17.3968 10.2914 17.4017 10.3012 17.4069 10.3108C17.412 10.3204 17.4174 10.3299 17.423 10.3393C17.4286 10.3486 17.4344 10.3578 17.4405 10.3669C17.4465 10.376 17.4528 10.3849 17.4593 10.3937C17.4658 10.4024 17.4725 10.411 17.4794 10.4194C17.4863 10.4279 17.4934 10.4361 17.5007 10.4442C17.508 10.4523 17.5156 10.4602 17.5233 10.4679C17.531 10.4756 17.5389 10.4832 17.547 10.4905C17.555 10.4978 17.5633 10.5049 17.5717 10.5119C17.5801 10.5188 17.5887 10.5255 17.5975 10.532C17.6063 10.5385 17.6152 10.5448 17.6242 10.5508C17.6333 10.5569 17.6425 10.5628 17.6519 10.5684C17.6612 10.574 17.6707 10.5794 17.6803 10.5845C17.6899 10.5896 17.6997 10.5946 17.7095 10.5992C17.7194 10.6039 17.7293 10.6083 17.7394 10.6125C17.7495 10.6167 17.7596 10.6206 17.7699 10.6243C17.7802 10.628 17.7905 10.6314 17.801 10.6346C17.8114 10.6378 17.8219 10.6407 17.8325 10.6433C17.8431 10.646 17.8537 10.6484 17.8644 10.6505C17.8751 10.6527 17.8858 10.6545 17.8966 10.6562C17.9074 10.6578 17.9182 10.6591 17.9291 10.6602C17.9399 10.6613 17.9508 10.6621 17.9617 10.6626C17.9726 10.6632 17.9835 10.6634 17.9944 10.6635L19.328 10.6635C19.3389 10.6634 19.3498 10.6631 19.3607 10.6626C19.3716 10.662 19.3824 10.6612 19.3933 10.6601C19.4041 10.6591 19.415 10.6577 19.4257 10.6561C19.4365 10.6545 19.4472 10.6526 19.4579 10.6504C19.4686 10.6483 19.4792 10.6459 19.4898 10.6432C19.5004 10.6406 19.5109 10.6377 19.5213 10.6345C19.5318 10.6313 19.5421 10.6279 19.5525 10.6242C19.5627 10.6205 19.5728 10.6166 19.583 10.6124C19.5929 10.6082 19.6029 10.6038 19.6129 10.5991C19.6226 10.5944 19.6322 10.5895 19.642 10.5844C19.6515 10.5792 19.6611 10.5738 19.6705 10.5682C19.6796 10.5626 19.6888 10.5568 19.698 10.5507C19.707 10.5446 19.7158 10.5383 19.7248 10.5318C19.7334 10.5253 19.742 10.5186 19.7505 10.5117C19.7587 10.5048 19.767 10.4976 19.7752 10.4903C19.7832 10.483 19.791 10.4755 19.7988 10.4678C19.8064 10.46 19.814 10.4521 19.8214 10.444C19.8287 10.436 19.8357 10.4277 19.8427 10.4193C19.8496 10.4108 19.8562 10.4022 19.8629 10.3935C19.8693 10.3847 19.8755 10.3758 19.8816 10.3667C19.8877 10.3577 19.8935 10.3485 19.8992 10.3391C19.9046 10.3298 19.9101 10.3203 19.9152 10.3107C19.9203 10.301 19.9252 10.2913 19.9298 10.2814C19.9345 10.2716 19.9388 10.2616 19.9431 10.2515C19.9472 10.2415 19.9511 10.2313 19.9548 10.2211C19.9584 10.2108 19.9619 10.2004 19.9652 10.19C19.9683 10.1796 19.9711 10.1691 19.9738 10.1585C19.9763 10.1479 19.9787 10.1373 19.981 10.1266C19.983 10.1159 19.9849 10.1052 19.9865 10.0944C19.988 10.0836 19.9894 10.0728 19.9906 10.0619C19.9916 10.0511 19.9923 10.0402 19.9929 10.0293C19.9933 10.0184 19.9937 10.0075 19.9937 9.99664L19.9961 9.99664ZM4.81187 16.1248C4.81944 16.1171 4.82685 16.1092 4.83407 16.1011C4.84126 16.0929 4.84827 16.0847 4.85507 16.0762C4.86187 16.0678 4.86845 16.0592 4.87483 16.0504C4.8812 16.0416 4.88737 16.0327 4.89331 16.0237C4.89925 16.0146 4.90497 16.0054 4.91048 15.996C4.91597 15.9867 4.92124 15.9772 4.92628 15.9676C4.9313 15.958 4.93608 15.9483 4.94065 15.9384C4.9452 15.9286 4.94952 15.9187 4.9536 15.9086C4.95767 15.8986 4.96149 15.8884 4.96509 15.8782C4.96866 15.8679 4.97198 15.8576 4.97507 15.8472C4.97813 15.8368 4.98095 15.8264 4.98353 15.8158C4.98608 15.8053 4.98839 15.7947 4.99046 15.7841C4.99249 15.7734 4.99429 15.7627 4.99581 15.752C4.99733 15.7413 4.99858 15.7305 4.9996 15.7197C5.0006 15.7089 5.00134 15.6981 5.00183 15.6872C5.00229 15.6764 5.00249 15.6656 5.00245 15.6547C5.00239 15.6439 5.00208 15.6331 5.00149 15.6222C5.00091 15.6114 5.00005 15.6006 4.99895 15.5898C4.99784 15.579 4.99647 15.5683 4.99483 15.5576C4.99319 15.5468 4.9913 15.5362 4.98915 15.5255C4.98698 15.5149 4.98456 15.5043 4.9819 15.4938C4.97923 15.4833 4.9763 15.4729 4.97313 15.4625C4.96995 15.4521 4.96651 15.4419 4.96284 15.4317C4.95915 15.4215 4.95522 15.4114 4.95106 15.4014C4.94688 15.3913 4.94245 15.3814 4.9378 15.3717C4.93315 15.3619 4.92825 15.3522 4.92313 15.3427C4.918 15.3331 4.91263 15.3237 4.90704 15.3144C4.90145 15.3051 4.89563 15.2959 4.88962 15.2869C4.88356 15.2779 4.87731 15.2691 4.87087 15.2604C4.86438 15.2517 4.85771 15.2431 4.85083 15.2347C4.84394 15.2264 4.83685 15.2182 4.82958 15.2101C4.8223 15.2021 4.81481 15.1943 4.80716 15.1866C4.79948 15.1789 4.79163 15.1714 4.7836 15.1642C4.77556 15.1569 4.76735 15.1498 4.75899 15.1429C4.7506 15.136 4.74206 15.1293 4.73337 15.1229C4.72466 15.1164 4.71581 15.1102 4.70681 15.1041C4.69778 15.0981 4.68864 15.0923 4.67935 15.0867C4.67005 15.0811 4.66063 15.0757 4.65108 15.0706C4.64151 15.0655 4.63185 15.0606 4.62206 15.0559C4.61226 15.0513 4.60237 15.0469 4.59237 15.0427C4.58235 15.0385 4.57226 15.0346 4.56206 15.0309C4.55187 15.0272 4.54157 15.0238 4.53122 15.0206C4.52085 15.0174 4.51042 15.0145 4.49991 15.0118C4.48939 15.0091 4.47882 15.0067 4.46819 15.0046C4.45757 15.0024 4.44689 15.0005 4.43618 14.9989C4.42546 14.9973 4.4147 14.9959 4.40392 14.9948C4.39314 14.9937 4.38232 14.9928 4.37149 14.9922C4.36067 14.9917 4.34984 14.9913 4.339 14.9913C4.32814 14.9912 4.31732 14.9914 4.3065 14.9919C4.29566 14.9924 4.28484 14.9931 4.27403 14.9941C4.26323 14.9951 4.25247 14.9964 4.24175 14.9979C4.23101 14.9995 4.2203 15.0012 4.20968 15.0033C4.19901 15.0053 4.18843 15.0076 4.1779 15.0102C4.16735 15.0128 4.15689 15.0156 4.1465 15.0187C4.1361 15.0217 4.12579 15.0251 4.11556 15.0287C4.1053 15.0322 4.09517 15.0361 4.08513 15.0401C4.07507 15.0442 4.06513 15.0485 4.05528 15.0531C4.04544 15.0576 4.03573 15.0624 4.02612 15.0675C4.01652 15.0725 4.00704 15.0778 3.99771 15.0833C3.98835 15.0888 3.97913 15.0945 3.97007 15.1004C3.96101 15.1064 3.95208 15.1125 3.94333 15.1189C3.93454 15.1253 3.92595 15.1319 3.91751 15.1387C3.90905 15.1455 3.90077 15.1525 3.89267 15.1597C3.88456 15.1669 3.87663 15.1743 3.8689 15.1819L2.92593 16.1248C2.91808 16.1325 2.91044 16.1404 2.90298 16.1485C2.89552 16.1565 2.88826 16.1648 2.88122 16.1732C2.87417 16.1816 2.86734 16.1902 2.86072 16.199C2.8541 16.2077 2.84769 16.2166 2.84152 16.2257C2.83533 16.2348 2.82937 16.244 2.82365 16.2534C2.8179 16.2628 2.81242 16.2723 2.80718 16.2819C2.80191 16.2916 2.79689 16.3013 2.79212 16.3112C2.78734 16.3211 2.78281 16.3311 2.77855 16.3413C2.77425 16.3513 2.77023 16.3616 2.76646 16.3719C2.76267 16.3822 2.75915 16.3926 2.75591 16.4031C2.75263 16.4136 2.74964 16.4241 2.74691 16.4348C2.74415 16.4454 2.74167 16.4561 2.73949 16.4669C2.73726 16.4776 2.73533 16.4884 2.73365 16.4993C2.73197 16.5101 2.73056 16.521 2.72943 16.532C2.72828 16.5429 2.72742 16.5538 2.72683 16.5648C2.72622 16.5758 2.72589 16.5867 2.72583 16.5977C2.72578 16.6087 2.72599 16.6197 2.72648 16.6306C2.72697 16.6416 2.72773 16.6526 2.72876 16.6635C2.72978 16.6745 2.73109 16.6854 2.73265 16.6962C2.73421 16.7071 2.73605 16.7179 2.73816 16.7287C2.74025 16.7395 2.74261 16.7502 2.74525 16.7609C2.74789 16.7715 2.75078 16.7821 2.75394 16.7926C2.75708 16.8032 2.7605 16.8136 2.76417 16.8239C2.76785 16.8343 2.77177 16.8446 2.77595 16.8547C2.78013 16.8649 2.78455 16.8749 2.78923 16.8849C2.7939 16.8948 2.79882 16.9046 2.80398 16.9143C2.80913 16.924 2.81453 16.9336 2.82015 16.943C2.82578 16.9524 2.83165 16.9617 2.83775 16.9709C2.84382 16.98 2.85013 16.989 2.85667 16.9978C2.8632 17.0066 2.86996 17.0153 2.87693 17.0238C2.88388 17.0323 2.89105 17.0406 2.89843 17.0487C2.90579 17.0569 2.91337 17.0648 2.92115 17.0726C2.9289 17.0804 2.93685 17.0879 2.94499 17.0953C2.95312 17.1027 2.96144 17.1098 2.96995 17.1168C2.97843 17.1238 2.9871 17.1305 2.99593 17.1371C3.00476 17.1436 3.01374 17.1499 3.02288 17.156C3.03203 17.1621 3.0413 17.1679 3.05074 17.1736C3.06015 17.1792 3.06972 17.1846 3.07943 17.1898C3.08911 17.1949 3.09894 17.1998 3.10888 17.2045C3.1188 17.2092 3.12886 17.2136 3.13904 17.2178C3.14919 17.222 3.15945 17.2259 3.1698 17.2296C3.18015 17.2332 3.19058 17.2367 3.20111 17.2398C3.21161 17.243 3.22222 17.2458 3.23288 17.2485C3.24353 17.2511 3.25425 17.2535 3.26503 17.2556C3.27581 17.2577 3.28663 17.2595 3.29751 17.2611C3.30837 17.2627 3.31929 17.2639 3.33023 17.265C3.34117 17.266 3.3521 17.2668 3.36308 17.2672C3.37406 17.2677 3.38503 17.268 3.39603 17.2679C3.407 17.2678 3.41796 17.2675 3.42894 17.2669C3.43991 17.2663 3.45085 17.2654 3.46179 17.2643C3.47271 17.2632 3.48359 17.2618 3.49445 17.2601C3.50531 17.2584 3.51611 17.2565 3.52687 17.2543C3.53761 17.2521 3.54831 17.2496 3.55896 17.2468C3.56958 17.2441 3.58015 17.2411 3.59066 17.2378C3.60113 17.2346 3.61154 17.2311 3.62185 17.2273C3.63216 17.2235 3.64238 17.2195 3.65249 17.2152C3.66261 17.2109 3.67261 17.2064 3.68251 17.2016C3.69239 17.1968 3.70216 17.1918 3.71181 17.1866C3.72144 17.1813 3.73095 17.1758 3.74032 17.1701C3.7497 17.1644 3.75892 17.1584 3.768 17.1522C3.77706 17.146 3.78599 17.1396 3.79476 17.133C3.80351 17.1264 3.8121 17.1196 3.82054 17.1125C3.82896 17.1055 3.8372 17.0982 3.84527 17.0908C3.85333 17.0833 3.8612 17.0756 3.8689 17.0678L4.81187 16.1248ZM17.066 16.1248L16.123 15.1819C16.1153 15.174 16.1074 15.1664 16.0994 15.1589C16.0913 15.1515 16.0831 15.1442 16.0747 15.1372C16.0662 15.1301 16.0576 15.1233 16.0489 15.1167C16.0401 15.11 16.0312 15.1036 16.0221 15.0975C16.0131 15.0913 16.0038 15.0853 15.9945 15.0796C15.9851 15.0739 15.9756 15.0684 15.9659 15.0631C15.9563 15.0579 15.9465 15.0529 15.9366 15.0481C15.9267 15.0433 15.9167 15.0388 15.9066 15.0345C15.8965 15.0302 15.8863 15.0262 15.876 15.0224C15.8657 15.0187 15.8553 15.0151 15.8448 15.0119C15.8343 15.0086 15.8237 15.0056 15.8131 15.0029C15.8024 15.0001 15.7917 14.9977 15.781 14.9955C15.7702 14.9932 15.7594 14.9913 15.7486 14.9896C15.7377 14.9879 15.7268 14.9865 15.7159 14.9854C15.705 14.9843 15.6941 14.9834 15.6831 14.9828C15.6721 14.9822 15.6611 14.9819 15.6502 14.9818C15.6392 14.9818 15.6282 14.982 15.6172 14.9825C15.6063 14.983 15.5953 14.9837 15.5844 14.9847C15.5734 14.9858 15.5625 14.9871 15.5517 14.9886C15.5408 14.9902 15.53 14.992 15.5192 14.9941C15.5084 14.9962 15.4977 14.9986 15.487 15.0012C15.4764 15.0039 15.4658 15.0068 15.4553 15.0099C15.4447 15.0131 15.4343 15.0165 15.424 15.0202C15.4136 15.0238 15.4033 15.0278 15.3932 15.0319C15.383 15.0361 15.373 15.0405 15.363 15.0452C15.3531 15.0499 15.3433 15.0548 15.3336 15.06C15.3239 15.0651 15.3143 15.0705 15.3049 15.0761C15.2955 15.0818 15.2862 15.0876 15.2771 15.0937C15.2679 15.0998 15.2589 15.1061 15.2501 15.1127C15.2413 15.1192 15.2326 15.1259 15.2241 15.1329C15.2156 15.1399 15.2073 15.147 15.1992 15.1544C15.191 15.1618 15.1831 15.1694 15.1753 15.1771C15.1675 15.1849 15.16 15.1928 15.1526 15.201C15.1452 15.2091 15.1381 15.2174 15.1311 15.2259C15.1241 15.2344 15.1174 15.2431 15.1109 15.2519C15.1043 15.2607 15.098 15.2697 15.0919 15.2788C15.0858 15.288 15.08 15.2973 15.0743 15.3067C15.0687 15.3161 15.0633 15.3257 15.0582 15.3354C15.053 15.3451 15.0481 15.3549 15.0434 15.3648C15.0387 15.3748 15.0343 15.3848 15.0301 15.395C15.0259 15.4051 15.022 15.4154 15.0183 15.4257C15.0147 15.4361 15.0113 15.4465 15.0081 15.4571C15.005 15.4676 15.0021 15.4782 14.9994 15.4888C14.9968 15.4995 14.9944 15.5102 14.9923 15.521C14.9902 15.5318 14.9884 15.5426 14.9868 15.5535C14.9853 15.5643 14.984 15.5752 14.9829 15.5862C14.9819 15.5971 14.9811 15.6081 14.9807 15.619C14.9802 15.63 14.9799 15.641 14.98 15.652C14.9801 15.6629 14.9804 15.6739 14.981 15.6849C14.9816 15.6958 14.9825 15.7068 14.9836 15.7177C14.9847 15.7286 14.9861 15.7395 14.9878 15.7504C14.9895 15.7612 14.9914 15.772 14.9936 15.7828C14.9958 15.7936 14.9983 15.8043 15.0011 15.8149C15.0038 15.8255 15.0068 15.8361 15.0101 15.8466C15.0133 15.8571 15.0168 15.8675 15.0206 15.8778C15.0244 15.8881 15.0284 15.8983 15.0327 15.9084C15.037 15.9185 15.0415 15.9285 15.0463 15.9384C15.051 15.9483 15.0561 15.9581 15.0613 15.9677C15.0666 15.9774 15.0721 15.9869 15.0778 15.9963C15.0835 16.0056 15.0895 16.0148 15.0957 16.0239C15.1018 16.033 15.1082 16.0419 15.1149 16.0507C15.1215 16.0595 15.1283 16.068 15.1354 16.0765C15.1424 16.0849 15.1497 16.0931 15.1571 16.1012C15.1646 16.1093 15.1722 16.1171 15.1801 16.1248L16.123 17.0678C16.1308 17.0754 16.1387 17.0828 16.1468 17.09C16.1549 17.0972 16.1632 17.1042 16.1716 17.111C16.1801 17.1178 16.1887 17.1244 16.1974 17.1308C16.2062 17.1371 16.2151 17.1433 16.2242 17.1492C16.2333 17.1552 16.2425 17.1609 16.2518 17.1664C16.2612 17.1719 16.2707 17.1771 16.2803 17.1822C16.2899 17.1872 16.2996 17.192 16.3094 17.1966C16.3193 17.2011 16.3292 17.2054 16.3392 17.2095C16.3493 17.2136 16.3594 17.2174 16.3697 17.221C16.3799 17.2246 16.3902 17.2279 16.4006 17.231C16.411 17.234 16.4215 17.2369 16.432 17.2394C16.4425 17.242 16.4531 17.2443 16.4638 17.2463C16.4744 17.2484 16.4851 17.2502 16.4959 17.2517C16.5066 17.2532 16.5173 17.2545 16.5282 17.2555C16.5389 17.2565 16.5498 17.2572 16.5606 17.2577C16.5714 17.2582 16.5823 17.2584 16.5931 17.2583C16.604 17.2583 16.6148 17.258 16.6256 17.2574C16.6364 17.2568 16.6473 17.256 16.658 17.2548C16.6688 17.2537 16.6796 17.2523 16.6903 17.2507C16.701 17.2491 16.7117 17.2472 16.7223 17.245C16.7329 17.2429 16.7435 17.2405 16.754 17.2378C16.7645 17.2351 16.7749 17.2322 16.7853 17.229C16.7957 17.2258 16.806 17.2224 16.8162 17.2187C16.8264 17.215 16.8365 17.2111 16.8465 17.2069C16.8565 17.2028 16.8664 17.1984 16.8762 17.1937C16.8859 17.189 16.8956 17.1841 16.9052 17.179C16.9147 17.1739 16.9241 17.1685 16.9334 17.1629C16.9427 17.1573 16.9519 17.1515 16.9609 17.1455C16.9699 17.1395 16.9788 17.1332 16.9875 17.1267C16.9962 17.1203 17.0047 17.1136 17.0131 17.1067C17.0215 17.0998 17.0297 17.0928 17.0377 17.0855C17.0457 17.0782 17.0536 17.0707 17.0612 17.063C17.0689 17.0554 17.0764 17.0475 17.0837 17.0395C17.0909 17.0315 17.098 17.0233 17.1049 17.0149C17.1118 17.0065 17.1185 16.998 17.1249 16.9893C17.1314 16.9806 17.1376 16.9717 17.1437 16.9627C17.1497 16.9537 17.1555 16.9445 17.1611 16.9353C17.1667 16.926 17.1721 16.9165 17.1772 16.907C17.1823 16.8974 17.1872 16.8878 17.1919 16.878C17.1965 16.8682 17.201 16.8583 17.2051 16.8483C17.2093 16.8383 17.2132 16.8282 17.2169 16.818C17.2206 16.8078 17.224 16.7975 17.2272 16.7871C17.2304 16.7768 17.2333 16.7663 17.236 16.7558C17.2387 16.7453 17.2411 16.7347 17.2432 16.7241C17.2454 16.7135 17.2473 16.7028 17.2489 16.6921C17.2506 16.6814 17.2519 16.6706 17.253 16.6598C17.2541 16.649 17.255 16.6382 17.2556 16.6274C17.2562 16.6166 17.2565 16.6058 17.2565 16.5949C17.2566 16.5841 17.2564 16.5732 17.2559 16.5624C17.2554 16.5516 17.2547 16.5408 17.2537 16.53C17.2527 16.5192 17.2514 16.5084 17.2499 16.4977C17.2484 16.4869 17.2466 16.4762 17.2445 16.4656C17.2425 16.4549 17.2402 16.4444 17.2376 16.4338C17.235 16.4233 17.2322 16.4128 17.2292 16.4024C17.2261 16.392 17.2228 16.3817 17.2192 16.3715C17.2156 16.3612 17.2118 16.3511 17.2077 16.3411C17.2036 16.331 17.1993 16.3211 17.1948 16.3112C17.1902 16.3014 17.1854 16.2917 17.1804 16.2821C17.1753 16.2725 17.1701 16.263 17.1646 16.2536C17.1591 16.2443 17.1534 16.2351 17.1474 16.226C17.1415 16.2169 17.1353 16.208 17.129 16.1993C17.1226 16.1905 17.116 16.1819 17.1092 16.1734C17.1024 16.165 17.0954 16.1567 17.0882 16.1486C17.081 16.1405 17.0736 16.1326 17.066 16.1248ZM9.99598 17.3294C10.3642 17.3294 10.6628 17.628 10.6628 17.9962L10.6628 19.3298C10.6628 19.3407 10.6625 19.3516 10.662 19.3625C10.6614 19.3734 10.6606 19.3843 10.6595 19.3951C10.6584 19.406 10.6571 19.4168 10.6555 19.4276C10.6539 19.4384 10.652 19.4491 10.6499 19.4598C10.6477 19.4705 10.6453 19.4812 10.6427 19.4917C10.64 19.5023 10.6371 19.5128 10.6339 19.5232C10.6307 19.5336 10.6273 19.5439 10.6236 19.5543C10.6199 19.5646 10.616 19.5748 10.6118 19.5848C10.6077 19.5949 10.6032 19.6049 10.5986 19.6146C10.5939 19.6246 10.589 19.6344 10.5838 19.6439C10.5787 19.6535 10.5733 19.6631 10.5677 19.6723C10.5621 19.6816 10.5562 19.6908 10.5502 19.7C10.5441 19.709 10.5378 19.718 10.5313 19.7268C10.5248 19.7355 10.5181 19.7441 10.5112 19.7525C10.5043 19.7609 10.4971 19.7691 10.4898 19.7771C10.4825 19.7852 10.475 19.7932 10.4672 19.801C10.4595 19.8086 10.4516 19.8162 10.4436 19.8234C10.4355 19.8307 10.4272 19.8379 10.4188 19.8447C10.4103 19.8516 10.4017 19.8584 10.393 19.8648C10.3842 19.8713 10.3753 19.8777 10.3662 19.8838C10.3571 19.8898 10.3479 19.8955 10.3386 19.9012C10.3292 19.9068 10.3197 19.9121 10.3101 19.9174C10.3005 19.9225 10.2908 19.9273 10.2809 19.932C10.271 19.9367 10.2611 19.9412 10.251 19.9453C10.2409 19.9494 10.2307 19.9533 10.2205 19.957C10.2102 19.9607 10.1998 19.9641 10.1894 19.9674C10.179 19.9705 10.1685 19.9734 10.1579 19.976C10.1473 19.9787 10.1367 19.9811 10.126 19.9832C10.1153 19.9854 10.1045 19.9871 10.0938 19.9889C10.083 19.9904 10.0721 19.9918 10.0613 19.9928C10.0504 19.9938 10.0396 19.9945 10.0287 19.9951C10.0178 19.9957 10.0069 19.9959 9.99598 19.9959C9.98506 19.9959 9.97416 19.9957 9.96326 19.9951C9.95236 19.9945 9.9415 19.9938 9.93064 19.9928C9.91978 19.9918 9.90896 19.9904 9.89818 19.9889C9.8874 19.9871 9.87666 19.9854 9.86596 19.9832C9.85525 19.9811 9.84463 19.9787 9.83404 19.976C9.82346 19.9734 9.81295 19.9705 9.80252 19.9674C9.79207 19.9641 9.78172 19.9607 9.77146 19.957C9.76119 19.9533 9.75102 19.9494 9.74094 19.9453C9.73086 19.9412 9.72088 19.9367 9.71103 19.932C9.70117 19.9273 9.69143 19.9225 9.68182 19.9174C9.67219 19.9121 9.66269 19.9068 9.65336 19.9012C9.64398 19.8955 9.63477 19.8898 9.6257 19.8838C9.61664 19.8777 9.60772 19.8713 9.59897 19.8648C9.5902 19.8584 9.5816 19.8516 9.57316 19.8447C9.56473 19.8379 9.55647 19.8307 9.5484 19.8234C9.54031 19.8162 9.5324 19.8086 9.52469 19.801C9.51697 19.7932 9.50945 19.7852 9.50213 19.7771C9.49479 19.7691 9.48766 19.7609 9.48074 19.7525C9.47381 19.7441 9.46709 19.7355 9.46061 19.7268C9.4541 19.718 9.44781 19.709 9.44176 19.7C9.43568 19.6908 9.42984 19.6816 9.42424 19.6723C9.41861 19.6631 9.41324 19.6535 9.40811 19.6439C9.40295 19.6344 9.39803 19.6246 9.39338 19.6146C9.38869 19.6049 9.38428 19.5949 9.3801 19.5848C9.37592 19.5748 9.37197 19.5646 9.3683 19.5543C9.36461 19.5439 9.36119 19.5336 9.35803 19.5232C9.35484 19.5128 9.35193 19.5023 9.34928 19.4917C9.3466 19.4812 9.3442 19.4705 9.34207 19.4598C9.33992 19.4491 9.33807 19.4384 9.33647 19.4276C9.33484 19.4168 9.3335 19.406 9.33242 19.3951C9.33133 19.3843 9.33053 19.3734 9.32998 19.3625C9.32943 19.3516 9.32916 19.3407 9.32916 19.3298L9.32916 17.9951C9.32916 17.6269 9.62775 17.3294 9.99598 17.3294Z"   fill="#5C8EF2" >
</path>
</svg>
