<svg xmlns="http://www.w3.org/2000/svg" xmlns:xlink="http://www.w3.org/1999/xlink" width="20" height="20" viewBox="0 0 20 20" fill="none">
<path d="M0 0L20 0L20 20L0 20L0 0Z"   fill="#D8D8D8" fill-opacity="0">
</path>
<path d="M1.25 3.125L18.75 3.125L18.75 14.2188L1.25 14.2188L1.25 3.125Z"   fill="#5C8EF2" >
</path>
<path d="M5 15.3125L15 15.3125L15 16.875L5 16.875L5 15.3125Z"   fill="#A2BEF8" >
</path>
<path d="M8.43751 7.34375C8.4503 7.34375 8.46308 7.34406 8.47585 7.34469C8.4886 7.34531 8.50136 7.34626 8.51409 7.34752C8.52681 7.34877 8.5395 7.35033 8.55214 7.35221C8.56477 7.35408 8.57737 7.35627 8.58993 7.35877C8.60247 7.36126 8.61493 7.36406 8.62733 7.36717C8.63974 7.37027 8.65206 7.37367 8.66429 7.37738C8.67653 7.38109 8.68866 7.3851 8.70071 7.38941C8.71274 7.39372 8.72466 7.39833 8.73647 7.40322C8.74829 7.40812 8.75997 7.41329 8.77153 7.41875C8.78309 7.42422 8.79452 7.42996 8.80579 7.436C8.81706 7.44203 8.82819 7.44832 8.83915 7.4549C8.85011 7.46148 8.86091 7.46832 8.87155 7.47541C8.88218 7.48252 8.89263 7.48988 8.9029 7.4975C8.91317 7.50512 8.92325 7.51299 8.93313 7.52109C8.94302 7.5292 8.95269 7.53756 8.96216 7.54613C8.97163 7.55471 8.98089 7.56354 8.98993 7.57258C8.99897 7.58162 9.0078 7.59088 9.01638 7.60035C9.02495 7.60982 9.03331 7.61949 9.04142 7.62937C9.04952 7.63926 9.05739 7.64934 9.06501 7.65961C9.07263 7.66988 9.07999 7.68033 9.0871 7.69096C9.09419 7.7016 9.10103 7.7124 9.10761 7.72336C9.11419 7.73432 9.12048 7.74545 9.12651 7.75672C9.13255 7.76799 9.13829 7.77941 9.14376 7.79098C9.14921 7.80252 9.15438 7.81422 9.15929 7.82604C9.16419 7.83785 9.16878 7.84977 9.1731 7.8618C9.17741 7.87385 9.18142 7.88598 9.18513 7.89822C9.18884 7.91045 9.19224 7.92277 9.19534 7.93518C9.19845 7.94758 9.20126 7.96004 9.20374 7.97258C9.20624 7.98512 9.20843 7.99771 9.2103 8.01037C9.21218 8.02301 9.21374 8.0357 9.21499 8.04842C9.21626 8.06115 9.2172 8.07391 9.21782 8.08666C9.21845 8.09943 9.21876 8.11221 9.21876 8.125L9.21876 12.1875C9.21876 12.2003 9.21845 12.2131 9.21782 12.2258C9.2172 12.2386 9.21626 12.2513 9.21499 12.2641C9.21374 12.2768 9.21218 12.2895 9.2103 12.3021C9.20843 12.3148 9.20624 12.3274 9.20374 12.3399C9.20126 12.3525 9.19845 12.3649 9.19534 12.3773C9.19224 12.3897 9.18884 12.4021 9.18513 12.4143C9.18142 12.4265 9.17741 12.4387 9.1731 12.4507C9.16878 12.4627 9.16419 12.4746 9.15929 12.4865C9.15438 12.4983 9.14921 12.51 9.14376 12.5215C9.13829 12.5331 9.13255 12.5445 9.12651 12.5558C9.12048 12.5671 9.11419 12.5782 9.10761 12.5891C9.10103 12.6001 9.09419 12.6109 9.0871 12.6215C9.07999 12.6322 9.07263 12.6426 9.06501 12.6529C9.05739 12.6632 9.04952 12.6732 9.04142 12.6831C9.03331 12.693 9.02495 12.7027 9.01638 12.7121C9.0078 12.7216 8.99897 12.7309 8.98993 12.7399C8.98089 12.749 8.97163 12.7578 8.96216 12.7664C8.95269 12.7749 8.94302 12.7833 8.93313 12.7914C8.92325 12.7995 8.91317 12.8074 8.9029 12.815C8.89263 12.8226 8.88218 12.83 8.87155 12.8371C8.86091 12.8442 8.85011 12.851 8.83915 12.8576C8.82819 12.8642 8.81706 12.8705 8.80579 12.8765C8.79452 12.8825 8.78309 12.8883 8.77153 12.8937C8.75997 12.8992 8.74829 12.9044 8.73647 12.9093C8.72466 12.9142 8.71274 12.9188 8.70071 12.9231C8.68866 12.9274 8.67653 12.9314 8.66429 12.9351C8.65206 12.9388 8.63974 12.9422 8.62733 12.9453C8.61493 12.9484 8.60247 12.9513 8.58993 12.9537C8.57739 12.9562 8.56479 12.9584 8.55214 12.9603C8.5395 12.9622 8.52681 12.9637 8.51409 12.965C8.50136 12.9662 8.4886 12.9672 8.47585 12.9678C8.46308 12.9684 8.4503 12.9688 8.43751 12.9688C8.42472 12.9688 8.41194 12.9684 8.39917 12.9678C8.38642 12.9672 8.37366 12.9662 8.36093 12.965C8.34821 12.9637 8.33552 12.9622 8.32288 12.9603C8.31022 12.9584 8.29762 12.9562 8.28509 12.9537C8.27255 12.9513 8.26009 12.9484 8.24768 12.9453C8.23528 12.9422 8.22296 12.9388 8.21073 12.9351C8.19848 12.9314 8.18636 12.9274 8.1743 12.9231C8.16227 12.9188 8.15036 12.9142 8.13854 12.9093C8.12673 12.9044 8.11503 12.8992 8.10348 12.8937C8.09192 12.8883 8.0805 12.8825 8.06923 12.8765C8.05796 12.8705 8.04682 12.8642 8.03587 12.8576C8.02491 12.851 8.01411 12.8442 8.00346 12.8371C7.99284 12.83 7.98239 12.8226 7.97212 12.815C7.96184 12.8074 7.95177 12.7995 7.94188 12.7914C7.932 12.7833 7.92233 12.7749 7.91286 12.7664C7.90339 12.7578 7.89413 12.749 7.88509 12.7399C7.87604 12.7309 7.86721 12.7216 7.85864 12.7121C7.85007 12.7027 7.84171 12.693 7.8336 12.6831C7.8255 12.6732 7.81762 12.6632 7.81001 12.6529C7.80239 12.6426 7.79503 12.6322 7.78792 12.6215C7.78083 12.6109 7.77399 12.6001 7.76741 12.5891C7.76083 12.5782 7.75454 12.5671 7.7485 12.5558C7.74247 12.5445 7.73673 12.5331 7.73126 12.5215C7.72581 12.51 7.72063 12.4983 7.71573 12.4865C7.71083 12.4746 7.70624 12.4627 7.70192 12.4507C7.69761 12.4387 7.6936 12.4265 7.68989 12.4143C7.68618 12.4021 7.68278 12.3897 7.67968 12.3773C7.67657 12.3649 7.67376 12.3525 7.67128 12.3399C7.66878 12.3274 7.66659 12.3148 7.66471 12.3021C7.66284 12.2895 7.66128 12.2768 7.66003 12.2641C7.65876 12.2513 7.65782 12.2386 7.65719 12.2258C7.65657 12.2131 7.65626 12.2003 7.65626 12.1875L7.65626 8.125C7.65626 8.11221 7.65657 8.09943 7.65719 8.08666C7.65782 8.07391 7.65876 8.06115 7.66003 8.04842C7.66128 8.0357 7.66284 8.02301 7.66471 8.01037C7.66659 7.99771 7.66878 7.98512 7.67128 7.97258C7.67376 7.96004 7.67657 7.94758 7.67968 7.93518C7.68278 7.92277 7.68618 7.91045 7.68989 7.89822C7.6936 7.88598 7.69761 7.87385 7.70192 7.8618C7.70624 7.84977 7.71083 7.83785 7.71573 7.82604C7.72063 7.81422 7.72581 7.80252 7.73126 7.79098C7.73673 7.77941 7.74247 7.76799 7.7485 7.75672C7.75454 7.74545 7.76083 7.73432 7.76741 7.72336C7.77399 7.7124 7.78083 7.7016 7.78792 7.69096C7.79503 7.68033 7.80239 7.66988 7.81001 7.65961C7.81762 7.64934 7.8255 7.63926 7.8336 7.62937C7.84171 7.61949 7.85007 7.60982 7.85864 7.60035C7.86721 7.59088 7.87604 7.58162 7.88509 7.57258C7.89413 7.56354 7.90339 7.55471 7.91286 7.54613C7.92233 7.53756 7.932 7.5292 7.94188 7.52109C7.95177 7.51299 7.96184 7.50512 7.97212 7.4975C7.98239 7.48988 7.99284 7.48252 8.00346 7.47541C8.01411 7.46832 8.02491 7.46148 8.03587 7.4549C8.04682 7.44832 8.05796 7.44203 8.06923 7.436C8.0805 7.42996 8.09192 7.42422 8.10348 7.41875C8.11503 7.41329 8.12673 7.40812 8.13854 7.40322C8.15036 7.39833 8.16227 7.39372 8.1743 7.38941C8.18636 7.3851 8.19848 7.38109 8.21073 7.37738C8.22296 7.37367 8.23528 7.37027 8.24768 7.36717C8.26009 7.36406 8.27255 7.36126 8.28509 7.35877C8.29762 7.35627 8.31022 7.35408 8.32288 7.35221C8.33552 7.35033 8.34821 7.34877 8.36093 7.34752C8.37366 7.34626 8.38642 7.34531 8.39917 7.34469C8.41194 7.34406 8.42472 7.34375 8.43751 7.34375ZM5 5.46875C5.01279 5.46875 5.02557 5.46906 5.03834 5.46969C5.0511 5.47031 5.06385 5.47126 5.07658 5.47252C5.0893 5.47377 5.10199 5.47533 5.11463 5.47721C5.12729 5.47908 5.13988 5.48127 5.15242 5.48377C5.16496 5.48626 5.17743 5.48906 5.18983 5.49217C5.20223 5.49527 5.21455 5.49867 5.22678 5.50238C5.23902 5.50609 5.25116 5.5101 5.26321 5.51441C5.27524 5.51872 5.28716 5.52333 5.29897 5.52822C5.31079 5.53312 5.32248 5.53829 5.33403 5.54375C5.34559 5.54922 5.35701 5.55497 5.36828 5.561C5.37956 5.56703 5.39068 5.57333 5.40164 5.5799C5.41261 5.58648 5.42341 5.59331 5.43405 5.60041C5.44467 5.60752 5.45512 5.61488 5.46539 5.6225C5.47567 5.63012 5.48574 5.63798 5.49563 5.64609C5.50551 5.65421 5.51518 5.66255 5.52465 5.67113C5.53413 5.67971 5.54339 5.68853 5.55242 5.69758C5.56147 5.70662 5.57029 5.71587 5.57887 5.72535C5.58745 5.73482 5.5958 5.74449 5.60391 5.75437C5.61202 5.76426 5.61989 5.77434 5.6275 5.78461C5.63512 5.79488 5.64248 5.80533 5.64959 5.81596C5.65669 5.8266 5.66352 5.8374 5.6701 5.84836C5.67668 5.85932 5.68298 5.87044 5.68901 5.88172C5.69504 5.89299 5.70078 5.90441 5.70625 5.91598C5.71171 5.92753 5.71688 5.93921 5.72178 5.95104C5.72668 5.96285 5.73128 5.97477 5.73559 5.9868C5.7399 5.99884 5.74391 6.01098 5.74762 6.02322C5.75133 6.03545 5.75474 6.04777 5.75784 6.06018C5.76095 6.07257 5.76375 6.08504 5.76623 6.09758C5.76873 6.11012 5.77092 6.12271 5.7728 6.13537C5.77467 6.14801 5.77623 6.1607 5.77748 6.17342C5.77875 6.18615 5.77969 6.1989 5.78032 6.21166C5.78094 6.22443 5.78125 6.23721 5.78125 6.25L5.78125 12.0312C5.78125 12.044 5.78094 12.0568 5.78032 12.0696C5.77969 12.0823 5.77875 12.0951 5.77748 12.1078C5.77623 12.1205 5.77467 12.1332 5.7728 12.1459C5.77092 12.1585 5.76873 12.1711 5.76623 12.1837C5.76375 12.1962 5.76095 12.2087 5.75784 12.2211C5.75474 12.2335 5.75133 12.2458 5.74762 12.258C5.74391 12.2703 5.7399 12.2824 5.73559 12.2945C5.73128 12.3065 5.72668 12.3184 5.72178 12.3302C5.71688 12.342 5.71171 12.3537 5.70625 12.3653C5.70078 12.3768 5.69504 12.3883 5.68901 12.3995C5.68298 12.4108 5.67668 12.4219 5.6701 12.4329C5.66352 12.4438 5.65669 12.4546 5.64959 12.4653C5.64248 12.4759 5.63512 12.4864 5.6275 12.4966C5.61989 12.5069 5.61202 12.517 5.60391 12.5269C5.5958 12.5368 5.58745 12.5464 5.57887 12.5559C5.57029 12.5654 5.56147 12.5746 5.55242 12.5837C5.54339 12.5927 5.53413 12.6015 5.52465 12.6101C5.51518 12.6187 5.50551 12.6271 5.49563 12.6352C5.48574 12.6433 5.47567 12.6511 5.46539 12.6588C5.45512 12.6664 5.44467 12.6737 5.43405 12.6808C5.42341 12.6879 5.41261 12.6948 5.40164 12.7013C5.39068 12.7079 5.37956 12.7142 5.36828 12.7203C5.35701 12.7263 5.34559 12.732 5.33403 12.7375C5.32248 12.7429 5.31079 12.7481 5.29897 12.753C5.28716 12.7579 5.27524 12.7625 5.26321 12.7668C5.25116 12.7712 5.23902 12.7752 5.22678 12.7789C5.21455 12.7826 5.20223 12.786 5.18983 12.7891C5.17743 12.7922 5.16496 12.795 5.15242 12.7975C5.13988 12.8 5.12729 12.8022 5.11463 12.804C5.10199 12.8059 5.0893 12.8075 5.07658 12.8087C5.06385 12.81 5.0511 12.8109 5.03834 12.8116C5.02557 12.8122 5.01279 12.8125 5 12.8125C4.98721 12.8125 4.97444 12.8122 4.96166 12.8116C4.9489 12.8109 4.93615 12.81 4.92342 12.8087C4.9107 12.8075 4.89802 12.8059 4.88537 12.804C4.87272 12.8022 4.86012 12.8 4.84758 12.7975C4.83504 12.795 4.82257 12.7922 4.81018 12.7891C4.79777 12.786 4.78545 12.7826 4.77322 12.7789C4.76098 12.7752 4.74884 12.7712 4.7368 12.7668C4.72477 12.7625 4.71285 12.7579 4.70104 12.753C4.68921 12.7481 4.67753 12.7429 4.66598 12.7375C4.65442 12.732 4.64299 12.7263 4.63172 12.7203C4.62044 12.7142 4.60932 12.7079 4.59836 12.7013C4.5874 12.6948 4.5766 12.6879 4.56596 12.6808C4.55533 12.6737 4.54488 12.6664 4.53461 12.6588C4.52434 12.6511 4.51426 12.6433 4.50438 12.6352C4.49449 12.6271 4.48482 12.6187 4.47535 12.6101C4.46587 12.6015 4.45662 12.5927 4.44758 12.5837C4.43853 12.5746 4.42971 12.5654 4.42113 12.5559C4.41254 12.5464 4.40419 12.5368 4.39609 12.5269C4.38798 12.517 4.38012 12.5069 4.3725 12.4966C4.36488 12.4864 4.35752 12.4759 4.35041 12.4653C4.34331 12.4546 4.33648 12.4438 4.3299 12.4329C4.32333 12.4219 4.31702 12.4108 4.311 12.3995C4.30497 12.3883 4.29922 12.3768 4.29375 12.3653C4.28829 12.3537 4.28312 12.342 4.27822 12.3302C4.27333 12.3184 4.26872 12.3065 4.26441 12.2945C4.2601 12.2824 4.25609 12.2703 4.25238 12.258C4.24867 12.2458 4.24527 12.2335 4.24217 12.2211C4.23906 12.2087 4.23626 12.1962 4.23377 12.1837C4.23127 12.1711 4.22908 12.1585 4.22721 12.1459C4.22533 12.1332 4.22377 12.1205 4.22252 12.1078C4.22126 12.0951 4.22031 12.0823 4.21969 12.0696C4.21906 12.0568 4.21875 12.044 4.21875 12.0312L4.21875 6.25C4.21875 6.23721 4.21906 6.22443 4.21969 6.21166C4.22031 6.1989 4.22126 6.18615 4.22252 6.17342C4.22377 6.1607 4.22533 6.14801 4.22721 6.13537C4.22908 6.12271 4.23127 6.11012 4.23377 6.09758C4.23626 6.08504 4.23906 6.07257 4.24217 6.06018C4.24527 6.04777 4.24867 6.03545 4.25238 6.02322C4.25609 6.01098 4.2601 5.99884 4.26441 5.9868C4.26872 5.97477 4.27333 5.96285 4.27822 5.95104C4.28312 5.93921 4.28829 5.92753 4.29375 5.91598C4.29922 5.90441 4.30497 5.89299 4.311 5.88172C4.31702 5.87044 4.32333 5.85932 4.3299 5.84836C4.33648 5.8374 4.34331 5.8266 4.35041 5.81596C4.35752 5.80533 4.36488 5.79488 4.3725 5.78461C4.38012 5.77434 4.38798 5.76426 4.39609 5.75437C4.40421 5.74449 4.41255 5.73482 4.42113 5.72535C4.42971 5.71587 4.43853 5.70662 4.44758 5.69758C4.45662 5.68853 4.46587 5.67971 4.47535 5.67113C4.48482 5.66255 4.49449 5.65421 4.50438 5.64609C4.51426 5.63798 4.52434 5.63012 4.53461 5.6225C4.54488 5.61488 4.55533 5.60752 4.56596 5.60041C4.5766 5.59331 4.5874 5.58648 4.59836 5.5799C4.60932 5.57333 4.62044 5.56703 4.63172 5.561C4.64299 5.55497 4.65442 5.54922 4.66598 5.54375C4.67753 5.53829 4.68921 5.53312 4.70104 5.52822C4.71285 5.52333 4.72477 5.51872 4.7368 5.51441C4.74884 5.5101 4.76098 5.50609 4.77322 5.50238C4.78545 5.49867 4.79777 5.49527 4.81018 5.49217C4.82257 5.48906 4.83504 5.48626 4.84758 5.48377C4.86012 5.48127 4.87272 5.47908 4.88537 5.47721C4.89802 5.47533 4.9107 5.47377 4.92342 5.47252C4.93615 5.47126 4.9489 5.47031 4.96166 5.46969C4.97444 5.46906 4.98721 5.46875 5 5.46875ZM11.875 9.21875C11.8878 9.21875 11.9006 9.21906 11.9134 9.21969C11.9261 9.22031 11.9389 9.22125 11.9516 9.22252C11.9643 9.22377 11.977 9.22533 11.9896 9.22721C12.0023 9.22908 12.0149 9.23127 12.0274 9.23377C12.04 9.23625 12.0524 9.23906 12.0648 9.24217C12.0772 9.24527 12.0896 9.24867 12.1018 9.25238C12.114 9.25609 12.1262 9.2601 12.1382 9.26441C12.1503 9.26873 12.1622 9.27332 12.174 9.27822C12.1858 9.28312 12.1975 9.2883 12.209 9.29375C12.2206 9.29922 12.232 9.30496 12.2433 9.311C12.2546 9.31703 12.2657 9.32332 12.2767 9.3299C12.2876 9.33648 12.2984 9.34332 12.3091 9.35041C12.3197 9.35752 12.3301 9.36488 12.3404 9.3725C12.3507 9.38012 12.3608 9.38799 12.3706 9.39609C12.3805 9.4042 12.3902 9.41254 12.3997 9.42113C12.4091 9.42971 12.4184 9.43854 12.4274 9.44758C12.4365 9.45662 12.4453 9.46588 12.4539 9.47535C12.4625 9.48482 12.4708 9.49449 12.4789 9.50438C12.487 9.51426 12.4949 9.52434 12.5025 9.53461C12.5101 9.54488 12.5175 9.55533 12.5246 9.56596C12.5317 9.5766 12.5385 9.5874 12.5451 9.59836C12.5517 9.60932 12.558 9.62045 12.564 9.63172C12.5701 9.64299 12.5758 9.65441 12.5812 9.66598C12.5867 9.67752 12.5919 9.68922 12.5968 9.70103C12.6017 9.71285 12.6063 9.72477 12.6106 9.7368C12.6149 9.74885 12.6189 9.76098 12.6226 9.77322C12.6263 9.78545 12.6297 9.79777 12.6328 9.81018C12.636 9.82258 12.6388 9.83504 12.6412 9.84758C12.6437 9.86012 12.6459 9.87271 12.6478 9.88537C12.6497 9.89801 12.6512 9.9107 12.6525 9.92342C12.6538 9.93615 12.6547 9.94891 12.6553 9.96166C12.656 9.97443 12.6563 9.98721 12.6563 10L12.6563 12.0312C12.6563 12.044 12.656 12.0568 12.6553 12.0696C12.6547 12.0823 12.6538 12.0951 12.6525 12.1078C12.6512 12.1205 12.6497 12.1332 12.6478 12.1459C12.6459 12.1585 12.6437 12.1711 12.6412 12.1837C12.6388 12.1962 12.636 12.2087 12.6328 12.2211C12.6297 12.2335 12.6263 12.2458 12.6226 12.258C12.6189 12.2703 12.6149 12.2824 12.6106 12.2945C12.6063 12.3065 12.6017 12.3184 12.5968 12.3302C12.5919 12.342 12.5867 12.3537 12.5813 12.3653C12.5758 12.3768 12.5701 12.3883 12.564 12.3995C12.558 12.4108 12.5517 12.4219 12.5451 12.4329C12.5385 12.4438 12.5317 12.4546 12.5246 12.4653C12.5175 12.4759 12.5101 12.4864 12.5025 12.4966C12.4949 12.5069 12.487 12.517 12.4789 12.5269C12.4708 12.5368 12.4625 12.5464 12.4539 12.5559C12.4453 12.5654 12.4365 12.5746 12.4274 12.5837C12.4184 12.5927 12.4091 12.6015 12.3997 12.6101C12.3902 12.6187 12.3805 12.6271 12.3706 12.6352C12.3608 12.6433 12.3507 12.6511 12.3404 12.6588C12.3301 12.6664 12.3197 12.6737 12.3091 12.6808C12.2984 12.6879 12.2876 12.6948 12.2767 12.7013C12.2657 12.7079 12.2546 12.7142 12.2433 12.7203C12.232 12.7263 12.2206 12.732 12.209 12.7375C12.1975 12.7429 12.1858 12.7481 12.174 12.753C12.1622 12.7579 12.1503 12.7625 12.1382 12.7668C12.1262 12.7712 12.114 12.7752 12.1018 12.7789C12.0896 12.7826 12.0772 12.786 12.0648 12.7891C12.0524 12.7922 12.04 12.795 12.0274 12.7975C12.0149 12.8 12.0023 12.8022 11.9896 12.804C11.977 12.8059 11.9643 12.8075 11.9516 12.8087C11.9389 12.81 11.9261 12.8109 11.9134 12.8116C11.9006 12.8122 11.8878 12.8125 11.875 12.8125C11.8622 12.8125 11.8494 12.8122 11.8367 12.8116C11.8239 12.8109 11.8112 12.81 11.7984 12.8087C11.7857 12.8075 11.773 12.8059 11.7604 12.804C11.7477 12.8022 11.7351 12.8 11.7226 12.7975C11.7101 12.795 11.6976 12.7922 11.6852 12.7891C11.6728 12.786 11.6605 12.7826 11.6482 12.7789C11.636 12.7752 11.6239 12.7712 11.6118 12.7668C11.5998 12.7625 11.5879 12.7579 11.576 12.753C11.5642 12.7481 11.5525 12.7429 11.541 12.7375C11.5294 12.732 11.518 12.7263 11.5067 12.7203C11.4955 12.7142 11.4843 12.7079 11.4734 12.7013C11.4624 12.6948 11.4516 12.6879 11.441 12.6808C11.4303 12.6737 11.4199 12.6664 11.4096 12.6588C11.3994 12.6511 11.3893 12.6433 11.3794 12.6352C11.3695 12.6271 11.3598 12.6187 11.3504 12.6101C11.3409 12.6015 11.3316 12.5927 11.3226 12.5837C11.3135 12.5746 11.3047 12.5654 11.2961 12.5559C11.2876 12.5464 11.2792 12.5368 11.2711 12.5269C11.263 12.517 11.2551 12.5069 11.2475 12.4966C11.2399 12.4864 11.2325 12.4759 11.2254 12.4653C11.2183 12.4546 11.2115 12.4438 11.2049 12.4329C11.1983 12.4219 11.192 12.4108 11.186 12.3995C11.18 12.3883 11.1742 12.3768 11.1688 12.3653C11.1633 12.3537 11.1581 12.342 11.1532 12.3302C11.1483 12.3184 11.1437 12.3065 11.1394 12.2945C11.1351 12.2824 11.1311 12.2703 11.1274 12.258C11.1237 12.2458 11.1203 12.2335 11.1172 12.2211C11.1141 12.2087 11.1113 12.1962 11.1088 12.1837C11.1063 12.1711 11.1041 12.1585 11.1022 12.1459C11.1003 12.1332 11.0988 12.1205 11.0975 12.1078C11.0963 12.0951 11.0953 12.0823 11.0947 12.0696C11.0941 12.0568 11.0938 12.044 11.0938 12.0312L11.0938 10C11.0938 9.98721 11.0941 9.97443 11.0947 9.96166C11.0953 9.94891 11.0963 9.93615 11.0975 9.92342C11.0988 9.9107 11.1003 9.89801 11.1022 9.88537C11.1041 9.87271 11.1063 9.86012 11.1088 9.84758C11.1113 9.83504 11.1141 9.82258 11.1172 9.81018C11.1203 9.79777 11.1237 9.78545 11.1274 9.77322C11.1311 9.76098 11.1351 9.74885 11.1394 9.7368C11.1437 9.72477 11.1483 9.71285 11.1532 9.70103C11.1581 9.68922 11.1633 9.67752 11.1688 9.66598C11.1742 9.65441 11.18 9.64299 11.186 9.63172C11.192 9.62045 11.1983 9.60932 11.2049 9.59836C11.2115 9.5874 11.2183 9.5766 11.2254 9.56596C11.2325 9.55533 11.2399 9.54488 11.2475 9.53461C11.2551 9.52434 11.263 9.51426 11.2711 9.50438C11.2792 9.49449 11.2876 9.48482 11.2961 9.47535C11.3047 9.46588 11.3135 9.45662 11.3226 9.44758C11.3316 9.43854 11.3409 9.42971 11.3504 9.42113C11.3598 9.41256 11.3695 9.4042 11.3794 9.39609C11.3893 9.38799 11.3994 9.38012 11.4096 9.3725C11.4199 9.36488 11.4303 9.35752 11.441 9.35041C11.4516 9.34332 11.4624 9.33648 11.4734 9.3299C11.4843 9.32332 11.4955 9.31703 11.5067 9.311C11.518 9.30496 11.5294 9.29922 11.541 9.29375C11.5525 9.2883 11.5642 9.28312 11.576 9.27822C11.5879 9.27332 11.5998 9.26873 11.6118 9.26441C11.6239 9.2601 11.636 9.25609 11.6482 9.25238C11.6605 9.24867 11.6728 9.24527 11.6852 9.24217C11.6976 9.23906 11.7101 9.23625 11.7226 9.23377C11.7351 9.23127 11.7477 9.22908 11.7604 9.22721C11.773 9.22533 11.7857 9.22377 11.7984 9.22252C11.8112 9.22125 11.8239 9.22031 11.8367 9.21969C11.8494 9.21906 11.8622 9.21875 11.875 9.21875ZM15.3125 10.4688C15.3253 10.4688 15.3381 10.4691 15.3509 10.4697C15.3636 10.4703 15.3764 10.4713 15.3891 10.4725C15.4018 10.4738 15.4145 10.4753 15.4272 10.4772C15.4398 10.4791 15.4524 10.4813 15.4649 10.4838C15.4775 10.4862 15.4899 10.4891 15.5023 10.4922C15.5147 10.4953 15.5271 10.4987 15.5393 10.5024C15.5515 10.5061 15.5637 10.5101 15.5757 10.5144C15.5878 10.5187 15.5997 10.5233 15.6115 10.5282C15.6233 10.5331 15.635 10.5383 15.6465 10.5437C15.6581 10.5492 15.6695 10.555 15.6808 10.561C15.6921 10.567 15.7032 10.5733 15.7142 10.5799C15.7251 10.5865 15.7359 10.5933 15.7466 10.6004C15.7572 10.6075 15.7676 10.6149 15.7779 10.6225C15.7882 10.6301 15.7983 10.638 15.8081 10.6461C15.818 10.6542 15.8277 10.6626 15.8372 10.6711C15.8466 10.6797 15.8559 10.6885 15.8649 10.6976C15.874 10.7066 15.8828 10.7159 15.8914 10.7254C15.9 10.7348 15.9083 10.7445 15.9164 10.7544C15.9245 10.7643 15.9324 10.7743 15.94 10.7846C15.9476 10.7949 15.955 10.8053 15.9621 10.816C15.9692 10.8266 15.976 10.8374 15.9826 10.8484C15.9892 10.8593 15.9955 10.8704 16.0015 10.8817C16.0076 10.893 16.0133 10.9044 16.0188 10.916C16.0242 10.9275 16.0294 10.9392 16.0343 10.951C16.0392 10.9629 16.0438 10.9748 16.0481 10.9868C16.0524 10.9988 16.0564 11.011 16.0601 11.0232C16.0639 11.0354 16.0672 11.0478 16.0704 11.0602C16.0735 11.0726 16.0763 11.085 16.0788 11.0976C16.0813 11.1101 16.0834 11.1227 16.0853 11.1354C16.0872 11.148 16.0888 11.1607 16.09 11.1734C16.0913 11.1862 16.0922 11.1989 16.0928 11.2117C16.0935 11.2244 16.0938 11.2372 16.0938 11.25L16.0938 12.0312C16.0938 12.044 16.0935 12.0568 16.0928 12.0696C16.0922 12.0823 16.0913 12.0951 16.09 12.1078C16.0888 12.1205 16.0872 12.1332 16.0853 12.1459C16.0834 12.1585 16.0813 12.1711 16.0788 12.1837C16.0763 12.1962 16.0735 12.2087 16.0704 12.2211C16.0672 12.2335 16.0639 12.2458 16.0601 12.258C16.0564 12.2703 16.0524 12.2824 16.0481 12.2945C16.0438 12.3065 16.0392 12.3184 16.0343 12.3302C16.0294 12.342 16.0242 12.3537 16.0188 12.3653C16.0133 12.3768 16.0076 12.3883 16.0015 12.3995C15.9955 12.4108 15.9892 12.4219 15.9826 12.4329C15.976 12.4438 15.9692 12.4546 15.9621 12.4653C15.955 12.4759 15.9476 12.4864 15.94 12.4966C15.9324 12.5069 15.9245 12.517 15.9164 12.5269C15.9083 12.5368 15.9 12.5464 15.8914 12.5559C15.8828 12.5654 15.874 12.5746 15.8649 12.5837C15.8559 12.5927 15.8466 12.6015 15.8372 12.6101C15.8277 12.6187 15.818 12.6271 15.8081 12.6352C15.7983 12.6433 15.7882 12.6511 15.7779 12.6588C15.7676 12.6664 15.7572 12.6737 15.7466 12.6808C15.7359 12.6879 15.7251 12.6948 15.7142 12.7013C15.7032 12.7079 15.6921 12.7142 15.6808 12.7203C15.6695 12.7263 15.6581 12.732 15.6465 12.7375C15.635 12.7429 15.6233 12.7481 15.6115 12.753C15.5997 12.7579 15.5878 12.7625 15.5757 12.7668C15.5637 12.7712 15.5515 12.7752 15.5393 12.7789C15.5271 12.7826 15.5147 12.786 15.5023 12.7891C15.4899 12.7922 15.4775 12.795 15.4649 12.7975C15.4524 12.8 15.4398 12.8022 15.4272 12.804C15.4145 12.8059 15.4018 12.8075 15.3891 12.8087C15.3764 12.81 15.3636 12.8109 15.3509 12.8116C15.3381 12.8122 15.3253 12.8125 15.3125 12.8125C15.2997 12.8125 15.287 12.8122 15.2742 12.8116C15.2614 12.8109 15.2487 12.81 15.2359 12.8087C15.2232 12.8075 15.2105 12.8059 15.1979 12.804C15.1852 12.8022 15.1726 12.8 15.1601 12.7975C15.1476 12.795 15.1351 12.7922 15.1227 12.7891C15.1103 12.786 15.098 12.7826 15.0857 12.7789C15.0735 12.7752 15.0614 12.7712 15.0493 12.7668C15.0373 12.7625 15.0254 12.7579 15.0136 12.753C15.0017 12.7481 14.99 12.7429 14.9785 12.7375C14.9669 12.732 14.9555 12.7263 14.9442 12.7203C14.933 12.7142 14.9218 12.7079 14.9109 12.7013C14.8999 12.6948 14.8891 12.6879 14.8785 12.6808C14.8679 12.6737 14.8574 12.6664 14.8471 12.6588C14.8369 12.6511 14.8268 12.6433 14.8169 12.6352C14.807 12.6271 14.7973 12.6187 14.7879 12.6101C14.7784 12.6015 14.7691 12.5927 14.7601 12.5837C14.7511 12.5746 14.7422 12.5654 14.7337 12.5559C14.7251 12.5464 14.7167 12.5368 14.7086 12.5269C14.7005 12.517 14.6926 12.5069 14.685 12.4966C14.6774 12.4864 14.67 12.4759 14.6629 12.4653C14.6558 12.4546 14.649 12.4438 14.6424 12.4329C14.6358 12.4219 14.6296 12.4108 14.6235 12.3995C14.6175 12.3883 14.6117 12.3768 14.6063 12.3653C14.6008 12.3537 14.5956 12.342 14.5907 12.3302C14.5858 12.3184 14.5813 12.3065 14.5769 12.2945C14.5726 12.2824 14.5686 12.2703 14.5649 12.258C14.5612 12.2458 14.5578 12.2335 14.5547 12.2211C14.5516 12.2087 14.5488 12.1962 14.5463 12.1837C14.5438 12.1711 14.5416 12.1585 14.5397 12.1459C14.5379 12.1332 14.5363 12.1205 14.535 12.1078C14.5338 12.0951 14.5328 12.0823 14.5322 12.0696C14.5316 12.0568 14.5313 12.044 14.5313 12.0312L14.5313 11.25C14.5313 11.2372 14.5316 11.2244 14.5322 11.2117C14.5328 11.1989 14.5338 11.1862 14.535 11.1734C14.5363 11.1607 14.5379 11.148 14.5397 11.1354C14.5416 11.1227 14.5438 11.1101 14.5463 11.0976C14.5488 11.085 14.5516 11.0726 14.5547 11.0602C14.5578 11.0478 14.5612 11.0354 14.5649 11.0232C14.5686 11.011 14.5726 10.9988 14.5769 10.9868C14.5813 10.9748 14.5858 10.9629 14.5907 10.951C14.5956 10.9392 14.6008 10.9275 14.6063 10.916C14.6117 10.9044 14.6175 10.893 14.6235 10.8817C14.6296 10.8704 14.6358 10.8593 14.6424 10.8484C14.649 10.8374 14.6558 10.8266 14.6629 10.816C14.67 10.8053 14.6774 10.7949 14.685 10.7846C14.6926 10.7743 14.7005 10.7643 14.7086 10.7544C14.7167 10.7445 14.7251 10.7348 14.7337 10.7254C14.7422 10.7159 14.7511 10.7066 14.7601 10.6976C14.7691 10.6885 14.7784 10.6797 14.7879 10.6711C14.7973 10.6626 14.807 10.6542 14.8169 10.6461C14.8268 10.638 14.8369 10.6301 14.8471 10.6225C14.8574 10.6149 14.8679 10.6075 14.8785 10.6004C14.8891 10.5933 14.8999 10.5865 14.9109 10.5799C14.9218 10.5733 14.933 10.567 14.9442 10.561C14.9555 10.555 14.9669 10.5492 14.9785 10.5437C14.99 10.5383 15.0017 10.5331 15.0136 10.5282C15.0254 10.5233 15.0373 10.5187 15.0493 10.5144C15.0614 10.5101 15.0735 10.5061 15.0857 10.5024C15.098 10.4987 15.1103 10.4953 15.1227 10.4922C15.1351 10.4891 15.1476 10.4862 15.1601 10.4838C15.1726 10.4813 15.1852 10.4791 15.1979 10.4772C15.2105 10.4753 15.2232 10.4738 15.2359 10.4725C15.2487 10.4713 15.2614 10.4703 15.2742 10.4697C15.287 10.4691 15.2997 10.4688 15.3125 10.4688Z"   fill="#D0DFFB" >
</path>
</svg>
