<svg xmlns="http://www.w3.org/2000/svg" xmlns:xlink="http://www.w3.org/1999/xlink" width="18" height="16.000015258789062" viewBox="0 0 18 16.000015258789062" fill="none">
<rect x="2" y="4" width="11" height="7"   fill="#FFFFFF" >
</rect>
<path     fill="#D4E4FF"  d="M3.31 14L3.31 13.22L10.78 13.22L10.78 14L3.31 14ZM9.02 11.35C8.97275 11.3017 8.93446 11.2509 8.89 11.2C8.84554 11.1491 8.80154 11.0935 8.76 11.04C8.71847 10.9865 8.67847 10.9358 8.64 10.88C8.60153 10.8242 8.56528 10.768 8.53 10.71C8.49471 10.652 8.46197 10.5899 8.43 10.53C8.39803 10.4701 8.36856 10.4117 8.34 10.35C8.31143 10.2883 8.28505 10.2233 8.26 10.16C8.23493 10.0967 8.21146 10.0346 8.19 9.97001C8.16852 9.90538 8.14781 9.84577 8.13 9.78001C8.11218 9.71422 8.0941 9.64671 8.08 9.58001C8.06589 9.5133 8.05033 9.44742 8.04 9.38001C8.02966 9.31258 8.02 9.23792 8.02 9.17001C8.02 9.10209 8 9.0382 8 8.97001C8 8.90181 8 8.82823 8 8.76001C8 8.69177 8.01 8.62807 8.01 8.56001C8.01 8.49195 8.03 8.42766 8.03 8.36001C8.03 8.29234 8.04749 8.21704 8.06 8.15001C8.07252 8.08296 8.09376 8.01621 8.11 7.95001C8.12625 7.88381 8.14006 7.82515 8.16 7.76001C8.17994 7.69486 8.19646 7.62386 8.22 7.56001C8.24356 7.49614 8.27291 7.43239 8.3 7.37001C8.32709 7.30762 8.35946 7.25069 8.39 7.19001C8.42055 7.1293 8.4461 7.06882 8.48 7.01001C8.51389 6.95119 8.55286 6.89674 8.59 6.84001C8.62714 6.78328 8.66973 6.72448 8.71 6.67001C8.75025 6.61553 8.78675 6.56203 8.83 6.51C8.87324 6.45797 8.9239 6.40942 8.97 6.36C9.01609 6.31058 9.06122 6.25665 9.11 6.21C9.15879 6.16336 9.20868 6.12372 9.26 6.08C9.31132 6.03629 9.36631 5.99065 9.42 5.95C9.47367 5.90936 9.52411 5.87744 9.58 5.84C9.63587 5.80257 9.69212 5.76412 9.75 5.73C9.80788 5.69588 9.87029 5.66067 9.93 5.63C9.9897 5.59932 10.0487 5.56714 10.11 5.54C10.1713 5.51286 10.2272 5.4935 10.29 5.47C10.3527 5.44649 10.416 5.41981 10.48 5.4C10.544 5.3802 10.615 5.36603 10.68 5.35C10.745 5.33397 10.8042 5.3222 10.87 5.31C10.9358 5.29779 11.0037 5.28 11.07 5.28C11.1363 5.28 11.2033 5.26 11.27 5.26C11.3367 5.26 11.4032 5.25 11.47 5.25C11.5368 5.25 11.6032 5.25 11.67 5.25C11.7367 5.25 11.8035 5.27 11.87 5.27C11.9364 5.27 12.0041 5.28886 12.07 5.3C12.1359 5.31112 12.2048 5.32504 12.27 5.34C12.3352 5.35496 12.3957 5.37125 12.46 5.39C12.5243 5.40875 12.5869 5.42753 12.65 5.45C12.7131 5.47248 12.7783 5.49388 12.84 5.52C12.9017 5.54613 12.9598 5.58031 13.02 5.61C13.0802 5.63969 13.1416 5.66685 13.2 5.7C13.2584 5.73316 13.3135 5.76347 13.37 5.8C13.4265 5.83652 13.4857 5.88025 13.54 5.92C13.5943 5.95976 13.648 5.99713 13.7 6.04C13.752 6.08287 13.8005 6.13415 13.85 6.18C13.8995 6.22583 13.9531 6.27134 14 6.32C14.0469 6.36864 14.0859 6.41868 14.13 6.47C14.1741 6.52131 14.2189 6.56619 14.26 6.62C14.3011 6.6738 14.342 6.73388 14.38 6.79001C14.418 6.84612 14.4552 6.90175 14.49 6.96001C14.5248 7.01826 14.5585 7.07982 14.59 7.14001C14.6215 7.2002 14.652 7.25807 14.68 7.32001C14.708 7.38193 14.7354 7.44653 14.76 7.51001C14.7846 7.57348 14.799 7.6352 14.82 7.70001C14.841 7.7648 14.8628 7.83408 14.88 7.90001C14.8973 7.96593 14.9164 8.03318 14.93 8.10001C14.9435 8.16682 14.96 8.23249 14.96 8.30001C14.96 8.36751 14.99 8.43203 14.99 8.50001C14.99 8.56797 15 8.6418 15 8.71001C15 8.77822 15 8.84178 15 8.91001C15 8.97823 14.99 9.05199 14.99 9.12001C14.99 9.18802 14.97 9.25243 14.97 9.32001C14.97 9.38759 14.943 9.45308 14.93 9.52001C14.917 9.58694 14.9068 9.65396 14.89 9.72001C14.8732 9.78606 14.8505 9.85504 14.83 9.92001C14.8096 9.98498 14.7941 10.0463 14.77 10.11C14.746 10.1737 14.7176 10.2379 14.69 10.3C14.6623 10.3622 14.631 10.4196 14.6 10.48C14.569 10.5404 14.5343 10.6015 14.5 10.66C14.4656 10.7185 14.4276 10.7736 14.39 10.83C14.3524 10.8864 14.3207 10.9459 14.28 11C14.2393 11.0541 14.1937 11.1083 14.15 11.16C14.1063 11.2117 14.0565 11.261 14.01 11.31C13.9635 11.359 13.9192 11.4038 13.87 11.45C13.8208 11.4962 13.7717 11.5467 13.72 11.59C13.6683 11.6333 13.614 11.6698 13.56 11.71C13.506 11.7502 13.4562 11.793 13.4 11.83C13.3438 11.867 13.2781 11.8964 13.22 11.93C13.1618 11.9636 13.1099 11.9998 13.05 12.03C12.9901 12.0602 12.9315 12.0834 12.87 12.11C12.8085 12.1366 12.7429 12.167 12.68 12.19C12.6171 12.213 12.5541 12.2307 12.49 12.25C12.4259 12.2693 12.3551 12.2845 12.29 12.3C12.2249 12.3155 12.1658 12.3283 12.1 12.34C12.0341 12.3517 11.9664 12.37 11.9 12.37C11.8336 12.37 11.7667 12.39 11.7 12.39C11.6333 12.39 11.5668 12.4 11.5 12.4C11.4714 12.4 11.4386 12.4 11.41 12.4C11.3814 12.4 11.3586 12.39 11.33 12.39C11.3014 12.39 11.2686 12.39 11.24 12.39C11.2114 12.39 11.1885 12.38 11.16 12.38C11.1315 12.38 11.0984 12.37 11.07 12.37C11.0416 12.37 11.0183 12.36 10.99 12.36C10.9617 12.36 10.9282 12.35 10.9 12.35C10.8718 12.35 10.8481 12.33 10.82 12.33C10.7919 12.33 10.7579 12.31 10.73 12.31C10.702 12.31 10.6778 12.29 10.65 12.29C10.6222 12.29 10.5976 12.27 10.57 12.27C10.5424 12.27 10.5074 12.25 10.48 12.25C10.4526 12.25 10.4272 12.22 10.4 12.22C10.3728 12.22 10.347 12.19 10.32 12.19C10.293 12.19 10.2667 12.1705 10.24 12.16C10.2133 12.1495 10.1865 12.1412 10.16 12.13C10.1335 12.1188 10.1062 12.1019 10.08 12.09C10.0538 12.0781 10.0259 12.0725 10 12.06C9.97411 12.0475 9.95558 12.0332 9.93 12.02C9.90442 12.0068 9.87525 11.9938 9.85 11.98C9.82475 11.9662 9.7949 11.9444 9.77 11.93C9.74509 11.9156 9.72456 11.9051 9.7 11.89C9.67544 11.8749 9.65417 11.8557 9.63 11.84C9.60581 11.8243 9.57378 11.8163 9.55 11.8C9.5262 11.7837 9.50338 11.7669 9.48 11.75C9.45661 11.7331 9.43298 11.7075 9.41 11.69C9.38701 11.6725 9.37255 11.658 9.35 11.64C9.32745 11.622 9.3021 11.6086 9.28 11.59C9.2579 11.5714 9.23165 11.5492 9.21 11.53C9.18835 11.5108 9.17117 11.4897 9.15 11.47C9.12882 11.4503 9.11068 11.4302 9.09 11.41C9.06931 11.3898 9.0402 11.3708 9.02 11.35ZM10.31 9.47001L11.7 9.47001L11.7 11.19L13.09 8.47001L11.43 8.47001L11.43 6.55L10.31 9.47001ZM8.51 11.75L2 11.75C1.44772 11.75 1 11.3023 1 10.75L1 3C1 2.44772 1.44772 2 2 2L11.77 2C12.3223 2 12.77 2.44772 12.77 3L12.77 4.8C12.7332 4.78788 12.6972 4.78106 12.66 4.77C12.6228 4.75895 12.5874 4.74 12.55 4.74C12.5125 4.74 12.4777 4.71 12.44 4.71C12.4023 4.71 12.3579 4.68 12.32 4.68C12.2821 4.68 12.2481 4.66 12.21 4.66C12.1719 4.66 12.1283 4.64 12.09 4.64C12.0517 4.64 12.0184 4.63 11.98 4.63C11.9416 4.63 11.8985 4.62 11.86 4.62C11.8214 4.62 11.7886 4.61 11.75 4.61C11.7114 4.61 11.6687 4.6 11.63 4.6C11.5913 4.6 11.5587 4.6 11.52 4.6C11.4813 4.6 11.4387 4.6 11.4 4.6C11.3613 4.6 11.3186 4.61 11.28 4.61C11.2414 4.61 11.2086 4.61 11.17 4.61C11.1314 4.61 11.0885 4.62 11.05 4.62C11.0115 4.62 10.9783 4.64 10.94 4.64C10.9017 4.64 10.8582 4.66 10.82 4.66C10.7818 4.66 10.748 4.68 10.71 4.68C10.672 4.68 10.6378 4.7 10.6 4.7C10.5622 4.7 10.5175 4.73 10.48 4.73C10.4425 4.73 10.4072 4.74918 10.37 4.76C10.3328 4.77079 10.2969 4.77813 10.26 4.79C10.2231 4.80186 10.1866 4.81707 10.15 4.83C10.1134 4.84292 10.0762 4.85605 10.04 4.87C10.0038 4.88396 9.9658 4.90501 9.93 4.92C9.89418 4.93498 9.85538 4.94398 9.82 4.96C9.78461 4.97601 9.75492 4.99298 9.72 5.01C9.68507 5.02701 9.65445 5.042 9.62 5.06C9.58556 5.078 9.54395 5.10101 9.51 5.12C9.47606 5.13899 9.4434 5.16005 9.41 5.18C9.37659 5.19994 9.34284 5.2191 9.31 5.24C9.27715 5.26089 9.24225 5.27816 9.21 5.3L8.24 4.31L5.33 7.20001L4.52 6.37L2.7 8.31001L3.17 8.79001L4.59 7.34001L4.93 7.69001L5.33 8.24001L8.24 5.27L8.69 5.73C8.63987 5.77747 8.58776 5.83003 8.54 5.88C8.49224 5.92996 8.44527 5.97769 8.4 6.03C8.35471 6.08232 8.31268 6.13546 8.27 6.19C8.22732 6.24455 8.17998 6.30336 8.14 6.36C8.10002 6.41665 8.06718 6.4714 8.03 6.53C7.99282 6.5886 7.95429 6.6496 7.92 6.71001C7.88572 6.77041 7.85131 6.82794 7.82 6.89001C7.78869 6.95207 7.75826 7.01642 7.73 7.08001C7.70173 7.14357 7.67513 7.20507 7.65 7.27001C7.62486 7.33493 7.60195 7.40386 7.58 7.47001C7.55805 7.53612 7.5387 7.60284 7.52 7.67001C7.50129 7.73716 7.48543 7.80199 7.47 7.87001C7.45457 7.93802 7.4421 8.01129 7.43 8.08001C7.4179 8.14873 7.4 8.21076 7.4 8.28001C7.4 8.34926 7.38 8.42041 7.38 8.49001C7.38 8.55961 7.36 8.63022 7.36 8.70001C7.36 8.7698 7.36 8.8402 7.36 8.91001C7.36 8.97981 7.37 9.05035 7.37 9.12001C7.37 9.18965 7.39 9.26067 7.39 9.33001C7.39 9.39931 7.40847 9.47118 7.42 9.54001C7.43153 9.60883 7.44514 9.67184 7.46 9.74001C7.47486 9.80816 7.49184 9.87269 7.51 9.94001C7.52814 10.0073 7.54861 10.0737 7.57 10.14C7.5914 10.2063 7.61541 10.2748 7.64 10.34C7.66459 10.4052 7.69228 10.4762 7.72 10.54C7.74772 10.6038 7.77921 10.6577 7.81 10.72C7.84079 10.7823 7.86622 10.8493 7.9 10.91C7.93378 10.9707 7.97331 11.0311 8.01 11.09C8.04668 11.1489 8.08049 11.203 8.12 11.26C8.15949 11.317 8.20778 11.3751 8.25 11.43C8.29222 11.4849 8.33517 11.5373 8.38 11.59C8.42484 11.6427 8.46265 11.6996 8.51 11.75Z">
</path>
<g filter="url(#filter_168_5278)">
<circle cx="12" cy="9" r="4"   fill="#357CF0" >
</circle>
</g>
<path d="M10.8869 11L13.056 8.40388L12.1556 8.40388L13.1697 7L11.6415 7L10.832 9.16757L11.6172 9.16757L10.8869 11Z"   fill="#FFFFFF" >
</path>
<defs>
<filter id="filter_168_5278" x="6" y="4" width="12" height="12" filterUnits="userSpaceOnUse" color-interpolation-filters="sRGB">
<feFlood flood-opacity="0" result="feFloodId_168_5278"/>
<feColorMatrix in="SourceAlpha" type="matrix" values="0 0 0 0 0 0 0 0 0 0 0 0 0 0 0 0 0 0 127 0" result="hardAlpha_168_5278"/>
<feOffset dx="0" dy="1"/>
<feGaussianBlur stdDeviation="1"/>
<feComposite in2="hardAlpha_168_5278" operator="out"/>
<feColorMatrix type="matrix" values="0 0 0 0 0.16862745098039217 0 0 0 0 0.4 0 0 0 0 0.7686274509803922 0 0 0 0.15 0"/>
<feBlend mode="normal" in2="feFloodId_168_5278" result="dropShadow_1_168_5278"/>
<feBlend mode="normal" in="SourceGraphic" in2="dropShadow_1_168_5278" result="shape_168_5278"/>
</filter>
</defs>
</svg>
